<?xml version="1.0" encoding="iso-8859-1"?>
<!DOCTYPE svg PUBLIC "-//W3C//DTD SVG 1.1//EN" "http://www.w3.org/Graphics/SVG/1.1/DTD/svg11.dtd">
<svg  version="1.1" xmlns="http://www.w3.org/2000/svg" xmlns:xlink="http://www.w3.org/1999/xlink" x="0px" y="0px" width="512px"
	 height="512px" viewBox="0 0 512 512" enable-background="new 0 0 512 512" xml:space="preserve"><g id="1b1c9b208ed950244c86edd4d2031d4b"><path display="inline" d="M492.498,370.701l-180.28-280.85c-30.915-48.164-81.516-48.164-112.439,0L19.498,370.701
		c-30.915,48.16-23.288,87.57,16.967,87.57H475.54C515.786,458.271,523.421,418.861,492.498,370.701z M279.249,395.563
		c-5.931,6.324-12.975,9.48-21.134,9.48c-9.382,0-17.358-3.156-23.954-9.48c-6.596-6.318-9.897-13.732-9.897-22.254
		c0-8.787,3.227-16.275,9.673-22.455c6.446-6.184,14.497-9.273,24.178-9.273c8.159,0,15.203,3.16,21.134,9.477
		c5.93,6.326,8.891,13.74,8.891,22.252C288.14,381.83,285.179,389.244,279.249,395.563z M285.096,240.648
		c-2.021,30.915-3.036,52.647-3.036,65.227c0,9.027-8.679,13.66-25.858,14.002c-17.179-0.342-25.858-4.975-25.858-14.002
		c0-12.58-1.015-34.313-3.036-65.227c-2.029-30.906-3.044-52.755-3.044-65.547c0-5.963,3.177-10.712,9.523-14.226
		c5.905-3.273,13.424-4.961,22.415-5.186c8.992,0.225,16.51,1.913,22.416,5.186c6.346,3.514,9.522,8.263,9.522,14.226
		C288.14,187.893,287.125,209.742,285.096,240.648z"></path></g></svg>