<?xml version="1.0" encoding="iso-8859-1"?>
<!DOCTYPE svg PUBLIC "-//W3C//DTD SVG 1.1//EN" "http://www.w3.org/Graphics/SVG/1.1/DTD/svg11.dtd">
<svg  version="1.1" xmlns="http://www.w3.org/2000/svg" xmlns:xlink="http://www.w3.org/1999/xlink" x="0px" y="0px" width="512px"
	 height="512px" viewBox="0 0 512 512" enable-background="new 0 0 512 512" xml:space="preserve"><g id="1b1c9b208ed950244c86edd4d2036ca7"><path display="inline" d="M452.229,119.125l-84.317-84.317C333.612,0.5,283.22,0.5,259.001,0.5c-3.867,0-7.672,0.04-11.368,0.077
		c-3.094,0.034-6.104,0.065-8.987,0.065H134.945c-60.371,0-109.484,49.114-109.484,109.484v291.889
		c0,60.371,49.113,109.484,109.484,109.484h241.969c60.37,0,109.483-49.113,109.483-109.484V248.394
		c0-2.883,0.034-5.893,0.064-8.987C486.818,205.493,487.354,154.24,452.229,119.125z M428.763,248.394v153.622
		c0,28.518-23.331,51.85-51.849,51.85H134.945c-28.518,0-51.849-23.332-51.849-51.85V110.126c0-28.517,23.332-51.849,51.849-51.849
		h103.702c6.339,0,13.238-0.143,20.354-0.143c24.897,0,52.478,1.743,68.158,17.426l84.32,84.321
		C431.645,180.042,428.763,219.877,428.763,248.394z M140.652,184.902V165.69c0-10.566,8.646-19.212,19.212-19.212h153.693
		c10.566,0,19.212,8.646,19.212,19.212v19.211c0,10.566-8.646,19.212-19.212,19.212H159.864
		C149.297,204.114,140.652,195.468,140.652,184.902z M371.191,261.748v19.212c0,10.566-8.645,19.212-19.211,19.212H159.864
		c-10.566,0-19.212-8.646-19.212-19.212v-19.212c0-10.566,8.646-19.211,19.212-19.211H351.98
		C362.547,242.537,371.191,251.182,371.191,261.748z M371.191,357.807v19.212c0,10.566-8.645,19.212-19.211,19.212H159.864
		c-10.566,0-19.212-8.646-19.212-19.212v-19.212c0-10.566,8.646-19.212,19.212-19.212H351.98
		C362.547,338.595,371.191,347.24,371.191,357.807z"></path></g></svg>