<?xml version="1.0" encoding="iso-8859-1"?>
<!DOCTYPE svg PUBLIC "-//W3C//DTD SVG 1.1//EN" "http://www.w3.org/Graphics/SVG/1.1/DTD/svg11.dtd">
<svg  version="1.1" xmlns="http://www.w3.org/2000/svg" xmlns:xlink="http://www.w3.org/1999/xlink" x="0px" y="0px" width="512px"
	 height="512px" viewBox="0 0 512 512" enable-background="new 0 0 512 512" xml:space="preserve"><g id="1b1c9b208ed950244c86edd4d2037ced"><path display="inline" d="M367.069,33.826c-53.781,0-88.935,15.467-111.071,35.689c-22.142-20.222-57.294-35.689-111.085-35.689
		C57.185,33.826,0.5,97.779,0.5,196.755c0,120.964,82.458,232.944,200.531,272.324c11.519,3.84,27.292,9.095,54.713,9.095
		c26.292,0,41.146-4.244,55.27-8.97C429.057,429.687,511.5,317.653,511.5,196.755C511.5,97.779,454.807,33.826,367.069,33.826z
		 M289.859,405.998c-8.856,2.964-16.507,5.523-34.115,5.523c-16.607,0-24.127-2.504-33.634-5.671
		C130.873,375.419,67.152,289.438,67.152,196.755c0-35.956,10.102-96.277,77.761-96.277c71.328,0,77.31,33.624,77.77,40.733
		c0.395,18.063,15.16,32.584,33.317,32.584c18.407,0,33.326-14.921,33.326-33.326c0-0.399,0.89-39.992,77.743-39.992
		c67.672,0,77.778,60.321,77.778,96.277C444.848,289.404,381.111,375.449,289.859,405.998z"></path></g></svg>