<?xml version="1.0" encoding="iso-8859-1"?>
<!DOCTYPE svg PUBLIC "-//W3C//DTD SVG 1.1//EN" "http://www.w3.org/Graphics/SVG/1.1/DTD/svg11.dtd">
<svg  version="1.1" xmlns="http://www.w3.org/2000/svg" xmlns:xlink="http://www.w3.org/1999/xlink" x="0px" y="0px" width="512px"
	 height="512px" viewBox="0 0 512 512" enable-background="new 0 0 512 512" xml:space="preserve"><g id="1b1c9b208ed950244c86edd4d202d7c5"><path d="M432.207,264.811v193.827c0,29.074-23.788,52.862-52.862,52.862H132.655c-29.074,0-52.862-23.788-52.862-52.862V264.811
		c0-29.074,23.788-52.862,52.862-52.862h246.689C408.419,211.948,432.207,235.736,432.207,264.811z M220.759,176.707h70.482
		c29.074,0,52.862-23.788,52.862-52.862V53.362c0-29.074-23.788-52.862-52.862-52.862h-70.482
		c-29.074,0-52.862,23.788-52.862,52.862v70.482C167.896,152.919,191.685,176.707,220.759,176.707z"></path></g></svg>