<?xml version="1.0" encoding="iso-8859-1"?>
<!DOCTYPE svg PUBLIC "-//W3C//DTD SVG 1.1//EN" "http://www.w3.org/Graphics/SVG/1.1/DTD/svg11.dtd">
<svg  version="1.1" xmlns="http://www.w3.org/2000/svg" xmlns:xlink="http://www.w3.org/1999/xlink" x="0px" y="0px" width="512px"
	 height="512px" viewBox="0 0 512 512" enable-background="new 0 0 512 512" xml:space="preserve"><g id="1b1c9b208ed950244c86edd4d20301a0"><path display="inline" d="M501.28,41.38V204.9c0,22.484-13.007,27.874-28.907,11.973l-64.83-64.827L274.987,284.604
		c-15.901,15.901-41.915,15.901-57.815,0c-15.897-15.896-15.897-41.914,0.004-57.811L349.736,94.234l-64.829-64.827
		C269.007,13.506,274.396,0.5,296.88,0.5H460.4C482.884,0.5,501.28,18.896,501.28,41.38z M439.96,327.54h-20.44
		c-11.241,0-20.439,9.198-20.439,20.439v40.881c0,33.726-27.594,61.319-61.32,61.319h-204.4c-33.726,0-61.319-27.594-61.319-61.319
		V143.58c0-33.726,27.594-61.32,61.319-61.32h40.881c11.241,0,20.439-9.198,20.439-20.44V41.38c0-11.242-9.198-20.44-20.439-20.44
		h-40.881c-67.623,0-122.64,55.016-122.64,122.64v245.28c0,67.623,55.017,122.64,122.64,122.64h204.4
		c67.624,0,122.641-55.017,122.641-122.64v-40.881C460.4,336.738,451.202,327.54,439.96,327.54z"></path></g></svg>