<?xml version="1.0" encoding="iso-8859-1"?>
<!DOCTYPE svg PUBLIC "-//W3C//DTD SVG 1.1//EN" "http://www.w3.org/Graphics/SVG/1.1/DTD/svg11.dtd">
<svg  version="1.1" xmlns="http://www.w3.org/2000/svg" xmlns:xlink="http://www.w3.org/1999/xlink" x="0px" y="0px" width="512px"
	 height="512px" viewBox="0 0 512 512" enable-background="new 0 0 512 512" xml:space="preserve"><g id="1b1c9b208ed950244c86edd4d2035658"><path display="inline" d="M407.407,0.5H104.593c-31.229,0-56.778,25.55-56.778,56.778v397.445c0,31.228,25.55,56.777,56.778,56.777
		h302.814c31.228,0,56.778-25.55,56.778-56.777V57.278C464.186,26.05,438.635,0.5,407.407,0.5z M104.593,38.352h302.814
		c10.258,0,18.926,8.666,18.926,18.926v321.741H85.666V57.278C85.666,47.018,94.333,38.352,104.593,38.352z M227.611,445.26
		c0-15.681,12.71-28.39,28.389-28.39c15.681,0,28.389,12.709,28.389,28.39c0,15.68-12.708,28.389-28.389,28.389
		C240.321,473.648,227.611,460.939,227.611,445.26z"></path></g></svg>