<?xml version="1.0" encoding="iso-8859-1"?>
<!DOCTYPE svg PUBLIC "-//W3C//DTD SVG 1.1//EN" "http://www.w3.org/Graphics/SVG/1.1/DTD/svg11.dtd">
<svg  version="1.1" xmlns="http://www.w3.org/2000/svg" xmlns:xlink="http://www.w3.org/1999/xlink" x="0px" y="0px" width="512px"
	 height="512px" viewBox="0 0 512 512" enable-background="new 0 0 512 512" xml:space="preserve"><g id="1b1c9b208ed950244c86edd4d2030090"><path display="inline" d="M482.788,279.516c25.41-25.031,34.704-57.943,24.862-88.037c-9.841-30.094-36.781-51.155-72.073-56.339
		l-62.224-9.143c-3.854-1.122-11.103-6.422-13.338-9.75L331.873,58.62C316.135,26.379,287.768,7.13,256,7.13
		s-60.132,19.249-75.875,51.494l-28.138,57.623c-2.238,3.328-9.487,8.628-13.339,9.75l-62.227,9.143
		c-35.288,5.184-62.232,26.245-72.073,56.339c-9.841,30.096-0.545,63.008,24.864,88.043l45.354,44.676
		c2.567,3.285,5.451,12.211,5.285,16.373l-10.78,63.523c-4.761,28.055,1.532,54.066,17.723,73.238
		c14.781,17.502,36.707,27.537,60.153,27.537c15.112,0,30.326-4.01,45.216-11.922l55.77-29.633c0.962-0.318,3.888-1.012,8.068-1.012
		s7.113,0.693,8.071,1.016l55.775,29.633c14.884,7.908,30.1,11.918,45.208,11.918c23.443,0,45.37-10.035,60.15-27.537
		c16.19-19.168,22.486-45.18,17.729-73.234l-10.787-63.521c-0.166-4.164,2.721-13.098,5.292-16.379L482.788,279.516z
		 M392.422,279.127c-16.639,16.393-27.057,48.646-23.149,71.676l10.857,63.949c2.824,16.646-3.542,26.418-15.075,26.418
		c-4.421,0-9.604-1.436-15.324-4.477l-56.227-29.871c-10.314-5.479-23.909-8.221-37.503-8.221s-27.188,2.742-37.502,8.221
		l-56.228,29.871c-5.717,3.041-10.901,4.477-15.324,4.477c-11.535,0-17.899-9.771-15.073-26.418l10.853-63.949
		c3.909-23.029-6.507-55.283-23.146-71.676L73.917,234.14c-16.638-16.392-11.344-32.582,11.764-35.977l62.693-9.211
		c23.108-3.395,50.4-23.344,60.648-44.333l28.346-58.048c5.124-10.495,11.877-15.741,18.633-15.741
		c6.756,0,13.511,5.246,18.633,15.741l28.346,58.048c10.248,20.989,37.54,40.938,60.648,44.333l62.692,9.211
		c23.108,3.395,28.4,19.585,11.762,35.977L392.422,279.127z"></path></g></svg>