<?xml version="1.0" encoding="iso-8859-1"?>
<!DOCTYPE svg PUBLIC "-//W3C//DTD SVG 1.1//EN" "http://www.w3.org/Graphics/SVG/1.1/DTD/svg11.dtd">
<svg  version="1.1" xmlns="http://www.w3.org/2000/svg" xmlns:xlink="http://www.w3.org/1999/xlink" x="0px" y="0px" width="512px"
	 height="512px" viewBox="0 0 512 512" enable-background="new 0 0 512 512" xml:space="preserve"><g id="1b1c9b208ed950244c86edd4d20369e8"><path display="inline" d="M399.719,0.5H112.281C50.646,0.5,0.5,50.646,0.5,112.281v223.563
		c0,61.638,50.146,111.781,111.781,111.781h125.754l84.663,50.942c14.057,8.458,29.584,12.933,44.896,12.933
		c41.811,0,74.197-31.201,79.324-74.334c38.117-17.827,64.582-56.539,64.582-101.322V112.281C511.5,50.646,461.356,0.5,399.719,0.5z
		 M447.625,335.844c0,26.349-21.558,47.906-47.906,47.906H383.75v41.319c0,14.205-6.629,22.556-16.156,22.556
		c-3.634,0-7.693-1.219-11.964-3.788l-99.858-60.087h-143.49c-26.349,0-47.906-21.558-47.906-47.906V112.281
		c0-26.349,21.558-47.906,47.906-47.906h287.438c26.349,0,47.906,21.558,47.906,47.906V335.844z"></path></g></svg>