<?xml version="1.0" encoding="iso-8859-1"?>
<!DOCTYPE svg PUBLIC "-//W3C//DTD SVG 1.1//EN" "http://www.w3.org/Graphics/SVG/1.1/DTD/svg11.dtd">
<svg  version="1.1" xmlns="http://www.w3.org/2000/svg" xmlns:xlink="http://www.w3.org/1999/xlink" x="0px" y="0px" width="512px"
	 height="512px" viewBox="0 0 512 512" enable-background="new 0 0 512 512" xml:space="preserve"><g id="1b1c9b208ed950244c86edd4d203c32a"><path display="inline" d="M361.725,0.5H150.276C91.979,0.5,44.552,47.928,44.552,106.224v299.551
		c0,58.297,47.428,105.725,105.724,105.725h211.449c58.296,0,105.724-47.428,105.724-105.725V106.224
		C467.448,47.928,420.021,0.5,361.725,0.5z M132.655,405.775c-19.383,0-35.242-15.858-35.242-35.241s15.859-35.241,35.242-35.241
		s35.241,15.858,35.241,35.241S152.038,405.775,132.655,405.775z M132.655,300.052c-19.383,0-35.242-15.858-35.242-35.241
		s15.859-35.242,35.242-35.242s35.241,15.859,35.241,35.242S152.038,300.052,132.655,300.052z M256,405.775
		c-19.383,0-35.241-15.858-35.241-35.241s15.858-35.241,35.241-35.241s35.241,15.858,35.241,35.241S275.383,405.775,256,405.775z
		 M256,300.052c-19.383,0-35.241-15.858-35.241-35.241s15.858-35.242,35.241-35.242s35.241,15.859,35.241,35.242
		S275.383,300.052,256,300.052z M379.345,405.775c-19.383,0-35.241-15.858-35.241-35.241s15.858-35.241,35.241-35.241
		s35.241,15.858,35.241,35.241S398.728,405.775,379.345,405.775z M379.345,300.052c-19.383,0-35.241-15.858-35.241-35.241
		s15.858-35.242,35.241-35.242s35.241,15.859,35.241,35.242S398.728,300.052,379.345,300.052z M414.586,159.086H97.414v-52.862
		c0-29.074,23.788-52.862,52.862-52.862h211.449c29.073,0,52.861,23.788,52.861,52.862V159.086z"></path></g></svg>