<?xml version="1.0" encoding="iso-8859-1"?>
<!DOCTYPE svg PUBLIC "-//W3C//DTD SVG 1.1//EN" "http://www.w3.org/Graphics/SVG/1.1/DTD/svg11.dtd">
<svg  version="1.1" xmlns="http://www.w3.org/2000/svg" xmlns:xlink="http://www.w3.org/1999/xlink" x="0px" y="0px" width="512px"
	 height="512px" viewBox="0 0 512 512" enable-background="new 0 0 512 512" xml:space="preserve"><g id="e6c6b53d3c8160b22dad35a0f70caf0e"><path display="inline" d="M256,0.5C114.893,0.5,0.5,114.893,0.5,256S114.893,511.5,256,511.5S511.5,397.107,511.5,256
		S397.107,0.5,256,0.5z M239.428,380.307c-31.555,31.555-81.611,33.135-111.241,3.506c-29.629-29.63-28.049-79.686,3.506-111.232
		l52.909-52.917c31.123-31.118,80.231-33.064,109.994-4.678c0.229,0.208,0.466,0.399,0.686,0.616
		c0.071,0.062,0.121,0.133,0.188,0.204c0.125,0.125,0.254,0.233,0.374,0.354l-0.029,0.029c8.446,9.041,8.284,23.209-0.536,32.021
		c-8.999,9.007-23.6,9.012-32.607,0.004c-0.033-0.037-0.104-0.108-0.104-0.108c-13.648-13.644-36.4-12.629-50.958,1.925
		l-49.549,49.549c-14.563,14.56-15.332,38.392-1.68,52.048c13.644,13.648,37.48,12.875,52.044-1.684l18.36-18.36
		c0,0,8.379,3.239,24.652,4.895c15.694,1.589,30.964-3.14,30.964-3.14L239.428,380.307z M380.307,239.428l-52.909,52.909
		c-31.126,31.118-80.23,33.064-109.997,4.683c-0.229-0.208-0.466-0.395-0.682-0.615c-0.071-0.066-0.125-0.142-0.188-0.208
		c-0.125-0.12-0.253-0.229-0.374-0.354l0.029-0.029c-8.45-9.04-8.284-23.204,0.533-32.021c9.003-9.007,23.6-9.007,32.607,0
		c0.037,0.033,0.1,0.1,0.1,0.1c13.653,13.652,36.408,12.638,50.967-1.921l49.545-49.545c14.563-14.563,15.332-38.396,1.68-52.044
		c-13.648-13.652-37.48-12.883-52.044,1.676l-18.355,18.36c0,0-8.384-3.24-24.652-4.895c-15.698-1.588-30.964,3.14-30.964,3.14
		l46.97-46.971c31.556-31.555,81.611-33.135,111.241-3.506C413.441,157.817,411.857,207.874,380.307,239.428z"></path></g></svg>