<?xml version="1.0" encoding="iso-8859-1"?>
<!DOCTYPE svg PUBLIC "-//W3C//DTD SVG 1.1//EN" "http://www.w3.org/Graphics/SVG/1.1/DTD/svg11.dtd">
<svg  version="1.1" xmlns="http://www.w3.org/2000/svg" xmlns:xlink="http://www.w3.org/1999/xlink" x="0px" y="0px" width="512px"
	 height="512px" viewBox="0 0 512 512" enable-background="new 0 0 512 512" xml:space="preserve"><g id="e6c6b53d3c8160b22dad35a0f70c9271"><path display="inline" d="M256,0.5C114.893,0.5,0.5,114.893,0.5,256S114.893,511.5,256,511.5S511.5,397.107,511.5,256
		S397.107,0.5,256,0.5z M315.616,180.768c24.86,0,45.021,20.161,45.021,45.016c0,24.86-20.16,45.021-45.021,45.021
		c-24.859,0-45.016-20.161-45.016-45.021C270.601,200.929,290.757,180.768,315.616,180.768z M196.383,121.151
		c24.86,0,45.02,20.161,45.02,45.016c0,24.86-20.16,45.016-45.02,45.016s-45.02-20.156-45.02-45.016
		C151.363,141.312,171.523,121.151,196.383,121.151z M196.383,331.12v0.112h-75.028c-35.497-47.324,0.636-94.607,43.544-112.497
		l31.484,52.477l31.538-52.568c10.268,4.287,20.132,10.271,28.731,17.524c2.109,11.943,7.735,22.685,15.811,31.085
		c-28.964,13.848-50.976,37.83-58.344,63.867H196.383z M390.645,390.736h-75.028v0.112h-75.028
		c-35.497-47.324,0.636-94.603,43.548-112.496l31.479,52.476l31.539-52.567C390.042,296.172,426.125,343.429,390.645,390.736z"></path></g></svg>