<?xml version="1.0" encoding="iso-8859-1"?>
<!DOCTYPE svg PUBLIC "-//W3C//DTD SVG 1.1//EN" "http://www.w3.org/Graphics/SVG/1.1/DTD/svg11.dtd">
<svg  version="1.1" xmlns="http://www.w3.org/2000/svg" xmlns:xlink="http://www.w3.org/1999/xlink" x="0px" y="0px" width="512px"
	 height="512px" viewBox="0 0 512 512" enable-background="new 0 0 512 512" xml:space="preserve"><g id="e6c6b53d3c8160b22dad35a0f70c8390"><path display="inline" d="M256,0.5C114.893,0.5,0.5,114.893,0.5,256S114.893,511.5,256,511.5S511.5,397.107,511.5,256
		S397.107,0.5,256,0.5z M256,118.448c32.553,0,58.951,26.398,58.951,58.947c0,32.557-26.398,58.956-58.951,58.956
		s-58.951-26.398-58.951-58.956C197.049,144.847,223.447,118.448,256,118.448z M354.249,393.406H256v0.146h-98.25
		c-46.484-61.971,0.832-123.887,57.022-147.316L256,314.951l41.299-68.836C353.464,269.569,400.717,331.456,354.249,393.406z"></path></g></svg>