<?xml version="1.0" encoding="iso-8859-1"?>
<!DOCTYPE svg PUBLIC "-//W3C//DTD SVG 1.1//EN" "http://www.w3.org/Graphics/SVG/1.1/DTD/svg11.dtd">
<svg  version="1.1" xmlns="http://www.w3.org/2000/svg" xmlns:xlink="http://www.w3.org/1999/xlink" x="0px" y="0px" width="512px"
	 height="512px" viewBox="0 0 512 512" enable-background="new 0 0 512 512" xml:space="preserve"><g id="e6c6b53d3c8160b22dad35a0f70d3b76"><path display="inline" d="M256,0.5C114.893,0.5,0.5,114.893,0.5,256S114.893,511.5,256,511.5S511.5,397.107,511.5,256
		S397.107,0.5,256,0.5z M158.058,175.092l85.167-63.875c0.087-0.064,0.183-0.1,0.27-0.162c0.94-0.684,1.923-1.318,2.984-1.849
		c0.083-0.042,0.173-0.064,0.256-0.106c0.256-0.125,0.52-0.21,0.782-0.325c0.904-0.393,1.824-0.721,2.761-0.983
		c0.364-0.102,0.724-0.202,1.092-0.283c1.1-0.245,2.208-0.42,3.323-0.489c0.095-0.006,0.191-0.029,0.287-0.033
		c1.208-0.058,2.412,0.021,3.61,0.167c0.339,0.042,0.672,0.104,1.008,0.162c0.94,0.16,1.863,0.385,2.778,0.672
		c0.287,0.089,0.574,0.158,0.853,0.26c1.123,0.405,2.217,0.902,3.269,1.499c0.267,0.15,0.512,0.335,0.77,0.497
		c0.507,0.316,1.027,0.611,1.51,0.973l85.166,63.875c9.407,7.055,11.315,20.401,4.259,29.808
		c-7.053,9.405-20.397,11.322-29.809,4.258l-51.1-38.325v106.458c0,11.76-9.531,21.291-21.292,21.291
		c-11.758,0-21.292-9.531-21.292-21.291V170.833l-51.1,38.325c-3.83,2.872-8.313,4.261-12.758,4.261
		c-6.475,0-12.867-2.942-17.05-8.519C146.745,195.493,148.652,182.146,158.058,175.092z M256,398.654
		c-122.35,0-142.654-1.589-142.654-57.487c0-8.23,6.672-14.904,14.904-14.904s14.904,6.674,14.904,14.904
		c0,19.578,0.582,19.79,6.154,21.815c13.642,4.957,46.634,5.863,106.691,5.863s93.051-0.906,106.691-5.863
		c5.572-2.025,6.154-2.237,6.154-21.815c0-8.23,6.675-14.904,14.904-14.904s14.904,6.674,14.904,14.904
		C398.654,397.065,378.353,398.654,256,398.654z"></path></g></svg>