<?xml version="1.0" encoding="iso-8859-1"?>
<!DOCTYPE svg PUBLIC "-//W3C//DTD SVG 1.1//EN" "http://www.w3.org/Graphics/SVG/1.1/DTD/svg11.dtd">
<svg  version="1.1" xmlns="http://www.w3.org/2000/svg" xmlns:xlink="http://www.w3.org/1999/xlink" x="0px" y="0px" width="512px"
	 height="512px" viewBox="0 0 512 512" enable-background="new 0 0 512 512" xml:space="preserve"><g id="e6c6b53d3c8160b22dad35a0f70d8451"><path display="inline" d="M195.768,321.801v0.516h49.865v22.447H164.75v-21.079l35.214-33.664
		c7.086-6.803,12.064-12.5,14.954-17.096c2.886-4.599,4.325-9.443,4.325-14.521c0-11.315-6.08-16.966-18.248-16.966
		c-10.567,0-20.68,4.196-30.332,12.596v-23.82c10.683-6.916,22.734-10.371,36.154-10.371c12.571,0,22.377,3.156,29.434,9.473
		c7.057,6.308,10.58,14.829,10.58,25.575c0,14.335-8.596,29.155-25.787,44.463L195.768,321.801z M319.147,280.938v-0.437
		c16.28-4.055,24.419-14.105,24.419-30.153c0-9.024-3.498-16.368-10.496-22.023c-6.995-5.652-16.775-8.483-29.347-8.483
		c-11.482,0-21.537,2.175-30.158,6.508v22.111c7.769-5.314,15.766-7.968,23.991-7.968c12.275,0,18.422,4.999,18.422,14.996
		c0,10.621-7.997,15.932-23.99,15.932h-10.201v20.738h11.054c8.338,0,14.896,1.484,19.665,4.458
		c4.771,2.965,7.153,7.198,7.153,12.676c0,5.31-1.926,9.452-5.785,12.425c-3.851,2.974-9.236,4.454-16.147,4.454
		c-10.97,0-20.56-2.994-28.789-8.995v23.566c7.938,4.109,18.252,6.167,30.935,6.167c14.792,0,26.387-3.343,34.786-10.03
		c8.393-6.679,12.593-15.761,12.593-27.246c0-7.594-2.512-14.002-7.544-19.233C334.684,285.172,327.826,282.016,319.147,280.938z
		 M511.5,256c0,141.107-114.393,255.5-255.5,255.5S0.5,397.107,0.5,256S114.893,0.5,256,0.5S511.5,114.893,511.5,256z
		 M292.499,173.873h54.752v-33.455h-54.752V173.873z M164.75,173.873H219.5v-33.455H164.75V173.873z M383.75,155.625h-18.252v36.5
		h-91.246v-36.5h-36.504v36.5h-91.246v-36.5H128.25v18.248v219.001h255.5V173.873V155.625z"></path></g></svg>