<?xml version="1.0" encoding="iso-8859-1"?>
<!DOCTYPE svg PUBLIC "-//W3C//DTD SVG 1.1//EN" "http://www.w3.org/Graphics/SVG/1.1/DTD/svg11.dtd">
<svg  version="1.1" xmlns="http://www.w3.org/2000/svg" xmlns:xlink="http://www.w3.org/1999/xlink" x="0px" y="0px" width="512px"
	 height="512px" viewBox="0 0 512 512" enable-background="new 0 0 512 512" xml:space="preserve"><g id="e6c6b53d3c8160b22dad35a0f70d74ad"><path display="inline" d="M256,0.5C114.893,0.5,0.5,114.893,0.5,256S114.893,511.5,256,511.5S511.5,397.107,511.5,256
		S397.107,0.5,256,0.5z M217.596,374.635h-47.324c-8.783,0-19.666-6.163-24.178-13.694l-35.751-59.579
		c-4.512-7.531-4.512-19.853,0-27.388l24.644-41.079l-11.157-6.441l57.446-3.709l25.517,51.607l-11.531-6.653l-17.578,30.448
		c-4.387,7.602-0.794,13.831,7.984,13.831h31.929V374.635z M254.478,183.026l-14.289,24.751l-59.58-34.399l22.976-38.288
		c4.512-7.531,15.395-13.686,24.178-13.686h69.394c8.782,0,19.665,6.154,24.182,13.686l22.859,38.096l12.039-6.949l-25.513,51.607
		l-57.454-3.706l11.356-6.562l-14.181-24.552C266.056,175.42,258.869,175.42,254.478,183.026z M401.652,301.361l-35.751,59.579
		c-4.516,7.531-15.398,13.694-24.182,13.694h-47.324v15.96l-31.934-47.897l31.934-47.898v17.179h31.934
		c8.778,0,12.376-6.229,7.984-13.831l-17.645-30.553l60.277-34.798l24.706,41.178C406.169,281.509,406.169,293.83,401.652,301.361z"></path></g></svg>