<?xml version="1.0" encoding="iso-8859-1"?>
<!DOCTYPE svg PUBLIC "-//W3C//DTD SVG 1.1//EN" "http://www.w3.org/Graphics/SVG/1.1/DTD/svg11.dtd">
<svg  version="1.1" xmlns="http://www.w3.org/2000/svg" xmlns:xlink="http://www.w3.org/1999/xlink" x="0px" y="0px" width="512px"
	 height="512px" viewBox="0 0 512 512" enable-background="new 0 0 512 512" xml:space="preserve"><g id="e6c6b53d3c8160b22dad35a0f70d27c2"><path display="inline" d="M256,0.5C114.893,0.5,0.5,114.893,0.5,256S114.893,511.5,256,511.5S511.5,397.107,511.5,256
		S397.107,0.5,256,0.5z M153.8,200.642c7.055-9.407,20.4-11.315,29.809-4.258l51.1,38.325V128.25
		c0-11.758,9.533-21.292,21.292-21.292c11.761,0,21.292,9.533,21.292,21.292v106.458l51.1-38.325
		c9.411-7.053,22.756-5.146,29.809,4.258c7.057,9.407,5.148,22.753-4.259,29.809l-85.166,63.875
		c-0.101,0.074-0.217,0.125-0.316,0.199c-0.62,0.449-1.276,0.845-1.95,1.227c-0.296,0.167-0.578,0.366-0.878,0.521
		c-0.037,0.017-0.07,0.041-0.107,0.063c-0.857,0.428-1.734,0.777-2.624,1.081c-0.292,0.104-0.591,0.179-0.886,0.266
		c-0.703,0.204-1.41,0.379-2.121,0.512c-0.313,0.054-0.618,0.116-0.93,0.158c-0.967,0.137-1.936,0.229-2.907,0.229
		c-0.015,0-0.027,0.004-0.04,0.004c-0.002,0-0.004,0-0.008,0c-0.002,0-0.004,0-0.006,0c-0.012,0-0.023-0.004-0.035-0.004
		c-0.994,0-1.981-0.096-2.963-0.232c-0.289-0.042-0.574-0.096-0.863-0.15c-0.791-0.146-1.568-0.337-2.337-0.569
		c-0.218-0.066-0.437-0.116-0.651-0.188c-0.962-0.328-1.902-0.724-2.815-1.189c-0.177-0.091-0.345-0.195-0.518-0.291
		c-0.769-0.42-1.512-0.886-2.229-1.405c-0.118-0.083-0.25-0.142-0.366-0.229l-85.167-63.875
		C148.652,223.395,146.745,210.048,153.8,200.642z M256,398.654c-122.35,0-142.654-1.589-142.654-57.487
		c0-8.23,6.672-14.904,14.904-14.904s14.904,6.674,14.904,14.904c0,19.578,0.582,19.79,6.154,21.815
		c13.642,4.957,46.634,5.863,106.691,5.863s93.051-0.906,106.691-5.863c5.572-2.025,6.154-2.237,6.154-21.815
		c0-8.23,6.675-14.904,14.904-14.904s14.904,6.674,14.904,14.904C398.654,397.065,378.353,398.654,256,398.654z"></path></g></svg>