<?xml version="1.0" encoding="iso-8859-1"?>
<!DOCTYPE svg PUBLIC "-//W3C//DTD SVG 1.1//EN" "http://www.w3.org/Graphics/SVG/1.1/DTD/svg11.dtd">
<svg  version="1.1" xmlns="http://www.w3.org/2000/svg" xmlns:xlink="http://www.w3.org/1999/xlink" x="0px" y="0px" width="512px"
	 height="512px" viewBox="0 0 512 512" enable-background="new 0 0 512 512" xml:space="preserve"><g id="e6c6b53d3c8160b22dad35a0f70cb98f"><path display="inline" d="M114.543,300.297h-45.07v-88.594h45.07V300.297z M511.5,256c0,141.107-114.393,255.5-255.5,255.5
		S0.5,397.107,0.5,256S114.893,0.5,256,0.5S511.5,114.893,511.5,256z M82.29,170.301h4.786
		C118.419,108.771,182.344,66.504,256,66.504c73.656,0,137.581,42.267,168.924,103.797h4.786
		C398.026,106.343,332.08,62.246,256,62.246S113.974,106.343,82.29,170.301z M347.479,276.692v31.272c0,4.907,2.146,7.66,7.668,7.66
		c5.515,0,7.66-2.753,7.66-7.66v-31.272c3.983,0,7.668-2.146,7.668-7.659c0-5.522-3.685-7.669-7.668-7.669v-44.296
		c0-3.834-1.838-7.668-7.66-7.668c-5.83,0-7.668,3.834-7.668,7.668v44.296h-29.733v-57.329c0-3.826-1.838-7.66-7.669-7.66
		c-5.821,0-7.659,3.834-7.659,7.66v72.657H347.479z M271.179,234.234v-8.583c0-2.911,0-4.599-1.688-6.895
		c-2.146-2.911-4.6-2.911-7.968-2.911h-11.037c-3.369,0-5.822,0-7.968,2.911c-1.688,2.295-1.688,3.984-1.688,6.895v8.583
		c0,2.911,0,4.599,1.688,6.895c2.146,2.919,4.599,2.919,7.968,2.919h11.037c3.368,0,5.822,0,7.968-2.919
		C271.179,238.833,271.179,237.145,271.179,234.234z M269.49,270.871c-2.146-2.911-4.6-2.911-7.968-2.911h-11.037
		c-3.369,0-5.822,0-7.968,2.911c-1.688,2.295-1.688,3.983-1.688,6.895v8.583c0,2.911,0,4.6,1.688,6.903
		c2.146,2.911,4.599,2.911,7.968,2.911h11.037c3.368,0,5.822,0,7.968-2.911c1.688-2.304,1.688-3.992,1.688-6.903v-8.583
		C271.179,274.854,271.179,273.166,269.49,270.871z M211.271,256c4.749-4.292,5.98-8.733,5.98-14.871v-29.426
		c0-8.741-6.596-15.328-15.329-15.328h-52.73c-3.984,0-7.668,2.146-7.668,7.66c0,5.522,3.685,7.668,7.668,7.668h52.73v25.442
		c0,8.583-3.376,11.195-7.668,11.195h-30.042c-3.984,0-7.668,2.146-7.668,7.66c0,5.522,3.685,7.668,7.668,7.668h30.042
		c4.292,0,7.668,2.604,7.668,11.187v25.442h-52.73c-3.984,0-7.668,2.146-7.668,7.668c0,5.515,3.685,7.66,7.668,7.66h52.73
		c8.733,0,15.329-6.587,15.329-15.328v-29.426C217.251,264.741,216.02,260.292,211.271,256z M114.543,315.625
		c8.733,0,15.329-6.745,15.329-15.328v-88.594c0-8.433-6.903-15.328-15.329-15.328h-45.07c-8.425,0-15.328,6.895-15.328,15.328
		v88.594c0,8.583,6.595,15.328,15.328,15.328H114.543z M429.984,341.167h-4.786C393.955,402.983,329.868,445.496,256,445.496
		S118.045,402.983,86.802,341.167h-4.786c31.58,64.249,97.692,108.587,173.984,108.587
		C332.292,449.754,398.404,405.416,429.984,341.167z M457.855,265.656c0-5.364-0.466-9.041-4.758-13.024
		c-3.676-3.527-7.353-4.292-12.26-4.292h-28.203v-36.637h37.552c3.984,0,7.669-2.146,7.669-7.668c0-5.514-3.685-7.66-7.669-7.66
		h-52.88v67.293h45.22v36.629h-35.414c-2.453,0-5.972-2.146-8.117-3.061l-4.6-1.996c-1.688-0.766-3.068-1.223-4.907-1.223
		c-3.983,0-7.36,3.676-7.36,7.66c0,5.364,4.6,6.745,8.741,8.583l5.822,2.611c3.834,1.68,6.13,2.753,10.113,2.753h34.033
		c5.515,0,9.507-0.607,13.333-5.206c3.219-3.835,3.685-7.211,3.685-11.96V265.656z"></path></g></svg>