<?xml version="1.0" encoding="iso-8859-1"?>
<!DOCTYPE svg PUBLIC "-//W3C//DTD SVG 1.1//EN" "http://www.w3.org/Graphics/SVG/1.1/DTD/svg11.dtd">
<svg  version="1.1" xmlns="http://www.w3.org/2000/svg" xmlns:xlink="http://www.w3.org/1999/xlink" x="0px" y="0px" width="512px"
	 height="512px" viewBox="0 0 512 512" enable-background="new 0 0 512 512" xml:space="preserve"><g id="e6c6b53d3c8160b22dad35a0f70ce8af"><path display="inline" d="M348.905,164.774c9.312,9.61,9.07,24.947-0.536,34.258c-9.614,9.315-24.947,9.074-34.258-0.536
		c-9.315-9.606-9.069-24.943,0.541-34.254C324.258,154.931,339.595,155.168,348.905,164.774z M511.5,256
		c0,141.107-114.393,255.5-255.5,255.5S0.5,397.107,0.5,256S114.893,0.5,256,0.5S511.5,114.893,511.5,256z M405.042,135.681
		l-25.288-26.099l-90.124,11.432L106.958,298.03L208.11,402.418l182.672-177.017L405.042,135.681z"></path></g></svg>