<?xml version="1.0" encoding="iso-8859-1"?>
<!DOCTYPE svg PUBLIC "-//W3C//DTD SVG 1.1//EN" "http://www.w3.org/Graphics/SVG/1.1/DTD/svg11.dtd">
<svg  version="1.1" xmlns="http://www.w3.org/2000/svg" xmlns:xlink="http://www.w3.org/1999/xlink" x="0px" y="0px" width="512px"
	 height="512px" viewBox="0 0 512 512" enable-background="new 0 0 512 512" xml:space="preserve"><g id="e6c6b53d3c8160b22dad35a0f70d6b51"><path display="inline" d="M256,0.5C114.893,0.5,0.5,114.893,0.5,256S114.893,511.5,256,511.5S511.5,397.107,511.5,256
		S397.107,0.5,256,0.5z M192.682,255.131c0,2.782-0.274,5.485-0.682,8.155l102.296,52.147c9.502-8.637,22.09-13.956,35.95-13.956
		c29.542,0,53.504,23.97,53.504,53.517c0,29.555-23.962,53.508-53.504,53.508c-29.555,0-53.52-23.953-53.52-53.508
		c0-0.978,0.1-1.917,0.153-2.878l-105.926-54.003c-8.887,6.587-19.857,10.538-31.775,10.538c-29.551,0-53.512-23.966-53.512-53.521
		c0-29.546,23.961-53.5,53.512-53.5c13.236,0,25.325,4.832,34.669,12.783l103.127-52.58c-0.142-1.584-0.249-3.186-0.249-4.824
		c0-29.555,23.965-53.512,53.52-53.512c29.542,0,53.504,23.957,53.504,53.512c0,29.542-23.962,53.512-53.504,53.512
		c-13.178,0-25.209-4.791-34.532-12.671l-103.26,52.651C192.586,252.037,192.682,253.571,192.682,255.131z"></path></g></svg>