<?xml version="1.0" encoding="iso-8859-1"?>
<!DOCTYPE svg PUBLIC "-//W3C//DTD SVG 1.1//EN" "http://www.w3.org/Graphics/SVG/1.1/DTD/svg11.dtd">
<svg  version="1.1" xmlns="http://www.w3.org/2000/svg" xmlns:xlink="http://www.w3.org/1999/xlink" x="0px" y="0px" width="512px"
	 height="512px" viewBox="0 0 512 512" enable-background="new 0 0 512 512" xml:space="preserve"><g id="e6c6b53d3c8160b22dad35a0f70d3cb9"><path display="inline" d="M256,0.5C114.893,0.5,0.5,114.893,0.5,256S114.893,511.5,256,511.5S511.5,397.107,511.5,256
		S397.107,0.5,256,0.5z M265.307,389.169c0,0-4.994,4.861-9.477,4.861s-9.224-4.957-9.224-4.957
		c-71.148-66.649-139.647-107.22-139.647-173.881c0-50.019,37.26-86.942,74.521-86.942c62.1,0,74.521,37.26,74.521,37.26
		s12.422-37.26,74.504-37.26c37.277,0,74.538,37.418,74.538,86.942C405.042,281.966,336.592,322.391,265.307,389.169z"></path></g></svg>