<?xml version="1.0" encoding="iso-8859-1"?>
<!DOCTYPE svg PUBLIC "-//W3C//DTD SVG 1.1//EN" "http://www.w3.org/Graphics/SVG/1.1/DTD/svg11.dtd">
<svg  version="1.1" xmlns="http://www.w3.org/2000/svg" xmlns:xlink="http://www.w3.org/1999/xlink" x="0px" y="0px" width="512px"
	 height="512px" viewBox="0 0 512 512" enable-background="new 0 0 512 512" xml:space="preserve"><g id="e6c6b53d3c8160b22dad35a0f70d8e4e"><path display="inline" d="M256,0.5C114.893,0.5,0.5,114.893,0.5,256S114.893,511.5,256,511.5S511.5,397.107,511.5,256
		S397.107,0.5,256,0.5z M330.097,336.056c-4.237,5.651-12.247,6.791-17.886,2.558l-43.436-32.578v86.231
		c0,7.057-5.719,12.775-12.775,12.775c-7.057,0-12.775-5.719-12.775-12.775v-86.231l-43.436,32.578
		c-2.295,1.722-4.986,2.554-7.656,2.554c-3.884,0-7.718-1.764-10.23-5.111c-4.233-5.643-3.085-13.652,2.558-17.886l63.875-47.906
		c0.05-0.037,0.108-0.059,0.162-0.096c0.562-0.411,1.152-0.79,1.788-1.11c0.054-0.024,0.112-0.041,0.167-0.066
		c0.133-0.066,0.274-0.112,0.412-0.175c0.57-0.249,1.148-0.453,1.738-0.615c0.195-0.054,0.387-0.108,0.578-0.154
		c1.456-0.328,2.944-0.398,4.408-0.216c0.175,0.021,0.341,0.054,0.511,0.083c0.604,0.1,1.198,0.241,1.784,0.429
		c0.142,0.046,0.283,0.083,0.425,0.133c0.69,0.245,1.355,0.549,2,0.915c0.146,0.083,0.278,0.183,0.42,0.271
		c0.316,0.195,0.637,0.378,0.936,0.603l63.875,47.906C333.187,322.403,334.33,330.413,330.097,336.056z M349.617,303.199h-1.714
		c-2.063-2.99-4.6-5.677-7.589-7.918l-63.875-47.906c-0.732-0.549-1.48-1.043-2.313-1.555l-0.615-0.407l-0.69-0.396
		c-1.718-0.973-3.526-1.8-5.427-2.474c-0.407-0.146-0.815-0.274-1.035-0.341c-1.552-0.495-3.161-0.882-4.658-1.127l-0.923-0.158
		l-0.549-0.066c-1.401-0.179-2.815-0.266-4.226-0.266c-2.524,0-5.048,0.283-7.78,0.902c-0.412,0.096-0.823,0.208-1.26,0.329
		c-1.347,0.37-2.682,0.827-4.146,1.435c-0.108,0.046-0.703,0.274-0.703,0.274l-1.401,0.657c-1.131,0.574-2.225,1.206-3.311,1.921
		l-0.495,0.262l-65.222,48.917c-3.103,2.329-5.664,5.103-7.727,8.151h-1.11c-30.869,0-55.891-25.022-55.891-55.891
		c0-24.922,16.314-46.026,38.84-53.233c-1.031-4.944-1.58-10.063-1.58-15.312c0-41.157,33.364-72.038,74.521-72.038
		c25.695,0,48.355,12.039,61.75,31.102c7.395-3.992,15.985-6.259,25.192-6.259c27.438,0,49.678,19.757,49.678,47.195
		c0,4.683-0.694,9.199-1.904,13.499c28.818,1.971,51.587,25.958,51.587,55.279C405.042,278.381,380.224,303.199,349.617,303.199z"></path></g></svg>