<?xml version="1.0" encoding="iso-8859-1"?>
<!DOCTYPE svg PUBLIC "-//W3C//DTD SVG 1.1//EN" "http://www.w3.org/Graphics/SVG/1.1/DTD/svg11.dtd">
<svg  version="1.1" xmlns="http://www.w3.org/2000/svg" xmlns:xlink="http://www.w3.org/1999/xlink" x="0px" y="0px" width="512px"
	 height="512px" viewBox="0 0 512 512" enable-background="new 0 0 512 512" xml:space="preserve"><g id="e6c6b53d3c8160b22dad35a0f70d97b1"><path display="inline" d="M256,0.5C114.893,0.5,0.5,114.893,0.5,256S114.893,511.5,256,511.5S511.5,397.107,511.5,256
		S397.107,0.5,256,0.5z M327.56,354.603l-63.875,47.906c-0.05,0.038-0.107,0.059-0.162,0.096c-0.562,0.412-1.151,0.79-1.788,1.11
		c-0.054,0.025-0.112,0.042-0.166,0.066c-0.133,0.067-0.274,0.112-0.412,0.175c-0.569,0.25-1.147,0.453-1.738,0.615
		c-0.195,0.055-0.387,0.108-0.578,0.154c-1.455,0.328-2.944,0.399-4.408,0.216c-0.174-0.021-0.341-0.054-0.511-0.083
		c-0.603-0.1-1.198-0.241-1.784-0.428c-0.142-0.046-0.283-0.083-0.424-0.134c-0.69-0.245-1.355-0.549-2-0.914
		c-0.146-0.084-0.279-0.184-0.42-0.271c-0.316-0.195-0.636-0.379-0.936-0.604l-63.875-47.906
		c-5.647-4.233-6.791-12.242-2.557-17.886c4.237-5.651,12.247-6.791,17.886-2.558l43.436,32.578v-86.231
		c0-7.057,5.718-12.774,12.775-12.774s12.775,5.718,12.775,12.774v86.231l43.436-32.578c2.296-1.722,4.986-2.553,7.656-2.553
		c3.884,0,7.718,1.763,10.229,5.11C334.351,342.36,333.203,350.369,327.56,354.603z M349.617,303.199l-59.529,0.075v-28.623
		c0-18.785-15.283-34.067-34.067-34.067c-18.784,0-34.067,15.282-34.067,34.067v28.706l-59.105,0.075
		c-30.869,0-55.891-25.022-55.891-55.891c0-24.922,16.314-46.026,38.84-53.233c-1.031-4.944-1.58-10.063-1.58-15.312
		c0-41.157,33.364-72.038,74.521-72.038c25.695,0,48.355,12.039,61.75,31.102c7.395-3.992,15.985-6.259,25.192-6.259
		c27.438,0,49.678,19.757,49.678,47.195c0,4.683-0.694,9.199-1.904,13.499c28.818,1.971,51.587,25.958,51.587,55.279
		C405.042,278.381,380.224,303.199,349.617,303.199z"></path></g></svg>