<?xml version="1.0" encoding="iso-8859-1"?>
<!DOCTYPE svg PUBLIC "-//W3C//DTD SVG 1.1//EN" "http://www.w3.org/Graphics/SVG/1.1/DTD/svg11.dtd">
<svg  version="1.1" xmlns="http://www.w3.org/2000/svg" xmlns:xlink="http://www.w3.org/1999/xlink" x="0px" y="0px" width="512px"
	 height="512px" viewBox="0 0 512 512" enable-background="new 0 0 512 512" xml:space="preserve"><g id="e6c6b53d3c8160b22dad35a0f70cc97a"><path display="inline" d="M256,0.5C114.893,0.5,0.5,114.893,0.5,256S114.893,511.5,256,511.5S511.5,397.107,511.5,256
		S397.107,0.5,256,0.5z M401.706,368.072l-0.05,0.021c0.025,0.025-26.136,25.854-26.136,25.854
		c-12.019,12.468-81.886,36.192-190.195-74.629C82.519,214.157,106.501,149.92,117.33,136.43l26.128-26.124
		c4.438-4.387,11.594-4.512,16.081-0.034c0.025,0.034,58.149,57.954,58.149,57.954v0.079c4.258,4.271,4.695,11.402,0,16.11v0.05
		c0,0.021-26.103,26.003-26.103,26.003c-10.575,10.579-0.329,25.608,11.257,39.926c16.518,20.443,35.585,38.537,52.103,52.002
		c25.009,20.36,38.038,29.343,48.164,19.246l25.945-26.078c4.441-4.383,11.599-4.487,16.073-0.025
		c0.024,0.025,56.53,56.319,56.53,56.319v0.079C405.928,356.233,406.389,363.365,401.706,368.072z"></path></g></svg>