<?xml version="1.0" encoding="iso-8859-1"?>
<!DOCTYPE svg PUBLIC "-//W3C//DTD SVG 1.1//EN" "http://www.w3.org/Graphics/SVG/1.1/DTD/svg11.dtd">
<svg  version="1.1" xmlns="http://www.w3.org/2000/svg" xmlns:xlink="http://www.w3.org/1999/xlink" x="0px" y="0px" width="512px"
	 height="512px" viewBox="0 0 512 512" enable-background="new 0 0 512 512" xml:space="preserve"><g id="e6c6b53d3c8160b22dad35a0f70d2ea2"><path display="inline" d="M141.59,322.424l47.981,47.99l-41.64,14.634l-20.976-20.98L141.59,322.424z M511.5,256
		c0,141.107-114.393,255.5-255.5,255.5S0.5,397.107,0.5,256S114.893,0.5,256,0.5S511.5,114.893,511.5,256z M360.192,222.149
		l-70.338-70.341L137.444,304.21l-30.486,86.764l14.072,14.068l86.759-30.486L360.192,222.149z M395.369,140.085l-23.45-23.45
		c-12.896-12.9-34-12.9-46.899,0l-11.719,11.719l-0.005,0.004l70.346,70.346l0.005-0.004l11.719-11.719
		C408.269,174.081,408.269,152.981,395.369,140.085z"></path></g></svg>