<?xml version="1.0" encoding="iso-8859-1"?>
<!DOCTYPE svg PUBLIC "-//W3C//DTD SVG 1.1//EN" "http://www.w3.org/Graphics/SVG/1.1/DTD/svg11.dtd">
<svg  version="1.1" xmlns="http://www.w3.org/2000/svg" xmlns:xlink="http://www.w3.org/1999/xlink" x="0px" y="0px" width="512px"
	 height="512px" viewBox="0 0 512 512" enable-background="new 0 0 512 512" xml:space="preserve"><g id="e6c6b53d3c8160b22dad35a0f70cd718"><path display="inline" d="M279.658,337.619c0,13.066-10.592,23.658-23.658,23.658c-13.066,0-23.658-10.592-23.658-23.658
		c0-8.754,4.766-16.372,11.831-20.464v-38.679h23.654v38.679C274.893,321.247,279.658,328.865,279.658,337.619z M511.5,256
		c0,141.107-114.393,255.5-255.5,255.5S0.5,397.107,0.5,256S114.893,0.5,256,0.5S511.5,114.893,511.5,256z M177.932,218.149h7.094
		h17.745h7.099v-7.099v-21.503c0-26.922,20.693-48.821,46.13-48.821s46.131,21.899,46.131,48.821v21.503v7.099h7.099h17.744h7.095
		v-7.099v-21.503c0-44.234-35.02-80.222-78.068-80.222c-43.049,0-78.068,35.988-78.068,80.222v21.503V218.149z M362.458,237.075
		h-11.826h-23.658H196.857h-35.489h-11.827v165.601h11.827h35.489h130.116h23.658h11.826V237.075z"></path></g></svg>