<?xml version="1.0" encoding="iso-8859-1"?>
<!DOCTYPE svg PUBLIC "-//W3C//DTD SVG 1.1//EN" "http://www.w3.org/Graphics/SVG/1.1/DTD/svg11.dtd">
<svg  version="1.1" xmlns="http://www.w3.org/2000/svg" xmlns:xlink="http://www.w3.org/1999/xlink" x="0px" y="0px" width="512px"
	 height="512px" viewBox="0 0 512 512" enable-background="new 0 0 512 512" xml:space="preserve"><g id="e6c6b53d3c8160b22dad35a0f70c6752"><path display="inline" d="M256,0.5C114.893,0.5,0.5,114.893,0.5,256S114.893,511.5,256,511.5S511.5,397.107,511.5,256
		S397.107,0.5,256,0.5z M356.562,405.07l-71.893-71.896c-17.412,9.469-37.011,14.514-57.388,14.514
		c-32.154,0-62.382-12.521-85.121-35.256c-46.933-46.938-46.933-123.309,0-170.242c22.735-22.735,52.967-35.26,85.121-35.26
		c32.153,0,62.386,12.525,85.121,35.26c38.516,38.512,45.398,96.839,20.705,142.463l71.935,71.938L356.562,405.07z M287.601,166.991
		c33.26,33.26,33.26,87.379,0,120.635c-16.11,16.114-37.531,24.988-60.319,24.988c-22.785,0-44.209-8.874-60.319-24.984
		c-33.26-33.26-33.26-87.379,0-120.639c16.11-16.11,37.535-24.984,60.319-24.984C250.07,142.006,271.49,150.881,287.601,166.991z"></path></g></svg>