<?xml version="1.0" encoding="iso-8859-1"?>
<!DOCTYPE svg PUBLIC "-//W3C//DTD SVG 1.1//EN" "http://www.w3.org/Graphics/SVG/1.1/DTD/svg11.dtd">
<svg  version="1.1" xmlns="http://www.w3.org/2000/svg" xmlns:xlink="http://www.w3.org/1999/xlink" x="0px" y="0px" width="512px"
	 height="512px" viewBox="0 0 512 512" enable-background="new 0 0 512 512" xml:space="preserve"><g id="e6c6b53d3c8160b22dad35a0f70d00c6"><path display="inline" d="M256,0.5C114.893,0.5,0.5,114.893,0.5,256S114.893,511.5,256,511.5S511.5,397.107,511.5,256
		S397.107,0.5,256,0.5z M265.036,353.534c-18.227,24.178-44.816,32.919-71.78,32.877c13.993-11.557,22.909-16.06,28.257-35.676
		c-65.68-11.59-114.555-55.512-114.555-107.959c0-61.289,66.728-117.188,149.045-117.188c82.31,0,149.038,55.899,149.038,117.188
		C405.042,301.807,343.138,350.049,265.036,353.534z"></path></g></svg>