<?xml version="1.0" encoding="iso-8859-1"?>
<!DOCTYPE svg PUBLIC "-//W3C//DTD SVG 1.1//EN" "http://www.w3.org/Graphics/SVG/1.1/DTD/svg11.dtd">
<svg  version="1.1" xmlns="http://www.w3.org/2000/svg" xmlns:xlink="http://www.w3.org/1999/xlink" x="0px" y="0px" width="512px"
	 height="512px" viewBox="0 0 512 512" enable-background="new 0 0 512 512" xml:space="preserve"><g id="e6c6b53d3c8160b22dad35a0f70d1a67"><path display="inline" d="M203.245,192.981h153.283L337.1,255.144H212.311L203.245,192.981z M511.5,256
		c0,141.107-114.393,255.5-255.5,255.5S0.5,397.107,0.5,256S114.893,0.5,256,0.5S511.5,114.893,511.5,256z M229.477,380.024
		c0-11.761-9.532-21.292-21.288-21.292c-11.76,0-21.296,9.531-21.296,21.292c0,11.76,9.536,21.291,21.296,21.291
		C219.945,401.315,229.477,391.784,229.477,380.024z M357.227,380.024c0-11.753-9.531-21.292-21.291-21.292
		c-11.757,0-21.292,9.539-21.292,21.292c0,11.76,9.535,21.291,21.292,21.291C347.695,401.315,357.227,391.784,357.227,380.024z
		 M391.115,169.137c-3.082-3.734-7.894-5.922-13-5.922H198.899l-5.776-39.623c-1.077-7.394-7.98-12.908-16.139-12.908h-43.099
		c-8.991,0-16.281,6.653-16.281,14.879c0,8.217,7.29,14.879,16.281,14.879h28.844l26.847,184.089
		c1.082,7.395,7.98,12.908,16.144,12.908h129.297c8.99,0,16.276-6.662,16.276-14.879c0-8.218-7.286-14.888-16.276-14.888H219.971
		l-3.319-22.756H349.38c7.273,0,13.661-4.407,15.657-10.795l28.735-91.937C395.169,177.695,394.188,172.863,391.115,169.137z"></path></g></svg>