<?xml version="1.0" encoding="iso-8859-1"?>
<!DOCTYPE svg PUBLIC "-//W3C//DTD SVG 1.1//EN" "http://www.w3.org/Graphics/SVG/1.1/DTD/svg11.dtd">
<svg  version="1.1" xmlns="http://www.w3.org/2000/svg" xmlns:xlink="http://www.w3.org/1999/xlink" x="0px" y="0px" width="512px"
	 height="512px" viewBox="0 0 512 512" enable-background="new 0 0 512 512" xml:space="preserve"><g id="e6c6b53d3c8160b22dad35a0f70d6357"><path display="inline" d="M256,0.5C114.893,0.5,0.5,114.893,0.5,256S114.893,511.5,256,511.5S511.5,397.107,511.5,256
		S397.107,0.5,256,0.5z M393.627,275.528c0,0-15.396,28.195-43.225,37.211c-19.636,6.366-3.825-22.872-3.825-22.872
		s16.854-35.427,2.865-55.862c-19.208-28.062-70.94-43.594-70.94-43.594v156.797c0,0,2.324,79.124-86.306,79.124
		c-69.027,0-63.858-51.354-63.858-51.354s6.184-34.149,33.493-46.684c30.12-13.831,81.636-6.175,81.636-6.175V95.439
		c0,0-0.117-8.733,12.525-9.656c12.338-0.882,15.503,3.381,15.503,3.381s8.084,5.028,12.38,11.294
		c5.136,7.51,6.641,16.484,6.641,16.484s74.172,34.72,106.683,78.276C423.435,230.367,393.627,275.528,393.627,275.528z"></path></g></svg>