<?xml version="1.0" encoding="iso-8859-1"?>
<!DOCTYPE svg PUBLIC "-//W3C//DTD SVG 1.1//EN" "http://www.w3.org/Graphics/SVG/1.1/DTD/svg11.dtd">
<svg  version="1.1" xmlns="http://www.w3.org/2000/svg" xmlns:xlink="http://www.w3.org/1999/xlink" x="0px" y="0px" width="512px"
	 height="512px" viewBox="0 0 512 512" enable-background="new 0 0 512 512" xml:space="preserve"><g id="e6c6b53d3c8160b22dad35a0f70c78fb"><path display="inline" d="M312.818,198.429c0,31.139-25.434,56.39-56.781,56.39c-31.364,0-56.776-25.25-56.776-56.39
		c0-31.126,25.413-56.39,56.776-56.39C287.385,142.04,312.818,167.303,312.818,198.429z M511.5,256
		c0,141.107-114.393,255.5-255.5,255.5S0.5,397.107,0.5,256S114.893,0.5,256,0.5S511.5,114.893,511.5,256z M354.262,254.832
		c9.719-16.605,15.295-35.822,15.295-56.39c0-62.278-50.817-112.775-113.557-112.775c-62.71,0-113.557,50.497-113.557,112.775
		c0,20.568,5.672,39.785,15.337,56.39h-0.137L256,426.333l98.42-171.501H354.262z"></path></g></svg>