<?xml version="1.0" encoding="iso-8859-1"?>
<!DOCTYPE svg PUBLIC "-//W3C//DTD SVG 1.1//EN" "http://www.w3.org/Graphics/SVG/1.1/DTD/svg11.dtd">
<svg  version="1.1" xmlns="http://www.w3.org/2000/svg" xmlns:xlink="http://www.w3.org/1999/xlink" x="0px" y="0px" width="512px"
	 height="512px" viewBox="0 0 512 512" enable-background="new 0 0 512 512" xml:space="preserve"><g id="e6c6b53d3c8160b22dad35a0f70d4c76"><path display="inline" d="M330.525,256c0,41.099-33.427,74.525-74.521,74.525c-41.103,0-74.521-33.427-74.521-74.525
		s33.418-74.525,74.521-74.525C297.099,181.475,330.525,214.901,330.525,256z M511.5,256c0,141.107-114.393,255.5-255.5,255.5
		S0.5,397.107,0.5,256S114.893,0.5,256,0.5S511.5,114.893,511.5,256z M405.042,241.096c0-8.226-8.896-14.904-19.865-14.904h-13.694
		c-2.841-11.045-7.24-21.45-12.925-31.015l9.656-9.647c7.764-7.76,9.336-18.776,3.514-24.598l-21.075-21.079
		c-5.822-5.818-16.842-4.246-24.61,3.518l-9.756,9.772c-9.406-5.531-19.645-9.831-30.474-12.625v-13.69
		c0-10.979-6.67-19.874-14.904-19.874H241.1c-8.23,0-14.904,8.895-14.904,19.874v13.69c-10.837,2.794-21.063,7.09-30.47,12.621
		l-9.768-9.768c-7.772-7.764-18.776-9.336-24.598-3.518l-21.076,21.079c-5.822,5.822-4.25,16.838,3.501,24.598l9.656,9.647
		c-5.685,9.561-10.084,19.969-12.925,31.015h-13.694c-10.97,0-19.865,6.678-19.865,14.904v29.809
		c0,8.233,8.895,14.904,19.865,14.904h13.694c2.794,10.841,7.09,21.071,12.621,30.478l-9.76,9.765
		c-7.777,7.76-9.349,18.775-3.526,24.598l21.075,21.075c5.822,5.822,16.838,4.25,24.61-3.51l9.652-9.66
		c9.561,5.688,19.969,10.084,31.006,12.929v13.689c0,10.979,6.674,19.874,14.904,19.874h29.808c8.234,0,14.904-8.896,14.904-19.874
		v-13.689c11.041-2.845,21.449-7.248,31.01-12.929l9.652,9.66c7.756,7.76,18.775,9.332,24.598,3.51l21.075-21.088
		c5.822-5.81,4.25-16.825-3.518-24.585l-9.769-9.765c5.53-9.406,9.839-19.637,12.621-30.478h13.694
		c10.97,0,19.865-6.671,19.865-14.904V241.096z"></path></g></svg>