<?xml version="1.0" standalone="no"?><!DOCTYPE svg PUBLIC "-//W3C//DTD SVG 1.1//EN" "http://www.w3.org/Graphics/SVG/1.1/DTD/svg11.dtd" ><svg xmlns="http://www.w3.org/2000/svg"><metadata>Pictonic fonts.</metadata><defs><font horiz-adv-x="512"><font-face font-family="pictonic" font-weight="400" font-stretch="normal" units-per-em="512" panose-1="2 0 5 9 0 0 0 0 0 0" ascent="409" descent="-103" bbox="0 -116.5 511.506 418.316" underline-thickness="0" underline-position="0" unicode-range="U+E001-E14C"></font-face><missing-glyph horiz-adv-x="0"></missing-glyph><glyph glyph-name="googledrive-02" unicode="&#xe001;"><g fill="currentColor" fill-opacity="1"><path d=" M243.186 214.657l-81.5449 -140.386l-83.1377 -143.116l-78.0029 142.661l162.494 279.721zM345.919 74.8018l-159.938 -0.46582l-82.6729 -143.181l324.209 0.0644531l83.9824 144.048zM499.011 96.5645l-163.047 277.804l-160.588 0.476562l79.5518 -139.975 l78.6201 -138.306h165.463zM345.919 74.8018l165.581 0.46582h-165.853z"></path></g></glyph><glyph glyph-name="dropbox" unicode="&#xe002;"><g fill="currentColor" fill-opacity="1"><path d=" M412.522 203.733l98.9775 82.4785l-150.81 96.3555l-103.677 -86.9404l-101.344 86.9404l-155.17 -101.074l106.858 -81.29l-106.858 -81.3018l106.32 -62.9756v0l48.8506 -28.9307l101.344 77.7588l101.312 -77.7588l49.5215 29.7158v0l103.652 62.1904z M257.329 291.122l146.371 -84.0928l-147.705 -97.8789l-146.787 92.4766zM362.708 12.6982l45.1396 27.082v-24.627l-152.199 -98.7217l-148.828 99.3945v23.2139l44.5127 -26.375l4.95508 -2.92578l4.57324 3.49707l96.1523 73.7793l96.1201 -73.7793l4.60742 -3.52051z"></path></g></glyph><glyph glyph-name="googledrive-01" unicode="&#xe003;"><g fill="currentColor" fill-opacity="1"><path d=" M335.977 374.366l-160.603 0.478516l-174.874 -301.027l78.0059 -142.662l349.025 0.0654297l83.9688 144.048zM161.643 74.2832l93.2979 160.598l90.9795 -160.078z"></path></g></glyph><glyph glyph-name="skydrive" unicode="&#xe004;"><g fill="currentColor" fill-opacity="1"><path d=" M105.004 31.6309c1.80957 -3.53613 2.81934 -6.90039 2.24316 -7.47656c-1.46875 -1.46973 -48.7051 -0.975586 -55.2441 0.583008c-18.0459 4.28809 -37.1768 20.2295 -46.1445 38.4678c-5.09277 10.3408 -5.3584 11.8613 -5.3584 30.1582 c0 17.4111 0.427734 20.2012 4.48047 28.8438c8.53809 18.2158 24.9014 31.3828 45.4277 36.5488c4.33301 1.09277 8.40723 2.83496 9.04883 3.86816c0.642578 1.04004 1.3584 6.69434 1.58691 12.5615c1.43164 36.4463 25.3457 68.5674 58.7363 78.8789 c18.0459 5.57129 40.7119 4.19922 60.3301 -3.64648c6.22852 -2.4873 5.52734 -3.02637 18.6875 14.2305c7.7793 10.208 23.5078 22.8945 36.3799 29.3594c13.8916 6.97559 28.3418 10.1934 45.6133 10.1494c48.292 -0.118164 89.9121 -30.3203 105.301 -76.4199 c4.91504 -14.7324 4.67188 -18.8506 -1.12988 -18.9766c-2.53125 -0.0517578 -9.7793 -1.44629 -16.1113 -3.09277l-11.5146 -3.00391l-10.5098 10.5029c-29.6191 29.626 -77.9629 36.0254 -119.065 15.7725c-16.415 -8.09766 -29.6113 -19.7148 -39.5762 -34.8525 c-7.09961 -10.7979 -16.1641 -30.9326 -16.1641 -35.9297c0 -3.5498 -2.87012 -5.32129 -15.1377 -9.34375c-37.9736 -12.4512 -60.1377 -41.2148 -60.1162 -78.0156c0 -13.3936 3.4541 -29.7793 8.2373 -39.167zM473.561 109.357l-9.52734 3.41699l-1.06348 13.0264 c-3.89062 47.627 -52.1162 76.1318 -100.496 59.3848l-10.001 -3.45312l-11.1602 11.7129c-20.2812 21.3076 -34.793 27.6191 -63.8643 27.7725c-20.4746 0.111328 -29.0215 -1.80762 -45.9453 -10.2812c-16.1709 -8.10352 -31.3018 -27.9062 -39.4717 -51.666 c-1.80078 -5.22559 -3.27734 -11.1299 -3.27734 -13.1064c0 -6.31836 -3.80859 -9.04199 -16.1787 -11.5811c-24.8516 -5.10742 -43.7451 -18.9756 -50.875 -37.3613c-2.91602 -7.49805 -3.75684 -13.0859 -3.74219 -24.7471 c0.0585938 -36.4756 17.2852 -61.0537 48.2109 -68.7803c6.42871 -1.60254 43.6279 -2.02246 160.642 -1.79297l152.279 0.294922l6.85645 3.66113c14.5684 7.80078 23.7725 23.5146 25.2861 43.1904c2.32422 30.0928 -10.4668 50.5596 -37.6719 60.3096z"></path></g></glyph><glyph glyph-name="kub-avatar-01" unicode="&#xe005;"><g fill="currentColor" fill-opacity="1"><path d=" M432.207 144.189v-193.827c0 -29.0742 -23.7881 -52.8623 -52.8623 -52.8623h-246.689c-29.0742 0 -52.8623 23.7881 -52.8623 52.8623v193.827c0 29.0732 23.7881 52.8613 52.8623 52.8613h246.688c29.0752 0.000976562 52.8633 -23.7871 52.8633 -52.8613z M220.759 232.293h70.4824c29.0742 0 52.8613 23.7881 52.8613 52.8623v70.4824c0 29.0742 -23.7871 52.8623 -52.8613 52.8623h-70.4824c-29.0742 0 -52.8613 -23.7881 -52.8613 -52.8623v-70.4814c-0.000976562 -29.0752 23.7871 -52.8633 52.8613 -52.8633z"></path></g></glyph><glyph glyph-name="kub-home" unicode="&#xe006;"><g fill="currentColor" fill-opacity="1"><path d=" M458.649 208.737h-405.301c-37.1514 0 -44.1953 19.4609 -15.6553 43.2461l61.0762 50.8975v85.9639c0 10.8105 8.84473 19.6543 19.6543 19.6543h39.3086c10.8096 0 19.6533 -8.84375 19.6533 -19.6543v-20.4473l26.7217 22.2676 c28.542 23.7803 75.249 23.7803 103.789 0l166.411 -138.683c28.54 -23.7842 21.4961 -43.2451 -15.6582 -43.2451zM59.4619 -43.5381c0 -32.4287 26.5332 -58.9619 58.9609 -58.9619h78.6152v157.23h117.923v-157.23h78.6152c32.4287 0 58.9609 26.5332 58.9609 58.9619 v216.191h-393.075v-216.191z"></path></g></glyph><glyph glyph-name="kub-avatar-02" unicode="&#xe007;"><g fill="currentColor" fill-opacity="1"><path d=" M511.5 103.809v-145.368c0 -21.8086 -17.8398 -39.6475 -39.6475 -39.6475h-185.017c-21.8076 0 -39.6475 17.8398 -39.6475 39.6475v145.368c0 21.8086 17.8398 39.6475 39.6475 39.6475h185.017c21.8076 0 39.6475 -17.8398 39.6475 -39.6475zM352.91 169.886 h52.8633c21.8076 0 39.6465 17.8398 39.6465 39.6475v52.8594c0 21.8086 -17.8398 39.6475 -39.6465 39.6475h-52.8633c-21.8027 0 -39.6436 -17.8398 -39.6436 -39.6475v-52.8594c0.000976562 -21.8076 17.8408 -39.6475 39.6436 -39.6475zM286.836 173.265h6.95703 c-3.56836 5.79492 -6.2959 12.1533 -8.05957 18.8926c-3.43555 0.777344 -6.98633 1.22461 -10.6465 1.22461h-226.13c-26.6523 0 -48.457 -21.8047 -48.457 -48.457v-177.677c0 -26.6484 21.8047 -48.4551 48.457 -48.4551h180.93 c-7.85938 11.2529 -12.5068 24.9092 -12.5068 39.6475v145.368c0 38.2949 31.1582 69.4561 69.4561 69.4561zM129.718 225.685h64.6113c26.6494 0 48.4551 21.8066 48.4551 48.457v64.6094c0 26.6523 -21.8057 48.457 -48.4551 48.457h-64.6113 c-26.6494 0 -48.4551 -21.8047 -48.4551 -48.457v-64.6094c0 -26.6514 21.8057 -48.457 48.4551 -48.457z"></path></g></glyph><glyph glyph-name="kub-info" unicode="&#xe008;"><g fill="currentColor" fill-opacity="1"><path d=" M383.75 408.5h-255.5c-70.4414 0 -127.75 -57.3086 -127.75 -127.75v-255.5c0 -70.4414 57.3086 -127.75 127.75 -127.75h255.5c70.4414 0 127.75 57.3086 127.75 127.75v255.5c0 70.4414 -57.3086 127.75 -127.75 127.75zM447.625 25.25 c0 -35.1309 -28.7441 -63.875 -63.875 -63.875h-255.5c-35.1309 0 -63.875 28.7441 -63.875 63.875v255.5c0 35.1309 28.7441 63.875 63.875 63.875h255.5c35.1309 0 63.875 -28.7441 63.875 -63.875v-255.5zM192.125 195.583h106.458v-170.333h-85.167v127.75h-21.292z M266.646 280.75h31.9375v-63.875h-31.9375h-10.6465h-42.583v63.875h42.583h10.6465z"></path></g></glyph><glyph glyph-name="kub-locked" unicode="&#xe009;"><g fill="currentColor" fill-opacity="1"><path d=" M426.013 230.186c-4.30176 90.6416 -57.3428 178.314 -170.013 178.314c-112.672 0 -165.711 -87.6729 -170.013 -178.314c-18.0967 -10.3906 -30.3799 -29.8799 -30.3799 -52.1367v-220.432c0 -33.0645 27.0527 -60.1172 60.1172 -60.1172h280.55 c33.0635 0 60.1172 27.0527 60.1172 60.1172v220.432c0.000976562 22.2568 -12.2812 41.7461 -30.3789 52.1367zM256 348.382c85.2764 0 104.74 -71.7031 109.041 -110.216h-218.081c4.29785 38.5137 23.7617 110.216 109.04 110.216zM306.098 7.71582 c0 -11.0205 -9.01758 -20.0391 -20.0391 -20.0391h-60.1162c-11.0225 0 -20.04 9.01855 -20.04 20.0391v60.1172c0 11.0205 9.01758 20.04 20.04 20.04v40.0781c0 11.0205 9.01758 20.0391 20.0391 20.0391h20.0381c11.0215 0 20.0391 -9.01855 20.0391 -20.0391v-40.0781 c11.0215 0 20.0391 -9.01953 20.0391 -20.04v-60.1172z"></path></g></glyph><glyph glyph-name="kub-time" unicode="&#xe00a;"><g fill="currentColor" fill-opacity="1"><path d=" M383.75 408.5h-255.5c-70.4414 0 -127.75 -57.3086 -127.75 -127.75v-255.5c0 -70.4414 57.3086 -127.75 127.75 -127.75h255.5c70.4414 0 127.75 57.3086 127.75 127.75v255.5c0 70.4414 -57.3086 127.75 -127.75 127.75zM383.75 -38.625h-255.5 c-35.1309 0 -63.875 28.7441 -63.875 63.875v106.458h42.583v42.583h-42.583v106.459c0 35.1309 28.7441 63.875 63.875 63.875h106.458v-42.583h42.583v42.583h106.459c35.1309 0 63.875 -28.7441 63.875 -63.875v-106.458h-42.583v-42.583h42.583v-106.459 c0 -35.1309 -28.7441 -63.875 -63.875 -63.875zM256 144.483h63.875v-42.583h-63.875h-42.583v42.583v106.459h42.583v-106.459z"></path></g></glyph><glyph glyph-name="kub-rate-01" unicode="&#xe00b;"><g fill="currentColor" fill-opacity="1"><path d=" M437.439 84.8018c-2.57129 -3.2793 -5.45801 -12.2129 -5.29199 -16.377l10.7861 -63.5215c4.75781 -28.0566 -1.53906 -54.0664 -17.7285 -73.2354c-14.7803 -17.501 -36.707 -27.5371 -60.1504 -27.5371c-15.1074 0 -30.3232 4.01074 -45.209 11.9189 l-55.7744 29.6318c-0.961914 0.323242 -3.89062 1.01758 -8.07031 1.01758s-7.1084 -0.693359 -8.07031 -1.01758l-55.7705 -29.627c-14.8887 -7.91309 -30.1006 -11.9238 -45.2119 -11.9238c-23.4482 0 -45.3701 10.0361 -60.1514 27.5371 c-16.1895 19.1689 -22.4863 45.1758 -17.7246 73.2441l10.7822 63.5137c0.162109 4.16797 -2.7207 13.0977 -5.29199 16.377l-45.3486 44.6826c-25.4102 25.0312 -34.7041 57.9434 -24.8623 88.041c9.8418 30.0918 36.7852 51.1504 72.0742 56.335l62.2217 9.13867 c3.85254 1.12402 11.1016 6.42383 13.3369 9.75391l28.1426 57.625c15.7432 32.2441 44.1055 51.4912 75.873 51.4912s60.1299 -19.2471 75.873 -51.4912l28.1426 -57.625c2.23535 -3.33008 9.48438 -8.62988 13.3369 -9.75391l62.2256 -9.14062 c35.2881 -5.18457 62.2314 -26.2432 72.0742 -56.335c9.84082 -30.0977 0.546875 -63.0098 -24.8623 -88.0459z"></path></g></glyph><glyph glyph-name="kub-rate-02" unicode="&#xe00c;"><g fill="currentColor" fill-opacity="1"><path d=" M482.788 129.484c25.4102 25.0303 34.7041 57.9424 24.8623 88.0371c-9.8418 30.0938 -36.7812 51.1543 -72.0732 56.3389l-62.2246 9.14258c-3.85352 1.12207 -11.1025 6.42188 -13.3379 9.75l-28.1416 57.627 c-15.7383 32.2412 -44.1055 51.4902 -75.873 51.4902s-60.1318 -19.249 -75.875 -51.4941l-28.1377 -57.623c-2.23828 -3.32812 -9.4873 -8.62793 -13.3389 -9.75l-62.2275 -9.14258c-35.2881 -5.18457 -62.2314 -26.2451 -72.0732 -56.3389 c-9.84082 -30.0967 -0.544922 -63.0088 24.8643 -88.0439l45.3545 -44.6758c2.56641 -3.28516 5.4502 -12.2109 5.28418 -16.373l-10.7793 -63.5225c-4.76172 -28.0557 1.53125 -54.0664 17.7227 -73.2383c14.7812 -17.502 36.707 -27.5371 60.1533 -27.5371 c15.1113 0 30.3262 4.00977 45.2158 11.9219l55.7695 29.6328c0.961914 0.318359 3.88867 1.0127 8.06836 1.0127s7.11328 -0.693359 8.07129 -1.0166l55.7744 -29.6328c14.8848 -7.9082 30.1006 -11.918 45.208 -11.918c23.4434 0 45.3701 10.0352 60.1504 27.5371 c16.1895 19.168 22.4863 45.1797 17.7285 73.2344l-10.7861 63.5205c-0.166016 4.16406 2.7207 13.0986 5.29199 16.3789zM392.422 129.873c-16.6387 -16.3926 -27.0566 -48.6465 -23.1484 -71.6758l10.8564 -63.9492c2.82422 -16.6465 -3.54199 -26.418 -15.0752 -26.418 c-4.4209 0 -9.60352 1.43555 -15.3232 4.47656l-56.2275 29.8711c-10.3135 5.47949 -23.9092 8.22168 -37.5029 8.22168s-27.1875 -2.74219 -37.502 -8.22168l-56.2275 -29.8711c-5.71777 -3.04102 -10.9014 -4.47656 -15.3242 -4.47656 c-11.5352 0 -17.8994 9.77051 -15.0732 26.418l10.8525 63.9492c3.90918 23.0283 -6.50684 55.2832 -23.1455 71.6758l-45.6641 44.9873c-16.6377 16.3916 -11.3438 32.582 11.7637 35.9766l62.6934 9.21094c23.1084 3.39551 50.4004 23.3438 60.6484 44.333 l28.3457 58.0479c5.12402 10.4951 11.877 15.7412 18.6328 15.7412s13.5107 -5.24609 18.6328 -15.7412l28.3467 -58.0479c10.2471 -20.9893 37.5391 -40.9375 60.6475 -44.333l62.6924 -9.21094c23.1074 -3.39453 28.3994 -19.585 11.7617 -35.9766z"></path></g></glyph><glyph glyph-name="kub-link" unicode="&#xe00d;"><g fill="currentColor" fill-opacity="1"><path d=" M501.28 367.62v-163.521c0 -22.4834 -13.0068 -27.874 -28.9072 -11.9727l-64.8301 64.8271l-132.556 -132.558c-15.9014 -15.9014 -41.915 -15.9014 -57.8154 0c-15.8965 15.8955 -15.8965 41.9131 0.00390625 57.8105l132.561 132.559l-64.8291 64.8271 c-15.9004 15.9014 -10.5107 28.9072 11.9727 28.9072h163.521c22.4834 0 40.8799 -18.3965 40.8799 -40.8799zM439.96 81.46h-20.4404c-11.2402 0 -20.4385 -9.19824 -20.4385 -20.4385v-40.8818c0 -33.7256 -27.5938 -61.3184 -61.3203 -61.3184h-204.399 c-33.7266 0 -61.3193 27.5938 -61.3193 61.3184v245.28c0 33.7266 27.5938 61.3203 61.3193 61.3203h40.8809c11.2412 0 20.4385 9.19727 20.4385 20.4395v20.4404c0 11.2422 -9.19727 20.4395 -20.4385 20.4395h-40.8809c-67.623 0 -122.641 -55.0156 -122.641 -122.64 v-245.28c0 -67.623 55.0176 -122.64 122.641 -122.64h204.399c67.624 0 122.642 55.0166 122.642 122.64v40.8818c-0.00195312 11.2402 -9.2002 20.4385 -20.4424 20.4385z"></path></g></glyph><glyph glyph-name="kub-remove" unicode="&#xe00e;"><g fill="currentColor" fill-opacity="1"><path d=" M488.486 69.3037c30.6846 -30.6885 30.6846 -80.9004 0 -111.591l-37.1992 -37.1992c-30.6855 -30.6846 -80.9062 -30.6846 -111.591 0l-83.6963 83.6963l-83.6963 -83.6963c-30.6846 -30.6846 -80.9053 -30.6846 -111.591 0l-37.1992 37.1992 c-30.6846 30.6895 -30.6846 80.9014 0 111.591l83.6953 83.6963l-83.6963 83.6963c-30.6846 30.6895 -30.6846 80.9004 0 111.591l37.1992 37.1992c30.6855 30.6846 80.9072 30.6846 111.591 0l83.6973 -83.6953l83.6963 83.6963c30.6846 30.6846 80.9053 30.6846 111.591 0 l37.1992 -37.1992c30.6846 -30.6904 30.6846 -80.9014 0 -111.591l-83.6963 -83.6973z"></path></g></glyph><glyph glyph-name="kub-approve" unicode="&#xe00f;"><g fill="currentColor" fill-opacity="1"><path d=" M492.799 214.534l-237.073 -237.069c-24.9346 -24.9385 -65.7471 -24.9385 -90.6816 0l-23.3193 23.3193c-1.64062 1.64062 -3.15723 3.35547 -4.58203 5.12695l-117.939 117.938c-24.9395 24.9395 -24.9355 65.7461 0 90.6865l23.3242 23.3145 c24.9346 24.9355 65.7412 24.9355 90.6816 -0.00390625l77.4482 -77.4473l168.141 168.137c24.9355 24.9385 65.7461 24.9385 90.6807 0l23.3203 -23.3203c24.9346 -24.9346 24.9346 -65.7422 0 -90.6807z"></path></g></glyph><glyph glyph-name="kub-warning" unicode="&#xe010;"><g fill="currentColor" fill-opacity="1"><path d=" M492.498 38.2988l-180.28 280.851c-30.915 48.1641 -81.5156 48.1641 -112.438 0l-180.281 -280.851c-30.915 -48.1602 -23.2881 -87.5703 16.9668 -87.5703h439.075c40.2461 0 47.8809 39.4102 16.958 87.5703zM279.249 13.4375 c-5.93066 -6.32422 -12.9746 -9.48047 -21.1338 -9.48047c-9.38184 0 -17.3584 3.15625 -23.9541 9.48047c-6.5957 6.31738 -9.89746 13.7314 -9.89746 22.2539c0 8.78613 3.22754 16.2744 9.67285 22.4551c6.44629 6.18359 14.4971 9.27246 24.1787 9.27246 c8.15918 0 15.2031 -3.16016 21.1338 -9.47656c5.92969 -6.32617 8.89062 -13.7402 8.89062 -22.252c0 -8.52051 -2.96094 -15.9346 -8.89062 -22.2529zM285.096 168.352c-2.02051 -30.9141 -3.03613 -52.6465 -3.03613 -65.2266 c0 -9.02734 -8.67871 -13.6602 -25.8574 -14.002c-17.1787 0.341797 -25.8584 4.97461 -25.8584 14.002c0 12.5801 -1.01465 34.3125 -3.03613 65.2266c-2.02832 30.9062 -3.04395 52.7559 -3.04395 65.5479c0 5.96289 3.17773 10.7119 9.52344 14.2256 c5.90527 3.27344 13.4238 4.96094 22.415 5.18555c8.99219 -0.224609 16.5098 -1.91211 22.416 -5.18555c6.3457 -3.51367 9.52148 -8.2627 9.52148 -14.2256c0 -12.792 -1.01465 -34.6416 -3.04395 -65.5479z"></path></g></glyph><glyph glyph-name="kub-search" unicode="&#xe011;"><g fill="currentColor" fill-opacity="1"><path d=" M499.362 -4.52148l-98.1484 98.1484c43.75 80.8389 31.5518 184.168 -36.6826 252.404c-40.2832 40.2842 -93.8398 62.4688 -150.807 62.4688s-110.523 -22.1846 -150.807 -62.4678c-83.1553 -83.1533 -83.1553 -218.457 0 -301.615 c40.2812 -40.2793 93.8398 -62.4619 150.807 -62.4619c36.1006 0 70.8154 8.93652 101.668 25.71l98.0791 -98.0791c16.1104 -16.1143 42.4775 -16.1143 58.5859 0l27.3096 27.3047c16.1094 16.1133 16.1094 42.4756 -0.00488281 58.5879zM106.858 88.3564 c-58.9258 58.9297 -58.9258 154.81 0 213.735c28.5459 28.5439 66.499 44.2666 106.866 44.2666c40.3682 0 78.3203 -15.7227 106.862 -44.2666c28.5469 -28.5439 44.2695 -66.4971 44.2695 -106.865c0 -40.3691 -15.7227 -78.3232 -44.2695 -106.866 c-28.542 -28.542 -66.4922 -44.2646 -106.862 -44.2646c-40.3691 0.000976562 -78.3223 15.7227 -106.866 44.2607zM238.663 102.816c0 -11.4414 -9.27539 -20.7148 -20.7139 -20.7148c-68.5303 0 -124.284 55.7539 -124.284 124.283 c0 11.4395 9.27441 20.7139 20.7139 20.7139s20.7139 -9.27441 20.7139 -20.7139c0 -45.6855 37.1699 -82.8545 82.8564 -82.8545c11.4385 0 20.7139 -9.27344 20.7139 -20.7139z"></path></g></glyph><glyph glyph-name="kub-trash" unicode="&#xe012;"><g fill="currentColor" fill-opacity="1"><path d=" M373.923 290.577h-235.846c-32.4287 0 -58.9619 -26.5332 -58.9619 -58.9619v-275.153c0 -32.4297 26.5332 -58.9619 58.9619 -58.9619h235.846c32.4287 0 58.9619 26.5322 58.9619 58.9619v275.153c0 32.4287 -26.5332 58.9619 -58.9619 58.9619z M177.385 -43.5381h-39.3076v275.153h39.3076v-275.153zM275.654 -43.5381h-39.3086v275.153h39.3086v-275.153zM373.923 -43.5381h-39.3076v275.153h39.3076v-275.153zM452.538 349.539v-19.6543c0 -10.8096 -8.84375 -19.6533 -19.6533 -19.6533h-353.77 c-10.8105 0 -19.6533 8.84375 -19.6533 19.6533v19.6543c0 10.8096 8.84375 19.6543 19.6533 19.6543h78.6162c0 21.6191 17.6875 39.3076 39.3076 39.3076h117.923c21.6191 0 39.3076 -17.6885 39.3076 -39.3076h78.6152 c10.8096 -0.000976562 19.6533 -8.8457 19.6533 -19.6543z"></path></g></glyph><glyph glyph-name="kub-mobile" unicode="&#xe013;"><g fill="currentColor" fill-opacity="1"><path d=" M361.725 408.5h-211.448c-29.0742 0 -52.8623 -23.7881 -52.8623 -52.8623v-405.275c0 -29.0742 23.7881 -52.8623 52.8623 -52.8623h211.447c29.0732 0 52.8613 23.7881 52.8613 52.8623v405.275c0.000976562 29.0742 -23.7871 52.8623 -52.8604 52.8623z M150.276 373.259h211.447c9.55078 0 17.6201 -8.06836 17.6201 -17.6211v-299.552h-246.688v299.552c0 9.55273 8.06836 17.6211 17.6211 17.6211zM229.569 -23.207c0 14.5996 11.834 26.4316 26.4307 26.4316c14.5986 0 26.4307 -11.832 26.4307 -26.4316 c0 -14.5986 -11.832 -26.4307 -26.4307 -26.4307c-14.5967 0 -26.4307 11.832 -26.4307 26.4307zM150.276 -40.8271c-9.73145 0 -17.6211 7.8877 -17.6211 17.6201s7.88965 17.6211 17.6211 17.6211c9.72949 0 17.6201 -7.88867 17.6201 -17.6211 s-7.88965 -17.6201 -17.6201 -17.6201zM361.725 -40.8271c-9.73242 0 -17.6211 7.8877 -17.6211 17.6201s7.88867 17.6211 17.6211 17.6211s17.6201 -7.88867 17.6201 -17.6211s-7.8877 -17.6201 -17.6201 -17.6201z"></path></g></glyph><glyph glyph-name="kub-recycle" unicode="&#xe014;"><g fill="currentColor" fill-opacity="1"><path d=" M452.538 349.539v-19.6543c0 -10.8096 -8.84375 -19.6533 -19.6533 -19.6533h-353.77c-10.8105 0 -19.6533 8.84375 -19.6533 19.6533v19.6543c0 10.8096 8.84375 19.6543 19.6533 19.6543h78.6162c0 21.6191 17.6875 39.3076 39.3076 39.3076h117.923 c21.6191 0 39.3076 -17.6885 39.3076 -39.3076h78.6152c10.8096 -0.000976562 19.6533 -8.8457 19.6533 -19.6543zM432.885 231.615v-275.153c0 -32.4297 -26.5332 -58.9619 -58.9619 -58.9619h-235.846c-32.4287 0 -58.9619 26.5322 -58.9619 58.9619v275.153 c0 32.4287 26.5332 58.9619 58.9619 58.9619h235.846c32.4287 0 58.9619 -26.5332 58.9619 -58.9619zM216.692 44.9961h-27.9785c-7.69238 0 -10.8408 5.45508 -6.99219 12.1143l15.4023 26.6787l10.0996 -5.83105l-22.3555 45.2158l-50.332 -3.24805l9.7793 -5.64551 l-21.5938 -35.9873c-3.95605 -6.60254 -3.95605 -17.3955 0 -23.9951l31.3232 -52.2012c3.95605 -6.59863 13.4912 -11.9961 21.1836 -11.9961h41.4639v54.8955zM262.994 157.975l12.4258 -21.5117l-9.9502 -5.75l50.3359 -3.24707l22.3535 45.2148l-10.5488 -6.08789 l-20.0254 33.377c-3.95801 6.59961 -13.4932 11.9922 -21.1855 11.9922h-60.7988c-7.69238 0 -17.2285 -5.39258 -21.1836 -11.9922l-20.1279 -33.542l52.1934 -30.1416l12.5225 21.6885c3.84766 6.66406 10.1426 6.66406 13.9893 0zM377.95 78.292l-21.6465 36.0762 l-52.8125 -30.4863l15.459 -26.7705c3.84961 -6.65918 0.698242 -12.1143 -6.99414 -12.1143h-27.9805v15.0469l-27.9756 -41.9648l27.9756 -41.9639v13.9844h41.4668c7.69141 0 17.2275 5.39746 21.1855 11.9961l31.3232 52.2012 c3.95605 6.59961 3.95605 17.3926 -0.000976562 23.9951z"></path></g></glyph><glyph glyph-name="kub-tablet" unicode="&#xe015;"><g fill="currentColor" fill-opacity="1"><path d=" M407.407 408.5h-302.814c-31.2285 0 -56.7773 -25.5498 -56.7773 -56.7783v-397.444c0 -31.2285 25.5498 -56.7773 56.7773 -56.7773h302.814c31.2275 0 56.7773 25.5498 56.7773 56.7773v397.444c0.000976562 31.2285 -25.5498 56.7783 -56.7773 56.7783z M104.593 370.648h302.814c10.2578 0 18.9258 -8.66602 18.9258 -18.9268v-321.74h-340.667v321.74c0 10.2607 8.66699 18.9268 18.9268 18.9268zM227.611 -36.2598c0 15.6807 12.71 28.3896 28.3887 28.3896c15.6807 0 28.3887 -12.709 28.3887 -28.3896 s-12.708 -28.3896 -28.3887 -28.3896c-15.6787 0.000976562 -28.3887 12.71 -28.3887 28.3896z"></path></g></glyph><glyph glyph-name="kub-cog" unicode="&#xe016;"><g fill="currentColor" fill-opacity="1"><path d=" M469.744 203.934l-22.9463 4.5918c-2.62891 0.525391 -5.19434 0.758789 -7.69238 0.776367c-3.19434 10.4482 -7.30762 20.668 -12.3223 30.5488c2.00488 1.93848 3.86719 4.15234 5.53906 6.66211l12.9746 19.4707 c12.9912 19.4863 10.0723 48.9785 -6.4873 65.5391c-16.5586 16.5625 -46.0508 19.4824 -65.542 6.49023l-19.4678 -12.9785c-1.92871 -1.28711 -3.64551 -2.71094 -5.23926 -4.2002c-11.5352 6.38281 -23.666 11.5674 -36.2627 15.4199 c-0.0283203 2.45215 -0.257812 4.96484 -0.772461 7.54297l-4.5918 22.9473c-4.59082 22.9639 -27.5127 41.7559 -50.9336 41.7559s-46.3398 -18.792 -50.9336 -41.7559l-4.5918 -22.9473c-0.515625 -2.57812 -0.743164 -5.0918 -0.770508 -7.54297 c-11.627 -3.55566 -22.8701 -8.21484 -33.6016 -13.9287c-1.13281 0.946289 -2.33008 1.85449 -3.61328 2.70898l-19.4678 12.9785c-19.4893 12.9922 -48.9834 10.0723 -65.5449 -6.49023c-16.5596 -16.5596 -19.4805 -46.0527 -6.48828 -65.5391l12.9795 -19.4707 c0.87207 -1.30762 1.80078 -2.52344 2.76855 -3.67578c-5.72266 -10.7979 -10.3213 -22.0342 -13.8369 -33.5352c-2.5 -0.0185547 -5.06543 -0.250977 -7.69531 -0.776367l-22.9473 -4.5918c-22.9658 -4.59082 -41.7568 -27.5127 -41.7568 -50.9336 s18.791 -46.3428 41.7559 -50.9336l22.9473 -4.5918c2.62988 -0.523438 5.19629 -0.756836 7.69531 -0.777344c3.80664 -12.4541 8.92578 -24.585 15.3213 -36.1992c-1.50977 -1.60547 -2.95117 -3.33984 -4.25195 -5.29395l-12.9795 -19.4707 c-12.9922 -19.4863 -10.0703 -48.9795 6.48828 -65.5381c16.5615 -16.5635 46.0566 -19.4824 65.5449 -6.49121l19.4678 12.9785c2.48633 1.65918 4.68652 3.50098 6.61133 5.48047c9.82715 -5.01074 20.0469 -9.19043 30.6035 -12.417 c0.0273438 -2.44922 0.254883 -4.96484 0.770508 -7.54395l4.5918 -22.9463c4.59375 -22.9639 27.5127 -41.7559 50.9336 -41.7559s46.3428 18.792 50.9336 41.7559l4.5918 22.9463c0.515625 2.5791 0.744141 5.09082 0.772461 7.54395 c11.6152 3.55176 22.8525 8.20508 33.5723 13.9141c2.22461 -2.54883 4.83594 -4.91504 7.92969 -6.97852l19.4668 -12.9785c19.4912 -12.9912 48.9834 -10.0723 65.542 6.49121c16.5605 16.5596 19.4795 46.0518 6.4873 65.5381l-12.9746 19.4707 c-2.0791 3.11914 -4.46582 5.74707 -7.04004 7.98438c5.71387 10.7861 10.3086 22.0146 13.8223 33.5088c2.49902 0.0205078 5.06445 0.253906 7.69336 0.777344l22.9463 4.5918c22.9688 4.5918 41.7568 27.5137 41.7568 50.9346s-18.7881 46.3428 -41.7559 50.9336z M256.002 46.542c-28.4375 0 -55.1748 11.0742 -75.2803 31.1758c-41.5078 41.5107 -41.5078 109.049 -0.00195312 150.561c20.1084 20.1055 46.8447 31.1807 75.2822 31.1807c28.4336 0 55.1689 -11.0742 75.2754 -31.1807c41.5107 -41.5117 41.5107 -109.05 0 -150.561 c-20.1016 -20.1016 -46.8369 -31.1758 -75.2754 -31.1758z"></path></g></glyph><glyph glyph-name="kub-speech-01" unicode="&#xe017;"><g fill="currentColor" fill-opacity="1"><path d=" M399.719 408.5h-287.438c-61.6348 0 -111.781 -50.1465 -111.781 -111.781v-223.562c0 -61.6387 50.1465 -111.781 111.781 -111.781h125.754l84.6631 -50.9424c14.0566 -8.45801 29.584 -12.9326 44.8955 -12.9326c41.8115 0 74.1973 31.2012 79.3242 74.334 c38.1172 17.8271 64.582 56.5391 64.582 101.322v223.562c0 61.6348 -50.1436 111.781 -111.781 111.781zM447.625 73.1562c0 -26.3496 -21.5576 -47.9062 -47.9062 -47.9062h-15.9688v-41.3193c0 -14.2051 -6.62891 -22.5557 -16.1562 -22.5557 c-3.63379 0 -7.69238 1.21875 -11.9639 3.78809l-99.8574 60.0869h-143.49c-26.3496 0 -47.9062 21.5576 -47.9062 47.9062v223.562c0 26.3496 21.5576 47.9062 47.9062 47.9062h287.438c26.3496 0 47.9062 -21.5576 47.9062 -47.9062z"></path></g></glyph><glyph glyph-name="kub-speech-02" unicode="&#xe018;"><g fill="currentColor" fill-opacity="1"><path d=" M399.719 408.5h-287.438c-61.6377 0 -111.781 -50.1465 -111.781 -111.781v-223.562c0 -61.6387 50.1436 -111.781 111.781 -111.781h125.754l84.6641 -50.9424c14.0547 -8.45801 29.583 -12.9326 44.8945 -12.9326c41.8115 0 74.1973 31.2012 79.3242 74.334 c38.1172 17.8271 64.582 56.5391 64.582 101.322v223.562c0 61.6348 -50.1436 111.781 -111.781 111.781zM447.625 73.1562c0 -26.3496 -21.5576 -47.9062 -47.9062 -47.9062h-15.9688v-41.3193c0 -14.2051 -6.62891 -22.5557 -16.1562 -22.5557 c-3.63477 0 -7.69238 1.21875 -11.9639 3.78809l-99.8574 60.0869h-143.49c-26.3496 0 -47.9062 21.5576 -47.9062 47.9062v223.562c0 26.3496 21.5576 47.9062 47.9062 47.9062h287.438c26.3496 0 47.9062 -21.5576 47.9062 -47.9062zM192.125 195.583 c0 -17.6406 -14.2969 -31.9385 -31.9385 -31.9385c-17.6406 0 -31.9375 14.2979 -31.9375 31.9385c0 17.6396 14.2969 31.9385 31.9375 31.9385c17.6416 0 31.9385 -14.2979 31.9385 -31.9385zM405.042 195.583c0 -17.6406 -14.2969 -31.9385 -31.9385 -31.9385 c-17.6406 0 -31.9375 14.2979 -31.9375 31.9385c0 17.6396 14.2979 31.9385 31.9375 31.9385c17.6406 0 31.9385 -14.2979 31.9385 -31.9385zM298.584 195.583c0 -17.6406 -14.2979 -31.9385 -31.9375 -31.9385c-17.6416 0 -31.9385 14.2979 -31.9385 31.9385 c0 17.6396 14.2969 31.9385 31.9385 31.9385c17.6396 0 31.9375 -14.2979 31.9375 -31.9385z"></path></g></glyph><glyph glyph-name="kub-document" unicode="&#xe019;"><g fill="currentColor" fill-opacity="1"><path d=" M452.229 289.875l-84.3164 84.3174c-34.2998 34.3076 -84.6924 34.3076 -108.911 34.3076c-3.86719 0 -7.67188 -0.0400391 -11.3682 -0.0771484c-3.09375 -0.0341797 -6.10352 -0.0644531 -8.98633 -0.0644531h-103.701 c-60.3711 0 -109.484 -49.1143 -109.484 -109.484v-291.889c0 -60.3711 49.1133 -109.484 109.484 -109.484h241.969c60.3701 0 109.483 49.1133 109.483 109.484v153.621c0 2.88281 0.0332031 5.89258 0.0634766 8.98633 c0.357422 33.9141 0.892578 85.167 -34.2324 120.282zM428.763 160.606v-153.622c0 -28.5186 -23.3311 -51.8506 -51.8486 -51.8506h-241.969c-28.5186 0 -51.8496 23.332 -51.8496 51.8506v291.89c0 28.5166 23.332 51.8486 51.8496 51.8486h103.702 c6.33887 0 13.2373 0.143555 20.3535 0.143555c24.8975 0 52.4775 -1.74316 68.1582 -17.4258l84.3193 -84.3213c20.166 -20.1611 17.2842 -59.9961 17.2842 -88.5127zM140.652 224.098v19.2119c0 10.5664 8.64551 19.2129 19.2119 19.2129h153.692 c10.5664 0 19.2119 -8.64648 19.2119 -19.2129v-19.2109c0 -10.5654 -8.64551 -19.2119 -19.2119 -19.2119h-153.692c-10.5674 -0.000976562 -19.2119 8.64551 -19.2119 19.2109zM371.191 147.252v-19.2119c0 -10.5664 -8.64551 -19.2119 -19.2109 -19.2119h-192.116 c-10.5664 0 -19.2119 8.64551 -19.2119 19.2119v19.2119c0 10.5664 8.64551 19.2109 19.2119 19.2109h192.116c10.5664 0 19.2109 -8.64453 19.2109 -19.2109zM371.191 51.1934v-19.2119c0 -10.5664 -8.64551 -19.2129 -19.2109 -19.2129h-192.116 c-10.5664 0 -19.2119 8.64648 -19.2119 19.2129v19.2119c0 10.5654 8.64551 19.2119 19.2119 19.2119h192.116c10.5664 0 19.2109 -8.64551 19.2109 -19.2119z"></path></g></glyph><glyph glyph-name="kub-like-01" unicode="&#xe01a;"><g fill="currentColor" fill-opacity="1"><path d=" M511.5 221.133c0 -114.467 -76.6504 -234.208 -204.4 -276.975c-12.3467 -4.13281 -25.5498 -8.33301 -51.3945 -8.33301c-25.2539 0 -38.5869 4.41992 -50.8047 8.49121c-127.75 42.6084 -204.4 162.541 -204.4 276.816 c0 85.7451 42.583 149.042 127.75 149.042c127.75 0 127.75 -106.458 127.75 -106.458s0 106.458 127.725 106.458c85.1924 0 127.775 -64.1445 127.775 -149.042z"></path></g></glyph><glyph glyph-name="kub-like-02" unicode="&#xe01b;"><g fill="currentColor" fill-opacity="1"><path d=" M367.069 375.174c-53.7812 0 -88.9355 -15.4668 -111.071 -35.6885c-22.1416 20.2217 -57.2939 35.6885 -111.085 35.6885c-87.7285 0 -144.413 -63.9531 -144.413 -162.929c0 -120.964 82.458 -232.944 200.531 -272.324 c11.5186 -3.83984 27.292 -9.09473 54.7129 -9.09473c26.292 0 41.1455 4.24414 55.2695 8.96973c118.043 39.5166 200.486 151.551 200.486 272.449c0 98.9756 -56.6934 162.929 -144.431 162.929zM289.859 3.00195c-8.85645 -2.96387 -16.5078 -5.52344 -34.1152 -5.52344 c-16.6074 0 -24.127 2.50488 -33.6338 5.67188c-91.2373 30.4307 -154.958 116.412 -154.958 209.095c0 35.9561 10.1016 96.2773 77.7607 96.2773c71.3281 0 77.3096 -33.624 77.7695 -40.7334c0.395508 -18.0635 15.1602 -32.584 33.3174 -32.584 c18.4072 0 33.3262 14.9209 33.3262 33.3262c0 0.398438 0.889648 39.9922 77.7432 39.9922c67.6719 0 77.7773 -60.3213 77.7773 -96.2773c0.000976562 -92.6504 -63.7354 -178.695 -154.987 -209.244z"></path></g></glyph><glyph glyph-name="kub-cart" unicode="&#xe01c;"><g fill="currentColor" fill-opacity="1"><path d=" M190.605 -25.7002c0 -24.3184 -19.7861 -44.1016 -44.1055 -44.1016s-44.1025 19.7822 -44.1025 44.1016c0 24.3203 19.7832 44.1055 44.1025 44.1055s44.1055 -19.7861 44.1055 -44.1055zM401.998 18.4053c-24.3193 0 -44.1016 -19.7861 -44.1016 -44.1055 c0 -24.3184 19.7812 -44.1016 44.1016 -44.1016c24.3184 0 44.1035 19.7822 44.1035 44.1016c0 24.3203 -19.7852 44.1055 -44.1035 44.1055zM468.917 321.051h-316.334c-5.1709 0 -10.1113 -0.980469 -14.707 -2.6875l-6.625 22.5996 c-2.0791 7.0957 -5.62793 13.3564 -10.1113 18.4443c-7.64551 9.85742 -20.708 16.3955 -35.4746 16.3955h-42.582c-23.4199 -0.000976562 -42.583 -16.4277 -42.583 -36.5s19.1631 -36.5 42.583 -36.5h23.3037l77.1602 -263.256 c0.985352 0.0458984 1.95703 0.149414 2.95215 0.149414c36.0605 0 65.3975 -29.3379 65.3975 -65.3965h124.707c0 34.9189 27.5342 63.4551 62.0215 65.2275c-6.49121 15.2578 -21.6533 26.0225 -39.2109 26.0225h-147.44l-10.6973 36.5h231.141 c23.4209 0 42.584 19.1621 42.584 42.583v6.08398c0 23.4209 -19.1631 42.584 -42.584 42.584h-257.887l-10.6973 36.499h305.084c23.4209 0 42.583 19.1621 42.583 42.583v6.08398c0 23.4209 -19.1621 42.584 -42.583 42.584z"></path></g></glyph><glyph glyph-name="kub-download" unicode="&#xe01d;"><g fill="currentColor" fill-opacity="1"><path d=" M501.28 122.34v-81.7598c0 -78.8945 -64.1875 -143.08 -143.08 -143.08h-204.4c-78.8936 0 -143.08 64.1875 -143.08 143.08v81.7598c0 22.4844 18.3965 40.8799 40.8799 40.8799c22.4844 0 40.8809 -18.3955 40.8809 -40.8799v-81.7598 c0 -33.7275 27.5947 -61.3203 61.3193 -61.3203h204.4c33.7256 0 61.3184 27.5938 61.3184 61.3203v81.7598c0 22.4844 18.3965 40.8799 40.8818 40.8799c22.4834 0 40.8799 -18.3955 40.8799 -40.8799zM227.093 161.467c15.8984 -15.9004 41.9141 -15.9004 57.8145 0 l126.146 126.146c15.9004 15.9004 10.5127 28.9072 -11.9727 28.9072h-51.0996v51.1006c0 22.4834 -18.3965 40.8799 -40.8818 40.8799h-102.199c-22.4834 0 -40.8809 -18.3965 -40.8809 -40.8799v-51.1006h-51.0996c-22.4844 0 -27.8721 -13.0068 -11.9727 -28.9072z"></path></g></glyph><glyph glyph-name="kub-upload" unicode="&#xe01e;"><g fill="currentColor" fill-opacity="1"><path d=" M509.712 130.069v-84.5713c0 -81.6055 -66.3936 -147.998 -147.999 -147.998h-211.426c-81.6064 0 -147.999 66.3926 -147.999 147.998v84.5713c0 23.2568 19.0283 42.2842 42.2852 42.2842s42.2852 -19.0273 42.2852 -42.2842v-84.5713 c0 -34.8848 28.543 -63.4277 63.4287 -63.4277h211.426c34.8857 0 63.4277 28.543 63.4277 63.4277v84.5713c0 23.2568 19.0283 42.2842 42.2852 42.2842c23.2578 0 42.2861 -19.0273 42.2861 -42.2842zM108.001 235.782h52.8574v-52.8574 c0 -23.2568 19.0273 -42.2852 42.2842 -42.2852h105.714c23.2568 0 42.2842 19.0283 42.2842 42.2852v52.8574h52.8564c23.2568 0 28.832 13.4541 12.3848 29.9004l-130.48 130.482c-16.4473 16.4473 -43.3574 16.4473 -59.8037 0l-130.48 -130.482 c-16.4453 -16.4463 -10.873 -29.9004 12.3838 -29.9004z"></path></g></glyph><glyph glyph-name="kub-calendar" unicode="&#xe01f;"><g fill="currentColor" fill-opacity="1"><path d=" M314.962 329.885v39.3076c0 21.6182 17.6885 39.3076 39.3076 39.3076c21.6201 0 39.3086 -17.6875 39.3086 -39.3076v-1.66992v-37.6387c0 -21.6201 -17.6885 -39.3076 -39.3086 -39.3076c-21.6191 0 -39.3076 17.6885 -39.3076 39.3086zM157.731 290.577 c21.6182 0 39.3076 17.6875 39.3076 39.3076v39.3076c0 21.6182 -17.6885 39.3076 -39.3076 39.3076c-21.6201 0 -39.3096 -17.6875 -39.3096 -39.3076v-1.66992v-37.6387c0.000976562 -21.6191 17.6895 -39.3066 39.3096 -39.3066zM491.846 251.269v-235.846 c0 -65.0215 -52.8984 -117.923 -117.923 -117.923h-235.846c-65.0225 0 -117.923 52.9004 -117.923 117.923v235.846c0 51.2422 32.8633 94.9365 78.6143 111.162v-32.5459c0 -32.5117 26.4502 -58.9619 58.9629 -58.9619c32.5107 0 58.9609 26.4502 58.9609 58.9619 v39.3076h78.6143v-39.3086c0 -32.5117 26.4482 -58.9619 58.9619 -58.9619s58.9619 26.4502 58.9619 58.9619v32.5469c45.748 -16.2256 78.6152 -59.9199 78.6152 -111.162zM432.885 231.615h-353.77v-216.192c0 -32.4287 26.5332 -58.9609 58.9619 -58.9609h235.846 c32.4287 0 58.9619 26.5322 58.9619 58.9609v216.192zM143.159 19.707c3.20215 -2.00391 6.43359 -3.00195 9.70801 -3.00195h75.9482c2.70117 0 5.04688 1.49316 7.04004 4.47852c1.9873 2.98633 2.98535 6.39941 2.98535 10.2383 c0 3.8418 -1.00195 7.18164 -3.00586 10.0303c-2.00781 2.84375 -4.36816 4.26465 -7.08203 4.26465h-56.2598v1.94238c0 3.44727 2.30371 7.22461 6.91016 11.3242c4.6123 4.0918 10.168 8.29883 16.6748 12.6123c6.49902 4.31445 12.9668 9.06348 19.3955 14.2412 c6.43066 5.1709 11.9316 11.5703 16.5068 19.1934c4.57129 7.61621 6.85938 15.7461 6.85938 24.3721c0 13.2305 -4.99805 23.749 -14.998 31.5488c-10.0029 7.7998 -21.6426 11.7002 -34.9277 11.7002c-12.8857 0 -24.1064 -3.73145 -33.665 -11.2012 c-9.55371 -7.46191 -14.333 -17.3848 -14.333 -29.7568c0 -11.5234 4.90918 -17.2812 14.7363 -17.2812c5.19238 0 9.37012 1.25098 12.5283 3.76172c3.15527 2.51074 4.7373 5.46289 4.7373 8.85938c0 5.75781 1.51172 9.96191 4.54102 12.6221 c3.02441 2.65527 6.91309 3.9834 11.6729 3.9834c5.47461 0 9.58105 -1.54688 12.3184 -4.6377c2.73633 -3.09375 4.10645 -6.64844 4.10645 -10.6787c0 -5.02832 -2.3457 -10.207 -7.02344 -15.5312c-4.68848 -5.31641 -10.4111 -10.4258 -17.1865 -15.3086 l-19.585 -14.6719c-6.46875 -4.86621 -11.9922 -10.3711 -16.5566 -16.5244c-4.56738 -6.15332 -6.84766 -12.3066 -6.84766 -18.46v-20.8213c0.00390625 -2.86035 1.60449 -5.29395 4.80176 -7.29785zM336.009 48.8125 c-2.89746 -2.91797 -7.95703 -4.37695 -15.1699 -4.37695c-12.5869 0 -18.8828 4.12793 -18.8828 12.377c0 4.12109 -1.17871 7.00098 -3.54297 8.64062c-2.36426 1.63184 -6.90918 2.45312 -13.6436 2.45312c-6.00781 0 -10.1602 -0.853516 -12.4434 -2.55762 c-2.29199 -1.71191 -3.43359 -4.90918 -3.43359 -9.60352c0 -10.3838 4.27246 -19.7002 12.8252 -27.9453c8.55371 -8.25293 21.2393 -12.376 38.0615 -12.376c16.1797 0 29.1992 3.91211 39.0615 11.7354c9.86523 7.81836 14.7979 19.9785 14.7979 36.4785v4.05469 c0 15.5039 -7.22363 25.9561 -21.6729 31.3604c5.15918 2.39941 9.20898 6.76855 12.1494 13.1123c2.93652 6.3457 4.40723 13.5352 4.40723 21.5732c0 25.9414 -15.8965 38.917 -47.6846 38.917c-16.6758 0 -28.9707 -3.87695 -36.8779 -11.624 c-7.91602 -7.75391 -11.8691 -16.6094 -11.8691 -26.5635c0 -5.40332 1.03613 -8.99805 3.11328 -10.7705c2.07617 -1.78027 6.83984 -2.66699 14.291 -2.66699c5.86523 0 9.9375 1.00879 12.2285 3.03613c2.28809 2.02148 3.43262 4.98926 3.43262 8.89648 c0 3.9082 1.27051 6.66406 3.81543 8.26953c2.53711 1.60352 6.49805 2.41016 11.8652 2.41016c10.4521 0 15.6807 -5.05957 15.6807 -15.1709c0 -4.06738 -0.460938 -7.39941 -1.37305 -9.99902c-0.918945 -2.59863 -2.25879 -4.42578 -4.02344 -5.47754 c-1.76172 -1.05273 -3.45508 -1.75879 -5.07422 -2.10742c-1.62402 -0.353516 -3.63574 -0.525391 -6.03125 -0.525391c-6.35254 0 -9.52246 -4.26953 -9.52246 -12.7979c0 -8.53711 3.16699 -12.8066 9.50098 -12.8066c6.64453 0 11.6963 -1.1709 15.166 -3.5166 c3.4668 -2.34961 5.20215 -6.86328 5.20215 -13.5498v-4.05469c0 -6.96777 -1.45508 -11.9121 -4.35352 -14.8242z"></path></g></glyph><glyph glyph-name="kub-edit" unicode="&#xe020;"><g fill="currentColor" fill-opacity="1"><path d=" M496.95 339.407l-54.5459 54.5371c-19.9971 20.002 -53.4277 19.2988 -74.2871 -1.56738l-249.337 -249.331l-1.89844 -1.89746l-57.8408 -57.8418l2.01562 -2.01367h-0.00195312l-2.01367 2.01367l-13.0312 -13.0264l0.118164 -0.115234 c-5.13965 -6.07715 -9.08691 -13.9209 -11.5977 -23.2461l-32.0947 -91.0352l-0.341797 -1.11426c-4.22754 -16.2344 0.0703125 -32.752 11.4951 -44.1816c11.4238 -11.4199 27.9414 -15.7188 44.1758 -11.4902l92.1553 32.4316 c9.32324 2.51074 17.165 6.45801 23.2412 11.5957l0.116211 -0.116211l13.0303 13.0371l-2.01562 2.01367h0.00195312l2.01367 -2.01367l57.8359 57.8359l1.89844 1.89746l249.336 249.336c20.8662 20.8594 21.5693 54.29 1.57227 74.292zM160.521 -31.707 c-1.51758 -4.86133 -7.51855 -8.99414 -16.4727 -11.3242l-52.5068 -18.4844l-49.2236 52.3613l17.3096 49.0938l0.34082 1.11426c2.33008 8.94824 6.46289 14.9492 11.3242 16.4658c5.44922 1.69238 13.0625 -1.65137 20.3633 -8.95215l59.9043 -59.9102 c7.30859 -7.30371 10.6533 -14.916 8.96094 -20.3643z"></path></g></glyph><glyph glyph-name="kub-tag" unicode="&#xe021;"><g fill="currentColor" fill-opacity="1"><path d=" M501.065 299.13l-28.9414 28.9414l-69.5342 69.5293c-7.95703 7.95801 -23.042 12.6035 -33.5146 10.3154l-79.2832 -22.2334c-3.11914 -0.676758 -59.3486 -55.7607 -74.7031 -71.1445l-0.0126953 -0.0078125l-40.5996 -40.5762l-162.352 -162.355 c-14.8838 -14.8809 -14.8838 -39.2344 0 -54.1152l94.7061 -94.7061l54.1172 -54.1123c14.8838 -14.8848 39.2354 -14.8848 54.1172 0l162.35 162.347l42.5068 42.5312l0.0078125 0.0117188c15.3848 15.3555 70.4697 71.585 69.2236 72.7725l20.2988 77.3584 c4.21094 12.3984 -0.429688 27.4834 -8.38672 35.4443zM384.181 199.543c-22.416 -22.416 -58.7598 -22.416 -81.1758 0c-22.418 22.4111 -22.418 58.7578 0 81.1729c22.416 22.4189 58.7598 22.4189 81.1758 0c22.415 -22.415 22.415 -58.7607 0 -81.1729z"></path></g></glyph><glyph glyph-name="kub-help" unicode="&#xe022;"><g fill="currentColor" fill-opacity="1"><path d=" M405.042 408.5h-298.084c-58.5518 0 -106.458 -47.9062 -106.458 -106.458v-298.083c0 -58.5527 47.9062 -106.459 106.458 -106.459h298.083c58.5518 0 106.458 47.9062 106.458 106.458v298.084c0.000976562 58.5518 -47.9053 106.458 -106.457 106.458z M273.985 3.30566c-7.45215 -7.63086 -16.4844 -11.4316 -27.084 -11.4316c-10.6084 0 -19.7207 3.80078 -27.3389 11.4316c-7.62695 7.61426 -11.4336 16.5674 -11.4336 26.8438c0 10.5918 3.82422 19.6328 11.4824 27.085c7.64844 7.45117 16.7412 11.1865 27.291 11.1865 c10.5996 0 19.6318 -3.82227 27.084 -11.4395c7.45605 -7.61816 11.1865 -16.5674 11.1865 -26.8311c-0.000976562 -10.2773 -3.73145 -19.2305 -11.1875 -26.8447zM294.267 169.555c-7.23047 -5.82129 -12.584 -11.5723 -16.043 -17.2461 c-3.46484 -5.67676 -5.54199 -10.667 -6.22852 -14.958c-0.692383 -4.2998 -1.04004 -10.875 -1.04004 -19.7285c0 -11.3652 -8.17188 -17.0332 -24.5098 -17.0332c-8.59277 0 -14.541 1.90918 -17.8652 5.72266c-3.3252 3.81738 -4.98828 11.0459 -4.98828 21.6904 c0 25.6416 9.27832 46.376 27.8369 62.2041c0.832031 0.819336 4.42773 3.67969 10.8047 8.59082c6.36621 4.90332 10.7998 8.5957 13.291 11.0449c2.49219 2.4541 5.2627 6.20898 8.31348 11.2568c3.04395 5.04883 4.56641 10.167 4.56641 15.3457 c0 9.00684 -3.45215 15.8936 -10.3516 20.6719c-6.90039 4.76953 -15.875 7.15723 -26.9082 7.15723c-9.38965 0 -17.1113 -1.53516 -23.1816 -4.5957c-6.07812 -3.06836 -10.0791 -6.4541 -12.0098 -10.1543c-1.93457 -3.70508 -4.56055 -7.08691 -7.87012 -10.1465 c-3.31152 -3.06543 -7.4502 -4.60352 -12.416 -4.60352c-6.34961 0 -12.0762 2.08301 -17.1768 6.23242c-5.11133 4.15918 -7.6582 9.97754 -7.6582 17.4541c0 13.2939 7.19824 25.8955 21.5986 37.8047c14.4014 11.9102 34.4824 17.8613 60.2432 17.8613 c26.3096 0 47.6289 -6.50781 63.9814 -19.5244c16.3389 -13.0205 24.5107 -29.3672 24.5107 -49.0244c0.000976562 -26.5938 -15.6357 -51.9307 -46.8994 -76.0225z"></path></g></glyph><glyph glyph-name="kub-calculator" unicode="&#xe023;"><g fill="currentColor" fill-opacity="1"><path d=" M361.725 408.5h-211.448c-58.2979 0 -105.725 -47.4277 -105.725 -105.724v-299.552c0 -58.2969 47.4287 -105.725 105.725 -105.725h211.448c58.2969 0 105.725 47.4277 105.725 105.725v299.552c-0.000976562 58.2959 -47.4277 105.724 -105.725 105.724z M132.655 3.22461c-19.3828 0 -35.2422 15.8584 -35.2422 35.2412s15.8594 35.2412 35.2422 35.2412s35.2412 -15.8584 35.2412 -35.2412s-15.8584 -35.2412 -35.2412 -35.2412zM132.655 108.948c-19.3828 0 -35.2422 15.8574 -35.2422 35.2412 c0 19.3828 15.8594 35.2412 35.2422 35.2412s35.2412 -15.8584 35.2412 -35.2412c0 -19.3838 -15.8584 -35.2412 -35.2412 -35.2412zM256 3.22461c-19.3828 0 -35.2412 15.8584 -35.2412 35.2412s15.8584 35.2412 35.2412 35.2412s35.2412 -15.8584 35.2412 -35.2412 s-15.8584 -35.2412 -35.2412 -35.2412zM256 108.948c-19.3828 0 -35.2412 15.8574 -35.2412 35.2412c0 19.3828 15.8584 35.2412 35.2412 35.2412s35.2412 -15.8584 35.2412 -35.2412c0 -19.3838 -15.8584 -35.2412 -35.2412 -35.2412zM379.345 3.22461 c-19.3828 0 -35.2412 15.8584 -35.2412 35.2412s15.8584 35.2412 35.2412 35.2412s35.2412 -15.8584 35.2412 -35.2412s-15.8584 -35.2412 -35.2412 -35.2412zM379.345 108.948c-19.3828 0 -35.2412 15.8574 -35.2412 35.2412c0 19.3828 15.8584 35.2412 35.2412 35.2412 s35.2412 -15.8584 35.2412 -35.2412c0 -19.3838 -15.8584 -35.2412 -35.2412 -35.2412zM414.586 249.914h-317.172v52.8623c0 29.0732 23.7881 52.8613 52.8623 52.8613h211.448c29.0732 0 52.8613 -23.7881 52.8613 -52.8613v-52.8623z"></path></g></glyph><glyph glyph-name="kub-mail" unicode="&#xe024;"><g fill="currentColor" fill-opacity="1"><path d=" M383.75 366.844h-255.5c-70.4414 0 -127.75 -57.3086 -127.75 -127.75v-172.188c0 -70.4414 57.3086 -127.75 127.75 -127.75h255.5c70.4414 0 127.75 57.3086 127.75 127.75v172.188c0 70.4414 -57.3086 127.75 -127.75 127.75zM383.75 302.969 c5.56445 0 10.9414 -0.793945 16.0977 -2.14648c-2.14941 -1.59863 -4.23242 -3.375 -6.20898 -5.35156l-138.08 -138.079l-137.639 137.639c-2.07324 2.07227 -4.25879 3.93945 -6.52051 5.59473c5.38086 1.48535 11.0137 2.34375 16.8506 2.34375h255.5zM447.625 66.9062 c0 -35.1318 -28.7441 -63.875 -63.875 -63.875h-255.5c-35.1309 0 -63.875 28.7432 -63.875 63.875v172.188c0 6.11914 0.920898 12.0264 2.54883 17.6416c1.71484 -2.38379 3.65137 -4.69141 5.83008 -6.87012l150.551 -150.551 c14.7842 -14.7832 35.2412 -19.0332 48.3047 -10.9512c5.8623 2.52246 11.5869 6.33496 16.6445 11.3916l150.551 150.551c2.2832 2.2832 4.29199 4.71191 6.06738 7.2207c1.77441 -5.84375 2.75293 -12.0264 2.75293 -18.4316v-172.188z"></path></g></glyph><glyph glyph-name="kub-arw-right" unicode="&#xe025;"><g fill="currentColor" fill-opacity="1"><path d=" M405.042 408.5h-298.084c-58.5518 0 -106.458 -47.9062 -106.458 -106.458v-298.083c0 -58.5527 47.9062 -106.459 106.458 -106.459h298.083c58.5518 0 106.458 47.9062 106.458 106.458v298.084c0.000976562 58.5518 -47.9053 106.458 -106.457 106.458z M375.55 152.643c0.423828 -13.6738 -4.58301 -26.4434 -14.0977 -35.959l-119.836 -119.828c-9.14941 -9.14844 -21.375 -14.1885 -34.4336 -14.1885c-13.0537 0 -25.2832 5.04004 -34.4365 14.1885l-22.1357 22.1396c-9.14941 9.14844 -14.1855 21.375 -14.1855 34.4326 c0 13.0596 5.04004 25.2842 14.1855 34.4385l65.1436 65.1338l-65.1436 65.1387c-18.9844 18.9883 -18.9844 49.877 0 68.8701l22.1436 22.1357c9.14941 9.15332 21.375 14.1895 34.4287 14.1895c13.0586 0 25.2881 -5.03613 34.4375 -14.1895l119.833 -119.832 c9.50586 -9.50684 14.5127 -22.2695 14.0977 -35.9307z"></path></g></glyph><glyph glyph-name="kub-arw-left" unicode="&#xe026;"><g fill="currentColor" fill-opacity="1"><path d=" M405.042 408.5h-298.084c-58.5518 0 -106.458 -47.9062 -106.458 -106.458v-298.083c0 -58.5527 47.9062 -106.459 106.458 -106.459h298.083c58.5518 0 106.458 47.9062 106.458 106.458v298.084c0.000976562 58.5518 -47.9053 106.458 -106.457 106.458z M361.364 87.8652c9.14453 -9.15332 14.1855 -21.3789 14.1855 -34.4385c0 -13.0576 -5.03613 -25.2832 -14.1855 -34.4326l-22.1357 -22.1406c-9.15234 -9.14746 -21.3838 -14.1875 -34.4375 -14.1875c-13.0576 0 -25.2842 5.04004 -34.4326 14.1875l-119.835 119.83 c-9.51562 9.51562 -14.5215 22.2852 -14.0977 35.959v0.740234c-0.416016 13.6611 4.59082 26.4229 14.0977 35.9307l119.832 119.831c9.14746 9.15332 21.3789 14.1895 34.4365 14.1895c13.0537 0 25.2793 -5.03613 34.4287 -14.1895l22.1445 -22.1357 c18.9834 -18.9922 18.9834 -49.8818 0 -68.8701l-65.1436 -65.1387z"></path></g></glyph><glyph glyph-name="kub-arw-up" unicode="&#xe027;"><g fill="currentColor" fill-opacity="1"><path d=" M405.042 408.5h-298.084c-58.5518 0 -106.458 -47.9062 -106.458 -106.458v-298.083c0 -58.5527 47.9062 -106.459 106.458 -106.459h298.083c58.5518 0 106.458 47.9062 106.458 106.458v298.084c0.000976562 58.5518 -47.9053 106.458 -106.457 106.458z M412.145 69.7793l-22.1357 -22.1445c-18.9922 -18.9834 -49.8818 -18.9834 -68.8701 0l-65.1387 65.1436l-65.1348 -65.1436c-9.15332 -9.14551 -21.3789 -14.1855 -34.4375 -14.1855c-13.0576 0 -25.2842 5.03613 -34.4326 14.1855l-22.1396 22.1367 c-9.14941 9.15137 -14.1895 21.3828 -14.1895 34.4365c0 13.0576 5.04004 25.2842 14.1895 34.4326l119.827 119.836c9.51562 9.51562 22.2861 14.5215 35.959 14.0977h0.740234c13.6611 0.416016 26.4229 -4.59082 35.9307 -14.0977l119.831 -119.833 c9.15234 -9.14746 14.1885 -21.3789 14.1885 -34.4365c0.000976562 -13.0527 -5.03516 -25.2783 -14.1875 -34.4277z"></path></g></glyph><glyph glyph-name="kub-arw-down" unicode="&#xe028;"><g fill="currentColor" fill-opacity="1"><path d=" M405.042 408.5h-298.084c-58.5518 0 -106.458 -47.9062 -106.458 -106.458v-298.083c0 -58.5527 47.9062 -106.459 106.458 -106.459h298.083c58.5518 0 106.458 47.9062 106.458 106.458v298.084c0.000976562 58.5518 -47.9053 106.458 -106.457 106.458z M412.145 167.359l-119.828 -119.836c-9.51562 -9.51562 -22.2852 -14.5215 -35.959 -14.0986h-0.740234c-13.6611 -0.416016 -26.4229 4.59082 -35.9307 14.0986l-119.831 119.832c-9.15332 9.14844 -14.1895 21.3789 -14.1895 34.4365 c0 13.0537 5.03613 25.2803 14.1895 34.4277l22.1357 22.1455c18.9922 18.9824 49.8818 18.9824 68.8701 0l65.1387 -65.1445l65.1348 65.1445c9.15332 9.14453 21.3789 14.1846 34.4385 14.1846c13.0576 0 25.2832 -5.03613 34.4326 -14.1846l22.1406 -22.1367 c9.14746 -9.15234 14.1875 -21.3828 14.1875 -34.4365c-0.000976562 -13.0576 -5.04102 -25.2842 -14.1895 -34.4326z"></path></g></glyph><glyph glyph-name="adb-acrobat" unicode="&#xe029;"><g fill="currentColor" fill-opacity="1"><path d=" M284.286 125.97c5.56055 -4.78223 11.7275 -9.29004 18.2393 -13.4736c-35.6348 -5.72266 -76.0703 -16.2979 -113.251 -32.3369c6.57129 11.4941 13.4189 24.0986 20.5635 37.8584c15.1533 29.1924 24.3984 53.2256 30.1025 74.3135 c10.3896 -25.751 25.208 -49.8896 44.3457 -66.3613zM511.5 323.333v-340.667c0 -46.8418 -38.3252 -85.167 -85.167 -85.167h-340.666c-46.8418 0.000976562 -85.167 38.3262 -85.167 85.168v340.666c0 46.8418 38.3252 85.167 85.167 85.167h340.667 c46.8408 0 85.166 -38.3252 85.166 -85.167zM413.924 104.146c-5.55566 8.74414 -24.4004 13.5615 -53.0791 13.5615c-11.2695 0 -24.2939 -0.802734 -38.458 -2.44531c-10.1006 5.71387 -19.9111 12.1719 -28.7764 19.2295 c-22.2891 18.2979 -38.6533 48.6445 -48.8564 79.1279c4.08301 22.5869 4.42383 42.1758 4.76855 62.2783c0.0556641 3.20508 0.109375 6.42871 0.180664 9.68457l-2.11133 0.237305c-0.746094 -3.67871 -1.42773 -8.22656 -2.21777 -13.4932 c-1.42383 -9.47754 -3.30176 -21.9326 -6.79688 -37.3447c-6.89746 28.3125 -8.19238 54.2412 -3.63184 67.6445c0.855469 2.52441 2.76758 5.3623 3.85254 6.51172c3.35059 -1.89355 8.46191 -6.56543 9.63281 -17.6445l2.10645 -0.0849609 c1.65039 8.67871 1.05566 14.8066 -1.75684 18.21c-2.58105 3.11523 -6.2959 3.11523 -7.69336 3.11523l-0.645508 -0.00390625l-6.42383 0.0517578c-4.30566 0 -7.69043 -3.42676 -9.28711 -9.40039c-5.56641 -20.7754 -2.74902 -55.8945 8.0625 -90.9062 c-6.79102 -23.6523 -17.2676 -52.3926 -34.085 -86.2598c-41.542 -83.6406 -72.0225 -125.01 -93.1406 -126.411c0 0.00488281 -0.00195312 0.0136719 -0.00195312 0.0214844c-0.52832 11.3105 21.3086 41.2227 50.2559 62.8389l-1.1377 1.79297 c-38.3867 -20.4102 -55.2324 -43.7236 -57.9971 -57.4795c-0.706055 -3.53418 -0.402344 -6.22852 0.87793 -7.79297l0.375 -0.194336l-0.0380859 -0.0791016l7.94238 -4.07129c2.10254 -1.07715 4.39746 -1.61816 6.82227 -1.61816h0.00195312 c17.5264 0 42.5059 27.9385 74.4385 83.1504c35.7402 12.8076 85.252 23.1338 129.951 27.6328c27.5137 -14.6582 58.1455 -23.5869 77.4658 -23.5869c13.8936 0 17.582 4.56641 18.2227 8.40039l0.345703 2.02051l-1.85449 -0.889648 c-2.22559 -1.06445 -5.42285 -1.60547 -9.51953 -1.60547c-14.3262 0 -37.4004 6.49219 -61.0352 17.5078c7.2168 0.387695 14.1973 0.595703 20.8477 0.595703c25.8086 0 43.0908 -3.25684 48.6455 -9.17871c1.40625 -1.48828 2.03027 -3.10547 1.91797 -4.93262 l2.02441 -0.515625c2.15527 4.58105 2.08887 8.73145 -0.194336 12.3252z"></path></g></glyph><glyph glyph-name="adb-aftereffects" unicode="&#xe02a;"><g fill="currentColor" fill-opacity="1"><path d=" M177.275 195.714l19.1875 -60.0879h-62.624l18.8223 60.0879c4.3457 14.4805 7.96289 31.4932 11.585 45.6113h0.723633c3.61816 -14.1182 7.60254 -30.7695 12.3057 -45.6113zM373.819 182.684c-27.5137 0 -39.0957 -24.9775 -40.9072 -43.0732h77.4648 c0.366211 16.2861 -6.87402 43.0732 -36.5576 43.0732zM511.5 323.333v-340.667c0 -46.8418 -38.3252 -85.167 -85.167 -85.167h-340.666c-46.8418 0.000976562 -85.167 38.3262 -85.167 85.168v340.666c0 46.8418 38.3252 85.167 85.167 85.167h340.667 c46.8408 0 85.166 -38.3252 85.166 -85.167zM273.928 32.8184l-79.2734 243.98h-56.834l-78.1904 -243.98h45.9727l20.9971 69.1396h77.4658l22.082 -69.1396h47.7803zM452.37 127.301c0 38.7305 -18.8262 85.79 -76.0195 85.79 c-56.4688 0 -86.1504 -45.9727 -86.1504 -94.8398c0 -53.9355 33.6631 -89.0508 90.8584 -89.0508c25.3389 0 46.334 4.70801 61.5381 10.8613l-6.5166 30.7656c-13.3955 -5.06445 -28.2363 -7.95898 -48.8711 -7.95898c-28.2324 0 -53.208 13.752 -54.2979 45.6094h118.011 c0.724609 3.98145 1.44824 10.4971 1.44824 18.8232z"></path></g></glyph><glyph glyph-name="adb-audition" unicode="&#xe02b;"><g fill="currentColor" fill-opacity="1"><path d=" M173.295 195.895l19.1855 -60.0859h-62.623l18.8223 60.0859c4.34473 14.4805 7.96387 31.4932 11.584 45.6113h0.723633c3.62109 -14.1182 7.60254 -30.7686 12.3076 -45.6113zM511.5 323.333v-340.667c0 -46.8418 -38.3252 -85.167 -85.167 -85.167h-340.666 c-46.8418 0.000976562 -85.167 38.3262 -85.167 85.168v340.666c0 46.8418 38.3252 85.167 85.167 85.167h340.667c46.8408 0 85.166 -38.3252 85.166 -85.167zM269.947 33.002l-79.2764 243.979h-56.833l-78.1875 -243.979h45.9727l20.9941 69.1396h77.4648 l22.082 -69.1396h47.7832zM456.35 33.002c-0.723633 14.4795 -1.44629 31.8545 -1.44629 52.8516v123.437h-44.5215v-106.425c0 -5.06543 -1.08887 -9.77344 -2.53613 -13.7568c-4.70801 -11.2207 -16.2891 -23.8916 -34.0244 -23.8916 c-23.5293 0 -32.9434 18.8252 -32.9434 48.1445v95.9287h-44.5205v-103.531c0 -57.5537 29.3164 -76.7412 61.5371 -76.7412c31.4883 0 48.8662 18.1035 56.4697 30.7734h0.723633l2.16992 -26.7891h39.0918z"></path></g></glyph><glyph glyph-name="adb-contribute" unicode="&#xe02c;"><g fill="currentColor" fill-opacity="1"><path d=" M426.333 408.5h-340.666c-46.8418 0 -85.167 -38.3252 -85.167 -85.167v-340.667c0 -46.8418 38.3252 -85.167 85.167 -85.167h340.667c46.8418 0 85.167 38.3252 85.167 85.167v340.667c-0.000976562 46.8418 -38.3262 85.167 -85.168 85.167zM229.221 64.1318 c18.1006 0 36.9258 3.62207 48.5068 9.0498l7.24023 -35.1104c-10.4961 -5.43164 -33.666 -10.8613 -62.9844 -10.8613c-77.4658 0 -124.525 48.5088 -124.525 122.714c0 80.3633 55.748 128.869 130.316 128.869c29.3213 0 50.3154 -6.15527 59.3643 -10.8623 l-9.77148 -35.4717c-11.585 5.06934 -27.5098 9.41113 -47.7812 9.41113c-49.5918 0 -85.4307 -31.1309 -85.4307 -89.7744c-0.000976562 -53.5723 31.4941 -87.9639 85.0654 -87.9639zM414.54 173.813h-42.3506v-77.8271c0 -21.3584 5.79297 -32.5781 22.8057 -32.5781 c7.60156 0 13.3945 1.08594 17.374 2.1709l0.723633 -34.0244c-6.5127 -2.53223 -18.0977 -4.3457 -32.2119 -4.3457c-16.293 0 -30.0498 5.43066 -38.375 14.4785c-9.41113 10.1357 -13.7568 26.0654 -13.7568 49.2334v82.8916h-25.333v33.3066h25.333v39.8174 l43.4404 10.4961v-50.3135h42.3506v-33.3057z"></path></g></glyph><glyph glyph-name="adb-bridge" unicode="&#xe02d;"><g fill="currentColor" fill-opacity="1"><path d=" M170.218 175.805h-22.8047v66.6074c4.70801 1.08496 12.3086 1.80859 25.3418 1.80859c28.2324 0 45.6074 -10.5 45.6074 -33.3057c-0.000976562 -20.6299 -17.375 -35.1104 -48.1445 -35.1104zM169.494 143.228h-22.082v-79.6396 c5.79297 -0.723633 13.3945 -1.08594 23.5293 -1.08594c28.5977 0 53.9355 10.8623 53.9355 40.9072c0 28.2324 -24.6143 39.8184 -55.3828 39.8184zM511.5 323.333v-340.667c0 -46.8418 -38.3252 -85.167 -85.167 -85.167h-340.666 c-46.8418 0.000976562 -85.167 38.3262 -85.167 85.168v340.666c0 46.8418 38.3252 85.167 85.167 85.167h340.667c46.8408 0 85.166 -38.3252 85.166 -85.167zM271.936 101.958c0 33.668 -23.5283 53.9365 -49.2285 60.4531v0.723633 c26.4229 9.77734 40.541 30.4072 40.541 52.8516c0 20.6348 -10.1338 36.5615 -25.3379 45.6104c-16.6504 11.5859 -36.9229 15.5654 -69.8633 15.5654c-24.9756 0 -50.6797 -2.1709 -64.7939 -5.06934v-239.997c11.2197 -1.44629 30.042 -3.25586 54.6602 -3.25586 c44.5205 0 73.1201 7.60254 90.4941 22.8066c14.1172 11.5791 23.5283 28.5957 23.5283 50.3115zM408.747 210.554c-3.61816 0.728516 -6.15527 1.08887 -10.4961 1.08887c-18.8262 0 -39.4561 -12.6709 -48.1436 -37.6465h-1.45117l-1.44727 33.6631h-38.7324 c1.08594 -15.9268 1.44727 -32.9395 1.44727 -56.8311v-119.458h44.5254v91.2217c0 5.06934 0.723633 9.77246 1.44727 13.7568c3.98242 19.9072 18.4639 33.6631 39.8164 33.6631c5.43164 0 9.41504 -0.723633 13.0332 -1.44629z"></path></g></glyph><glyph glyph-name="adb-dreamweaver" unicode="&#xe02e;"><g fill="currentColor" fill-opacity="1"><path d=" M426.333 408.5h-340.666c-46.8418 0 -85.167 -38.3252 -85.167 -85.167v-340.667c0 -46.8418 38.3252 -85.167 85.167 -85.167h340.667c46.8418 0 85.167 38.3252 85.167 85.167v340.667c-0.000976562 46.8418 -38.3262 85.167 -85.168 85.167zM197.107 62.1406 c-18.8828 -22.082 -49.0352 -33.3018 -85.9551 -33.3018c-20.2881 0 -35.5059 1.44727 -46.7773 3.25586v239.997c15.2158 3.25977 34.6592 5.06934 55.2334 5.06934c35.5059 0 60.0234 -9.41113 77.499 -28.2363c18.3154 -19.1826 29.5898 -48.1436 29.5898 -89.7695 c0 -43.4404 -11.5527 -76.0186 -29.5898 -97.0146zM404.51 31.3711h-32.125l-16.3477 71.6768c-4.22461 18.46 -7.32715 35.1104 -10.4287 56.4688h-0.5625c-2.81445 -21.7197 -6.47852 -39.0947 -10.4258 -56.4688l-17.4736 -71.6768h-32.4033l-40.582 176.289h35.5049 l14.376 -79.998c3.09375 -18.8262 6.19629 -38.0088 8.7334 -57.1963h0.564453c2.81934 19.1885 7.32715 38.7324 11.2734 56.835l17.7529 80.3594h28.1777l17.1914 -78.1895c4.22559 -20.6348 7.89355 -39.8164 10.9951 -59.0049h0.557617 c2.25391 19.1885 5.35547 38.3701 9.01953 59.0049l15.2178 78.1895h34.0996zM190.06 157.708c0 -61.9004 -26.7715 -93.7578 -71.8604 -93.3916c-7.0459 0 -14.3721 0 -19.165 1.08496v174.475c4.79297 1.44727 12.6836 2.53711 23.6768 2.53711 c43.3965 0 67.6318 -30.7695 67.3486 -84.7051z"></path></g></glyph><glyph glyph-name="adb-encore" unicode="&#xe02f;"><g fill="currentColor" fill-opacity="1"><path d=" M426.333 408.5h-340.666c-46.8418 0 -85.167 -38.3252 -85.167 -85.167v-340.667c0 -46.8418 38.3252 -85.167 85.167 -85.167h340.667c46.8418 0 85.167 38.3252 85.167 85.167v340.667c-0.000976562 46.8418 -38.3262 85.167 -85.168 85.167zM231.211 31.0098 h-147.328v243.98h141.897v-36.5625h-97.3721v-62.9844h91.9443v-36.2002h-91.9443v-71.6719h102.803v-36.5615zM428.117 31.0098h-44.5254v99.5469c0 25.3379 -9.41016 44.5254 -33.6631 44.5254c-17.7354 0 -30.0459 -12.6709 -34.7529 -26.0625 c-1.44629 -3.9834 -1.80859 -9.41406 -1.80859 -14.4795v-103.53h-44.8877v123.799c0 20.2734 -0.361328 37.2852 -1.44727 52.4893h39.0947l2.1709 -26.4229h1.08887c7.60352 13.752 26.7852 30.4072 56.1074 30.4072c30.7686 0 62.623 -19.9111 62.623 -75.6562v-104.616z"></path></g></glyph><glyph glyph-name="adb-fireworks" unicode="&#xe030;"><g fill="currentColor" fill-opacity="1"><path d=" M426.333 408.5h-340.666c-46.8418 0 -85.167 -38.3252 -85.167 -85.167v-340.667c0 -46.8418 38.3252 -85.167 85.167 -85.167h340.667c46.8418 0 85.167 38.3252 85.167 85.167v340.667c-0.000976562 46.8418 -38.3262 85.167 -85.168 85.167zM190.216 238.429 h-93.3301v-67.3311h87.0137v-36.5576h-87.0137v-103.53h-43.1572v243.98h136.487v-36.5615zM404.588 31.0098h-40l-20.3477 71.6758c-5.26562 18.4609 -9.12793 35.1113 -12.9873 56.4697h-0.703125c-3.50586 -21.7207 -8.07129 -39.0947 -12.9785 -56.4697 l-21.7529 -71.6758h-40.3555l-50.5254 176.288h44.2129l17.8936 -79.9971c3.85547 -18.8262 7.71875 -38.0098 10.8789 -57.1973h0.703125c3.50488 19.1885 9.11523 38.7324 14.0342 56.8359l22.1025 80.3584h35.0859l21.4043 -78.1875 c5.26465 -20.6357 9.82227 -39.8184 13.6816 -59.0068h0.702148c2.80859 19.1885 6.66211 38.3711 11.2295 59.0068l18.9463 78.1875h42.458z"></path></g></glyph><glyph glyph-name="adb-flashbldr" unicode="&#xe031;"><g fill="currentColor" fill-opacity="1"><path d=" M386.674 115.531c0 -35.4727 -17.0176 -57.915 -44.8877 -57.915c-19.1885 0 -34.7529 13.3945 -39.4561 31.1299c-0.723633 3.25684 -1.08984 6.87891 -1.08984 10.501v28.5938c0 4.3418 0.723633 8.3252 1.44727 11.5859 c5.06836 19.5449 21.3574 32.5781 39.4551 32.5781c29.6846 -0.000976562 44.5312 -25.3428 44.5312 -56.4736zM511.5 323.333v-340.667c0 -46.8418 -38.3252 -85.167 -85.167 -85.167h-340.666c-46.8418 0.000976562 -85.167 38.3262 -85.167 85.168v340.666 c0 46.8418 38.3252 85.167 85.167 85.167h340.667c46.8408 0 85.166 -38.3252 85.166 -85.167zM220.898 270.464h-140.816v-243.979h44.5254v103.526h89.7705v36.5625h-89.7705v67.3311h96.291v36.5586zM431.918 117.345 c0.366211 53.5723 -30.4072 89.4111 -73.4805 89.4111c-26.4238 0 -45.6104 -11.2217 -56.4736 -28.2363h-0.723633v104.978h-44.5215v-207.421c0 -18.0986 -0.723633 -37.6436 -1.44629 -49.5898h38.0088l2.1709 26.4268h0.723633 c12.667 -21.7236 32.9395 -30.4062 55.7451 -30.4062c39.8174 -0.000976562 79.9971 31.4873 79.9971 94.8379z"></path></g></glyph><glyph glyph-name="adb-flash" unicode="&#xe032;"><g fill="currentColor" fill-opacity="1"><path d=" M426.333 408.5h-340.666c-46.8418 0 -85.167 -38.3252 -85.167 -85.167v-340.667c0 -46.8418 38.3252 -85.167 85.167 -85.167h340.667c46.8418 0 85.167 38.3252 85.167 85.167v340.667c-0.000976562 46.8418 -38.3262 85.167 -85.168 85.167zM286.054 231.912 h-96.291v-67.3311h89.7705v-36.5576h-89.7705v-103.53h-44.5244v243.98h140.815v-36.5615zM366.763 24.4932h-44.8877v257.014h44.8877v-257.014z"></path></g></glyph><glyph glyph-name="adb-illustrator" unicode="&#xe033;"><g fill="currentColor" fill-opacity="1"><path d=" M227.593 191.009l19.1885 -60.0908h-62.627l18.8242 60.0908c4.34668 14.4805 7.96484 31.4932 11.582 45.6113h0.724609c3.62109 -14.1191 7.60059 -30.7695 12.3076 -45.6113zM511.5 323.333v-340.667c0 -46.8418 -38.3252 -85.167 -85.167 -85.167h-340.666 c-46.8418 0.000976562 -85.167 38.3262 -85.167 85.168v340.666c0 46.8418 38.3252 85.167 85.167 85.167h340.667c46.8408 0 85.166 -38.3252 85.166 -85.167zM324.246 28.1152l-79.2793 243.977h-56.8301l-78.1885 -243.977h45.9727l20.9971 69.1396h77.4648 l22.082 -69.1396h47.7812zM399.52 204.403h-44.8877v-176.288h44.8877v176.288zM402.052 253.632c-0.361328 13.7559 -9.77148 24.252 -24.9766 24.252c-14.8418 0 -24.9766 -10.4961 -24.9766 -24.252c0 -13.3945 9.77246 -23.8906 24.6143 -23.8906 c15.5664 0.000976562 25.3389 10.4971 25.3389 23.8906z"></path></g></glyph><glyph glyph-name="adb-indesign" unicode="&#xe034;"><g fill="currentColor" fill-opacity="1"><path d=" M337.803 140.874c0.728516 -3.61816 1.08496 -7.96387 1.08496 -11.5859v-26.4229c0 -4.70801 -0.356445 -9.0498 -1.44629 -13.0332c-4.3418 -19.1885 -20.2695 -31.4922 -38.3701 -31.4922c-28.2324 0 -44.1621 23.5283 -44.1621 55.7451 c0 32.9434 15.9297 58.2812 44.5225 58.2812c20.2725 0 34.3906 -14.1182 38.3711 -31.4922zM511.5 323.333v-340.667c0 -46.8418 -38.3252 -85.167 -85.167 -85.167h-340.666c-46.8418 0.000976562 -85.167 38.3262 -85.167 85.168v340.666 c0 46.8418 38.3252 85.167 85.167 85.167h340.667c46.8408 0 85.166 -38.3252 85.166 -85.167zM171.661 270.464h-44.5234v-243.979h44.5234v243.979zM384.864 26.4854c-0.728516 11.9463 -1.45117 31.4912 -1.45117 49.5898v207.422h-44.5254v-99.9092h-0.723633 c-7.95898 13.0312 -25.3379 23.167 -49.5898 23.167c-42.3535 0 -79.2764 -35.1133 -78.915 -94.1182c0 -54.2979 33.3027 -90.1318 75.292 -90.1318c25.6992 0 47.0576 12.3047 57.5576 31.8545h0.724609l1.80859 -27.874h39.8223z"></path></g></glyph><glyph glyph-name="adb-lightroom" unicode="&#xe035;"><g fill="currentColor" fill-opacity="1"><path d=" M426.333 408.5h-340.666c-46.8418 0 -85.167 -38.3252 -85.167 -85.167v-340.667c0 -46.8418 38.3252 -85.167 85.167 -85.167h340.667c46.8418 0 85.167 38.3252 85.167 85.167v340.667c-0.000976562 46.8418 -38.3262 85.167 -85.168 85.167zM263.065 31.0098 h-144.794v243.98h44.5225v-206.695h100.271v-37.2852zM393.73 168.204c-3.62207 0.723633 -7.60254 1.44727 -13.0332 1.44727c-21.3574 0 -35.8379 -13.7568 -39.8213 -33.6641c-0.723633 -3.9834 -1.44727 -8.6875 -1.44727 -13.7559v-91.2227h-44.5205v119.459 c0 23.8916 -0.366211 40.9033 -1.44727 56.8301h38.7324l1.44629 -33.6631h1.44727c8.68848 24.9766 29.3174 37.6475 48.1445 37.6475c4.3457 0 6.87793 -0.362305 10.5 -1.08887z"></path></g></glyph><glyph glyph-name="adb-onlocation" unicode="&#xe036;"><g fill="currentColor" fill-opacity="1"><path d=" M254.977 153.724c0 -51.0381 -24.2549 -90.8584 -67.3301 -90.8584c-42.7148 0 -67.6904 39.4561 -67.6904 89.0508c0 50.3125 23.5293 91.2207 67.6904 91.2207c44.5254 -0.000976562 67.3301 -43.4404 67.3301 -89.4131zM511.5 323.333v-340.667 c0 -46.8418 -38.3252 -85.167 -85.167 -85.167h-340.666c-46.8418 0.000976562 -85.167 38.3262 -85.167 85.168v340.666c0 46.8418 38.3252 85.167 85.167 85.167h340.667c46.8408 0 85.166 -38.3252 85.166 -85.167zM302.035 155.533 c0 69.501 -41.9912 123.438 -113.304 123.438c-68.7754 0 -115.835 -52.8467 -115.835 -127.778c0 -71.6738 43.4395 -124.161 112.216 -124.161c67.3301 -0.000976562 116.923 46.6943 116.923 128.502zM439.104 63.7119h-68.4707v139.498h-39.0898v-172.2h107.561v32.7021 z"></path></g></glyph><glyph glyph-name="adb-photoshop" unicode="&#xe037;"><g fill="currentColor" fill-opacity="1"><path d=" M426.333 408.5h-340.666c-46.8418 0 -85.167 -38.3252 -85.167 -85.167v-340.667c0 -46.8418 38.3252 -85.167 85.167 -85.167h340.667c46.8418 0 85.167 38.3252 85.167 85.167v340.667c-0.000976562 46.8418 -38.3262 85.167 -85.168 85.167zM245.329 148.476 c-17.7363 -17.7354 -45.6113 -26.0645 -77.1035 -26.0645c-8.3252 0 -15.9268 0.365234 -21.7197 1.45117v-91.9453h-44.1592v240.72c15.9277 2.89551 38.0098 5.06934 68.0508 5.06934c32.5811 0 56.4727 -6.87793 72.0381 -19.9111 c14.4805 -11.9473 23.8906 -31.1309 23.8906 -53.9355c-0.000976562 -23.168 -7.24023 -42.3516 -20.9971 -55.3838zM337.981 28.2939c-21.3584 0 -40.542 5.06934 -53.5742 12.3096l8.68652 32.2168c10.1348 -6.1543 29.3223 -12.6709 45.249 -12.6709 c19.5449 0 28.2363 7.96387 28.2363 19.5488c0 11.9424 -7.23926 18.0986 -28.96 25.7002c-34.3916 11.9463 -48.8662 30.7686 -48.5049 51.4023c0 31.1309 25.7002 55.3828 66.6035 55.3828c19.5488 0 36.5625 -5.06836 46.6953 -10.4951l-8.6875 -31.4932 c-7.60156 4.3418 -21.7207 10.1348 -37.2842 10.1348c-15.9287 0 -24.6152 -7.60156 -24.6152 -18.46c0 -11.2236 8.32617 -16.6553 30.7695 -24.6182c31.8545 -11.582 46.6963 -27.8711 47.0586 -53.9365c-0.000976562 -31.8545 -24.9766 -55.0215 -71.6729 -55.0215z M221.8 202.05c0 -28.5977 -20.2725 -44.8867 -53.5742 -44.8867c-9.04883 0 -16.2891 0.362305 -21.7197 1.80859v82.5342c4.70801 1.08496 13.3955 2.1709 25.7041 2.1709c30.7686 0 49.5898 -14.4795 49.5898 -41.627z"></path></g></glyph><glyph glyph-name="adb-prelude" unicode="&#xe038;"><g fill="currentColor" fill-opacity="1"><path d=" M426.333 408.5h-340.666c-46.8418 0 -85.167 -38.3252 -85.167 -85.167v-340.667c0 -46.8418 38.3252 -85.167 85.167 -85.167h340.667c46.8418 0 85.167 38.3252 85.167 85.167v340.667c-0.000976562 46.8418 -38.3262 85.167 -85.168 85.167zM276.826 141.053 c-17.7422 -17.7354 -45.6133 -26.0615 -77.1055 -26.0615c-8.32617 0 -15.9268 0.360352 -21.7197 1.44629v-91.9443h-44.1641v240.721c15.9268 2.89844 38.0088 5.06934 68.0537 5.06934c32.582 0 56.4697 -6.87793 72.041 -19.9111 c14.4795 -11.9434 23.8877 -31.1309 23.8877 -53.9316c-0.000976562 -23.167 -7.2373 -42.3555 -20.9932 -55.3877zM378.161 24.4932h-44.8877v257.014h44.8877v-257.014zM253.295 194.627c0 -28.5938 -20.2725 -44.8877 -53.5742 -44.8877 c-9.05273 0 -16.2891 0.366211 -21.7197 1.8125v82.5303c4.70801 1.08887 13.3955 2.1748 25.7002 2.1748c30.7715 0.000976562 49.5938 -14.4785 49.5938 -41.6299z"></path></g></glyph><glyph glyph-name="adb-premiere" unicode="&#xe039;"><g fill="currentColor" fill-opacity="1"><path d=" M227.955 200.239c0 -28.5967 -20.2734 -44.8877 -53.5752 -44.8877c-9.05273 0 -16.2891 0.364258 -21.7197 1.81152v82.5322c4.70801 1.08691 13.3945 2.17285 25.7002 2.17285c30.7725 0 49.5947 -14.4805 49.5947 -41.6289zM511.5 323.333v-340.667 c0 -46.8418 -38.3252 -85.167 -85.167 -85.167h-340.666c-46.8418 0.000976562 -85.167 38.3262 -85.167 85.168v340.666c0 46.8418 38.3252 85.167 85.167 85.167h340.667c46.8408 0 85.166 -38.3252 85.166 -85.167zM272.477 202.05 c0 22.8027 -9.40625 41.9893 -23.8867 53.9346c-15.5684 13.0322 -39.4561 19.9102 -72.0381 19.9102c-30.0449 0 -52.127 -2.17285 -68.0537 -5.06836v-240.718h44.1641v91.9434c5.79297 -1.08887 13.3945 -1.45117 21.7197 -1.45117 c31.4932 0 59.3633 8.33008 77.1045 26.0625c13.7539 13.0342 20.9902 32.2197 20.9902 55.3867zM403.503 209.288c-3.62207 0.725586 -6.1543 1.08691 -10.5 1.08691c-18.8262 0 -39.4561 -12.6709 -48.1436 -37.6475h-1.44727l-1.44727 33.666h-38.7314 c1.08105 -15.9268 1.44629 -32.9414 1.44629 -56.833v-119.452h44.5215v91.2217c0 5.06348 0.723633 9.77148 1.44727 13.752c3.98242 19.9092 18.4639 33.665 39.8203 33.665c5.43262 0 9.41113 -0.723633 13.0332 -1.44727z"></path></g></glyph><glyph glyph-name="adb-framemaker" unicode="&#xe03a;"><g fill="currentColor" fill-opacity="1"><path d=" M426.333 408.5h-340.666c-46.8418 0 -85.167 -38.3252 -85.167 -85.167v-340.667c0 -46.8418 38.3252 -85.167 85.167 -85.167h340.667c46.8418 0 85.167 38.3252 85.167 85.167v340.667c-0.000976562 46.8418 -38.3262 85.167 -85.168 85.167zM190.195 238.429 h-89.6738v-67.3311h83.6025v-36.5576h-83.6025v-103.53h-41.4697v243.98h131.144v-36.5615zM452.948 31.0098h-40.459v97.376c0 29.3223 -9.43945 46.6963 -29.3301 46.6963c-14.1592 0 -24.6104 -10.8623 -28.9932 -23.5293 c-1.00586 -4.3457 -2.02148 -9.77148 -2.02148 -14.8418v-105.701h-40.459v102.079c0 24.6191 -9.10254 41.9932 -28.3184 41.9932c-15.5068 0 -25.9531 -13.0332 -29.667 -25.3379c-1.68066 -4.3457 -2.3584 -9.41504 -2.3584 -14.4805v-104.254h-40.4541v123.799 c0 20.2734 -0.336914 37.2852 -1.34668 52.4893h35.7344l1.6875 -26.0615h1.00586c8.09766 13.752 22.9258 30.0449 50.5723 30.0449c21.5742 0 38.4326 -13.0332 45.5107 -32.582h0.673828c5.73047 9.77637 12.4766 17.0166 20.2275 22.082 c9.10352 6.87793 19.5537 10.5 33.0361 10.5c27.3125 0 54.959 -19.9111 54.959 -76.3789v-103.893z"></path></g></glyph><glyph glyph-name="adb-captivate" unicode="&#xe03b;"><g fill="currentColor" fill-opacity="1"><path d=" M409.657 153.545c0 -34.7529 -16.6504 -58.2822 -44.8877 -58.2822c-18.8203 0 -34.748 13.0332 -39.0986 31.1309c-1.08105 3.98438 -1.44727 7.96484 -1.44727 12.3105v27.1455c0 3.62305 0.724609 7.60254 1.81348 11.2246 c4.3418 19.5449 21.3574 32.9395 39.8223 32.9395c28.5947 0 43.7979 -25.3389 43.7979 -56.4688zM511.5 323.333v-340.667c0 -46.8418 -38.3252 -85.167 -85.167 -85.167h-340.666c-46.8418 0.000976562 -85.167 38.3262 -85.167 85.168v340.666 c0 46.8418 38.3252 85.167 85.167 85.167h340.667c46.8408 0 85.166 -38.3252 85.166 -85.167zM103.79 186.123c0 58.6436 35.8379 89.7744 85.4326 89.7744c20.2695 0 36.1963 -4.34668 47.7822 -9.41504l9.77246 35.4766 c-9.0498 4.70801 -30.041 10.8584 -59.3672 10.8584c-74.5713 0 -130.312 -48.5049 -130.312 -128.864c0 -74.209 47.0586 -122.714 124.523 -122.714c29.3174 0 52.4893 5.42676 62.9854 10.8564l-7.24414 35.1152c-11.5771 -5.43164 -30.4072 -9.0498 -48.5049 -9.0498 c-53.5713 0 -85.0674 34.3877 -85.0674 87.9619zM454.902 155.354c0 55.0215 -33.6592 89.7744 -74.2051 89.7744c-26.7891 0 -47.4238 -11.2236 -60.4482 -31.1309h-0.723633l-2.17969 27.1465h-39.0898c0.724609 -16.6494 1.44629 -35.4756 1.44629 -58.6436v-189.317 h44.5205v91.2227h0.724609c9.04883 -14.1182 27.5127 -23.5293 49.5947 -23.5293c40.1807 0 80.3604 30.7705 80.3604 94.4775z"></path></g></glyph><glyph glyph-name="adb-speedgrade" unicode="&#xe03c;"><g fill="currentColor" fill-opacity="1"><path d=" M426.333 408.5h-340.666c-46.8418 0 -85.167 -38.3252 -85.167 -85.167v-340.667c0 -46.8418 38.3252 -85.167 85.167 -85.167h340.667c46.8418 0 85.167 38.3252 85.167 85.167v340.667c-0.000976562 46.8418 -38.3262 85.167 -85.168 85.167zM142.888 63.2256 c-25.6992 0 -52.4883 7.24414 -65.8789 15.2041l9.77246 36.9287c14.4795 -8.33008 36.1953 -15.5703 59.001 -15.5703c28.5938 0 44.5205 13.3945 44.5205 33.3018c0 18.4639 -12.3008 29.3242 -43.4316 40.5459c-40.1797 14.4785 -65.8877 35.8359 -65.8877 70.9492 c0 39.8184 33.3008 70.2246 86.1553 70.2246c26.4238 0 45.9688 -5.79004 58.6445 -12.3066l-10.8623 -35.8359c-8.69043 4.70605 -25.7002 11.583 -48.5049 11.583c-28.2363 0 -40.5459 -15.2041 -40.5459 -29.3223c0 -18.8223 14.123 -27.5107 46.7012 -40.1797 c42.3496 -15.9268 62.9844 -37.2852 62.9844 -72.3975c0.000976562 -39.0957 -29.6826 -73.125 -92.668 -73.125zM433.544 192.458v-99.9062c0 -36.9277 -7.60156 -63.3516 -26.0566 -80.002c-18.4639 -16.2891 -43.8076 -21.3574 -68.0596 -21.3574 c-22.4385 0 -46.335 4.70801 -61.5381 14.1172l9.77246 33.6631c11.2275 -6.51172 30.0498 -13.3896 51.4072 -13.3896c28.9609 0 50.6758 15.2031 50.6758 53.2119v15.2041h-0.722656c-10.1396 -15.5693 -28.2373 -26.0654 -51.3994 -26.0654 c-43.8066 0 -74.9375 36.1992 -74.9375 86.1543c0 57.918 37.6504 93.0303 80.002 93.0303c26.7891 0 42.7168 -13.0332 51.042 -27.5107h0.723633l1.80469 23.5283h38.7324c-0.722656 -11.9443 -1.44629 -26.4248 -1.44629 -50.6777zM387.576 184.493 c1.08105 -3.61816 1.44727 -7.96387 1.44727 -11.9453v-28.5957c0 -5.06543 -0.724609 -11.2197 -1.81348 -15.9277c-5.06543 -15.9277 -19.5449 -26.7891 -36.1963 -26.7891c-27.8701 0 -43.0723 24.2529 -43.0723 54.2998c0 35.8359 18.4541 57.5557 43.4316 57.5557 c18.8281 0 31.4951 -12.3066 36.2031 -28.5977z"></path></g></glyph><glyph glyph-name="adb-robohelp" unicode="&#xe03d;"><g fill="currentColor" fill-opacity="1"><path d=" M426.333 408.5h-340.666c-46.8418 0 -85.167 -38.3252 -85.167 -85.167v-340.667c0 -46.8418 38.3252 -85.167 85.167 -85.167h340.667c46.8418 0 85.167 38.3252 85.167 85.167v340.667c-0.000976562 46.8418 -38.3262 85.167 -85.168 85.167zM199.178 24.4932 c-3.61816 7.24023 -9.40527 27.1504 -16.2852 57.5586c-6.87793 31.8545 -18.4639 41.9883 -43.8018 42.7119h-22.4424v-100.271h-44.1641v240.721c16.6494 2.89844 41.626 5.06934 67.3311 5.06934c35.1094 0 59.0049 -5.79297 75.2939 -19.5449 c13.3945 -11.2246 20.9961 -28.2363 20.9961 -48.8711c0 -31.4922 -21.3584 -52.8506 -44.1641 -61.1758v-1.08496c17.375 -6.51758 27.8711 -23.5293 34.0244 -47.0586c7.60254 -30.4072 14.1182 -58.6436 19.1885 -68.0547h-45.9766zM439.516 24.4932h-44.5283v98.8232 c0 25.6992 -9.40625 44.8867 -34.0254 44.8867c-17.374 0 -29.6836 -11.585 -34.3906 -24.9766c-1.44727 -3.62109 -1.80566 -8.32422 -1.80566 -13.3945v-105.34h-44.8877v257.015h44.8877v-104.978h0.724609c5.42676 8.32617 12.667 15.2041 22.0811 20.2725 c8.68359 5.06543 19.1836 7.96289 30.4072 7.96289c30.041 0 61.5371 -19.9111 61.5371 -76.3789v-103.893zM191.942 197.525c0 -24.252 -18.8213 -40.1846 -48.8711 -40.1846h-26.4229v77.1045c4.34082 1.08887 13.3945 2.1748 27.5127 2.1748 c28.96 0 47.7812 -12.3096 47.7812 -39.0947z"></path></g></glyph><glyph glyph-name="corel-draw" unicode="&#xe03e;"><g fill="currentColor" fill-opacity="1"><path d=" M239.532 -54.4434h32.9229c5.97656 0 10.8496 -4.87305 10.8496 -10.8496v-26.3691c0 -5.96289 -4.87305 -10.8369 -10.8496 -10.8369h-32.9229c-5.96289 0 -10.8369 4.87402 -10.8369 10.8369v26.3691c0 5.97656 4.87402 10.8496 10.8369 10.8496v0z M239.532 -54.4434zM102.525 262.977c0.411133 -81.3906 69.5342 -208.35 133.431 -295.97h6.28809c-48.5928 88.6396 -90.0361 197.934 -90.4023 284.073c-0.34082 78.1514 31.5801 127.745 74.6621 156.048c-9.56348 -0.889648 -19.1455 -2.2168 -28.6396 -4.04199 c-53.1299 -21.126 -95.7207 -64.7236 -95.3389 -140.109v0zM102.525 262.977zM243.163 408.247c-24.8975 -33.5049 -44.1025 -81.0117 -43.9307 -149.948c0.228516 -89.9775 21.2783 -196.93 48.4258 -291.292h16.6836c27.1475 94.3613 48.1973 201.314 48.4268 291.292 c0.170898 68.9365 -19.0332 116.443 -43.9307 149.948c-8.5498 0.335938 -17.125 0.335938 -25.6748 0v0zM243.163 408.247zM409.475 262.977c-0.410156 -81.3906 -69.5332 -208.35 -133.431 -295.97h-6.28711c48.5918 88.6396 90.0361 197.934 90.3975 284.073 c0.345703 78.1504 -31.5752 127.745 -74.6572 156.048c9.56348 -0.889648 19.1455 -2.2168 28.627 -4.04199c53.1416 -21.126 95.7295 -64.7236 95.3506 -140.109v0zM409.475 262.977zM280.382 -32.9932c71.5264 75.2705 152.676 201.084 153.212 298.033 c0.325195 59.4541 -28.6133 98.8809 -69.1504 122.959c49.665 -21.3076 87.4482 -60.6348 87.083 -124.556c-0.582031 -98.4756 -94.9688 -228.569 -169.9 -296.437h-1.24414zM280.382 -32.9932zM231.619 -32.9932c-71.5273 75.2695 -152.676 201.084 -153.213 298.033 c-0.324219 59.4541 28.6025 98.8809 69.1396 122.959c-49.6523 -21.3086 -87.4365 -60.6357 -87.0713 -124.556c0.583008 -98.4756 94.9697 -228.569 169.9 -296.437h1.24414zM231.619 -32.9932z"></path></g></glyph><glyph glyph-name="corel-painter" unicode="&#xe03f;"><g fill="currentColor" fill-opacity="1"><path d=" M263.338 407.272c8.55957 -0.796875 17.1318 -1.9834 25.6162 -3.61719c47.5557 -18.9033 85.6592 -57.915 85.3242 -125.371c-0.015625 -2.50781 -0.115234 -5.06836 -0.271484 -7.66504c-12.001 -12.3428 -27.1973 -29.2324 -41.7881 -49.0889 c-2.68262 -3.65039 -5.36914 -7.375 -8.05566 -11.1416c3.73535 19.8779 5.90527 39.1465 5.9834 57.249c0.304688 69.9316 -28.2578 114.31 -66.8086 139.635zM210.883 85.5488c9.95312 2.60254 18.5938 3.21484 24.458 3.21484 c4.83008 0 8.30664 -0.390625 9.91309 -0.616211c4.95605 8.33887 14.9512 24.9609 27.6855 45.2148c9.03027 48.5664 14.6904 96.9023 14.8027 140.737c0.15625 61.6846 -17.0273 104.193 -39.3105 134.175c-7.64941 0.300781 -15.3223 0.300781 -22.9736 0 c-22.2744 -29.9814 -39.458 -72.4912 -39.3096 -134.175c0.148438 -58.2461 10.0732 -124.422 24.7344 -188.551zM395.48 291.316c0.662109 0.587891 1.15332 1.01562 1.2832 1.13086l12.8564 11.0928c-8.15332 42.7588 -38.0479 70.4883 -75.6426 86.6162 c33.6621 -19.9971 58.3516 -51.8438 61.5029 -98.8398zM242.27 65.4775c0 0 -2.58984 0.424805 -6.92871 0.424805c-9.43652 0 -27.1416 -2.00586 -44.4072 -14.75c-39.1523 -28.9014 -32.9609 -77.0742 -57.1777 -101.522 c-13.4893 -13.6191 -32.7295 -16.5361 -46.7363 -16.5361c-10.4932 0 -18.0469 1.63867 -18.0469 1.63867s37.2412 -37.2295 106.609 -37.2295c15.7393 0 33.1211 1.91309 52.1094 6.61621c75.2139 18.6201 91.9434 96.375 91.9434 96.375 s-34.4414 21.8809 -54.3467 38.5996c-18.7471 15.7412 -23.0186 26.3838 -23.0186 26.3838zM442.649 212.475l-30.9482 62.6631s-32.0205 -27.6328 -61.0605 -67.1436c-43.1416 -58.7109 -89.0293 -137.1 -89.0293 -137.1s2.31738 -9.99805 17.6934 -20.6992 c15.1826 -10.5723 40.3291 -24.1768 40.3291 -24.1768s71.9463 59.0615 112.225 108.197c33.1201 40.415 10.791 78.2588 10.791 78.2588zM171.584 64.9346c-49.4531 65.1924 -93.1748 147.949 -93.5469 215.196c-0.291016 53.2002 25.5928 88.4805 61.8672 110.025 c-44.4307 -19.0674 -78.2393 -54.2568 -77.9121 -111.454c0.401367 -68.4639 51.4834 -154 105.697 -217.236c1.24512 1.17578 2.55469 2.33008 3.89453 3.46875zM99.6191 278.285c0.282227 -56.2812 37.292 -136.905 80.4785 -206.824 c4.13574 2.83887 8.26953 5.22949 12.3477 7.22656c-28.124 63.7578 -48.4561 132.002 -48.7012 188.952c-0.304688 69.9307 28.2578 114.308 66.8076 139.634c-8.55762 -0.796875 -17.1318 -1.9834 -25.623 -3.61719c-47.541 -18.9043 -85.6523 -57.915 -85.3096 -125.371z"></path></g></glyph><glyph glyph-name="_x33_dsmax" unicode="&#xe040;"><g fill="currentColor" fill-opacity="1"><path d=" M465.582 250.992c-60.3721 61.0703 -207.104 49.752 -264.736 35.4619c-67.3682 -17.2344 -85.3232 -68.4609 -83.5723 -151.68c0.757812 -47.7705 21.4482 -90.1504 61.8691 -104.438c82.1045 -28.5303 152.461 -24.5928 226.321 46.3184 c-37.9082 40.8799 -69.3467 55.1465 -121.021 51.2275c-50.1523 -2.46777 -78.5781 5.41699 -114.281 44.3135c43.415 41.8535 70.1133 62.0371 122.52 67.4766c58.6484 5.90234 110.783 -18.7305 133.498 -41.8496c21.1816 -21.6621 31.9297 -71.415 26.7021 -131.516 c-3.98242 -48.7588 -19.4707 -77.3154 -55.1738 -87.6592c-46.1465 -14.29 -113.016 -21.1826 -174.631 -18.7148c-72.8672 2.93164 -111.057 17.7432 -121.799 29.0625c-22.4189 25.0967 -38.9014 78.2832 -42.6523 139.354 c-3.72949 61.0898 5.73438 118.704 24.7148 150.225c18.7002 31.5283 88.0645 53.6768 190.119 60.083c85.1152 4.93066 164.206 -1.47461 165.195 -1.47461l-5.24414 67.9619s-182.162 -21.1807 -210.104 -23.626c-67.623 -6.40625 -158.677 -21.1777 -189.131 -72.4092 c-54.4072 -91.6074 -40.6699 -286.616 25.2051 -359.527c58.8799 -65.5137 263.245 -54.666 354.829 -27.1016c41.1562 12.3076 87.8115 46.3174 95.7988 138.892c5.47559 61.0938 -2.98926 147.284 -44.4268 189.62zM282.44 87.4893l64.6328 -14.29l-79.3398 -32.9775z M228.791 176.156l79.3359 32.9805l-14.708 -47.2666z"></path></g></glyph><glyph glyph-name="softimage" unicode="&#xe041;"><g fill="currentColor" fill-opacity="1"><path d=" M487.132 143.904c-3.1123 -0.432617 -5.01758 -3.44336 -6.81348 -5.79297c-0.571289 -1.24316 -1.13477 -2.48633 -2.03223 -3.66602c-3.42969 -5.75195 -2.40918 -1.18848 -5.58008 -7.33105c-0.571289 -1.23828 -1.45996 -2.41309 -2.03223 -3.66113 c-7.9209 -15.3564 -16.3086 -29.6143 -26.6562 -43.5059c-2.28613 -3.27539 -6.29688 -4.88086 -9.24023 -8.03418c-5.50293 -6.04297 -10.3623 -12.208 -15.8115 -17.9238c-8.2832 -17.3076 -22.1426 -30.209 -36.6494 -42.9795 c-5.91602 -4.62305 -12.1816 -7.49414 -18.6182 -11.3369c-4.6377 -3.17578 -8.29785 -6.53223 -12.1367 -10.8604c-3.33887 -3.4209 -7.01367 -5.08984 -10.8145 -7.41211c-1.86816 -0.998047 -3.93848 -1.2793 -6.16895 -0.530273 c-1.56152 0.629883 0.744141 -9.83105 -0.0498047 -8.67871c-7.63184 13.21 -10.3447 27.5273 -13.6465 42.2939c-4.39551 17.0898 -5.18848 22.0615 -5.18848 15.4463c-1.28418 3.94238 -1.2627 7.64062 -2.6084 11.2607 c-0.729492 1.48242 -0.753906 3.1709 -1.16211 4.59082c-3.12109 10.3438 -9.46289 19.6064 -9.73438 30.7754c-0.100586 8.43848 4.28223 21.0859 -6.77734 23.1641c-8.46582 1.57422 -17.3711 2.56738 -24.8965 7.34082 c-4.84082 2.93066 -9.5625 6.49512 -12.6113 11.7852c-2.12305 3.08984 -4.62207 5.91602 -5.96094 9.53125c-0.935547 2.19531 -1.16113 4.59082 -2.80859 6.58301c-8.09766 8.91895 -20.3379 6.49609 -30.418 2.99414 c-1.75098 -0.344727 -3.17578 -0.744141 -4.86328 -0.771484c-4.4082 -0.181641 -7.99219 0.480469 -12.2842 0.952148c-1.94629 0.363281 -3.69727 0.0195312 -5.44336 -0.334961c-10.0264 -3.17578 -19.1904 -7.18652 -28.8301 -10.0986 c-1.81055 -0.675781 -3.8877 -0.953125 -5.69336 -1.62891c-7.1123 -2.03711 -14.0264 -4.78613 -21.4033 -6.43359c-2.13184 -0.611328 -4.00098 -1.61816 -6.13867 -2.22266c-2.39844 -0.222656 -4.53516 -0.834961 -6.67285 -1.44727 c-4.59082 -1.16113 -9.30957 -2.97656 -13.8994 -4.1377c-15.2109 -3.89258 -29.6426 -7.24902 -44.9941 -10.1074c-1.74707 -0.339844 -3.29297 -1.40527 -4.77246 -2.13184c-11.3867 -3.25781 -22.0615 -6.31836 -33.0625 -9.3125 c-4.59082 -1.15723 -9.18262 -2.32812 -14.0449 -3.09961c-1.68848 -0.0185547 -4.08691 -0.25 -5.16309 -2.40332c3.25293 -0.608398 3.68359 -3.72168 2.48535 -6.52832c3.7207 -1.70117 7.60352 -0.749023 11.6865 -0.499023 c9.59961 0.902344 18.4004 2.96191 27.7949 4.56836c7.70801 1.58789 14.7578 3.30664 22.7295 4.50879c2.01367 -0.0449219 3.76074 0.308594 5.77441 0.272461c2.33594 -0.100586 4.52734 0.829102 6.98633 1.37891c4.53613 0.834961 8.92773 2.71289 13.5273 3.875 c4.85449 0.770508 9.85449 0.507812 14.9795 0.901367c6.09766 0.204102 11.9131 2.48633 17.874 3.7334c9.77051 1.87402 19.3154 2.4502 28.9658 3.6748c1.69238 0.0185547 3.70703 -0.0185547 5.44824 0.322266c9.97949 1.16602 19.7617 3.04395 29.6055 5.24902 c1.74219 0.334961 3.69727 -0.0195312 5.44336 0.326172c1.36133 0.0820312 2.60449 -0.480469 3.91113 -0.730469c1.62402 -0.303711 3.96484 -0.40332 5.40723 -1.6875c2.94824 -2.22852 6.22461 -4.52734 9.1084 -7.08105 c2.89062 -2.56836 4.56055 -6.24707 7.38672 -9.13379c2.23535 -2.43945 3.05273 -5.2793 6.06055 -7.18945c2.35938 -1.79199 4.6543 -3.91016 7.33984 -5.75195c5.76172 -3.43066 11.8965 -6.60156 18.3516 -8.14746c2.92676 -0.549805 4.95898 -2.27246 7.38184 -3.72852 c4.24609 -2.48145 7.15234 -6.7373 9.35742 -11.1836c5.86621 -11.8721 9.17871 -22.9326 13.7412 -34.5635c3.53906 -2.68164 6.69629 -5.625 9.00977 -9.42676c4.02832 -5.46289 6.18848 -11.9277 8.61523 -18.7812c1.66504 -3.68066 5.21191 -6.36035 5.83789 -10.1816 c0.916992 -5.90039 -2.23535 0.0107422 -3.33398 -5.84277c-0.503906 -0.916016 -1.0752 -2.15332 -1.91016 -3.00781c-8.40918 -7.18066 -17.6426 -11.5137 -27.6641 -14.6934c-11.4404 -3.58398 -22.71 -6.19629 -34.3779 -7.38574 c-8.94531 -1.02051 -17.0391 -2.86719 -26.0625 -2.52637c-3.05273 -0.104492 -5.58887 0.712891 -8.64355 0.603516c-1.74609 -0.349609 -3.4375 -0.37207 -5.12598 -0.389648c-10.2617 0.916016 -20.1836 0.0712891 -30.1494 2.60352 c-6.44629 1.54688 -13.0107 2.43262 -19.2754 4.9541c-6.5918 2.58105 -11.3867 7.5166 -17.8594 10.7422c-2.41797 1.46582 -5.3457 2.01465 -7.70312 3.80176c-2.35938 1.78809 -4.72852 3.5752 -7.02246 5.68945c-4.33301 3.83789 -10.498 3.31152 -14.8262 7.14453 c-8.19141 6.58301 -16.1943 12.4531 -24.4521 18.709c-3.21191 2.62695 -5.26172 6.04297 -8.53711 8.33789c-1.50684 0.953125 -3.375 -0.0400391 -3.67969 -1.67383c-0.303711 -1.62402 0.431641 -3.10645 -0.204102 -4.67285 c-1.13379 -2.48145 -4.0459 -3.62402 -5.12207 -5.7793c-1.51953 -2.74902 -0.702148 -5.59375 -0.212891 -8.37402c1.70996 -7.05957 3.09473 -14.0459 4.42285 -21.3672c1.44727 -6.66895 5.03125 -12.7207 9.70801 -18.3184 c4.41406 -5.19824 9.51855 -8.51074 14.3818 -13.1191c3.41602 -3.33496 4.57617 -7.93066 7.99805 -11.2598c4.53516 -4.55566 9.87988 -6.56152 14.8438 -8.83789c4.89844 -2.5957 9.9834 -4.22461 15.1289 -5.52148c5.79785 -1.41602 10.9648 -4.40527 16.7578 -5.8252 c8.01172 -2.17773 16.0059 -2.65332 24.4385 -2.54492c2.99316 -0.226562 5.47168 -1.36133 8.21582 -2.88574c1.23926 -0.566406 2.54492 -0.816406 4.02734 -0.0810547c1.81152 0.670898 3.5625 1.02051 5.24902 1.04297 c10.6348 1.03418 20.3691 0.907227 30.6416 -0.00390625c1.03418 0.140625 2.13184 0.602539 2.90332 1.13379c4.49023 4.21484 9.39062 7 15.0205 8.30762c5.5752 0.978516 11.0645 1.73633 16.6533 2.60742c11.7949 1.83691 22.71 6.19238 34.0928 9.44922 c4.97656 1.4248 9.49512 3.94727 14.5938 6.0293c7.36328 3.34375 14.0635 6.80469 21.041 9.87598c5.20801 -0.975586 9.87109 -18.6182 13.6182 -22.0078c1.76074 -1.34668 4.49121 -1.1748 5.56641 0.984375c1.94531 5.01855 -5.36621 21.1357 -5.42676 26.1943 c0.141602 4.35059 4.00684 6.99023 7.0918 9.11816c7.07617 5.40234 13.9688 9.84473 20.7764 15.6377c1.60645 1.38379 3.21191 2.77148 5.08105 3.77051c8.22949 6.20117 15.4248 12.2676 22.2744 20.0693c20.8047 23.0547 38.8232 45.6152 56.2393 70.3076 c5.68555 12.4033 13.4697 23.4092 19.2139 36.1396c1.88672 4.7002 0.789062 9.61719 2.94727 13.9316c3.85254 8.03418 3.64746 6.01074 8.09473 13.5967c2.93066 4.83691 6.55957 9.88086 6.94434 15.5332c0.555664 2.92578 -2.39746 5.15332 -5.50488 4.73145v0z M478.067 332.921c-3.74707 8.7832 -8.89258 15.4697 -15.6689 22.46c-6.17969 6.54199 -12.2227 12.0488 -18.9727 17.3535c-6.43359 5.24316 -13.043 9.50781 -19.6475 13.7725c-3.54297 2.68652 -7.59082 4.4502 -11.5723 6.54199 c-7.11816 3.35352 -14.2812 4.69141 -21.5811 7.06836c-11.5322 3.16699 -22.9727 4.97168 -34.4824 6.44531c-5.2666 0.649414 -10.207 1.23438 -15.5967 1.22949c-7.72949 0.0996094 -14.417 0.339844 -22.2021 0.113281 c-6.16016 -0.53125 -11.999 -1.12891 -17.8916 -2.0459c-6.93359 -1.0625 -13.873 -2.12305 -20.9229 -3.8291c-14.8799 -3.95605 -28.1367 -8.21582 -42.8535 -14.8838c-12.1309 -5.48047 -23.4355 -10.1035 -34.5674 -17.4482 c-18.4189 -12.0439 -32.0479 -27.3418 -48.7412 -42.7441c-7.37695 -7.03613 -14.9766 -11.6768 -22.6191 -18.3281c-7.69922 -6.98242 -14.5674 -13.1016 -21.0859 -20.9727c-2.68652 -3.54297 -5.43066 -7.40332 -4.26465 -11.999 c1.13867 -2.9082 2.1582 -6.46484 0.693359 -8.88867c-13.002 -19.1152 -24.1113 -38.9238 -36.2607 -58.875c-3.31641 -5.10742 -7.54004 -9.7041 -10.5254 -14.8711c-3.43359 -5.76172 -7.13086 -11.123 -9.9707 -17.3291 c-3.29297 -6.79102 -6.40137 -12.6113 -9.36426 -19.4629c-3.85938 -8.0293 -6.74023 -16.25 -8.97266 -24.5928c-0.118164 -0.639648 -0.363281 -1.94043 -0.490234 -2.59473c-2.86328 -4.50879 -3.62891 -10.4297 0.37207 -14.2129 c1.17871 -0.898438 2.4043 0.222656 3.56152 1.0166c3.27051 3.09961 4.05957 7.32129 6.74512 10.8652c4.08301 5.62988 7.19141 11.4541 10.6885 17.5244c6.53711 11.5771 11.4502 23.4541 18.3184 34.9629c2.80371 4.1875 5.2168 8.11523 8.02441 12.3076 c17.2529 27.4199 39.6465 48.1514 63.8896 71.5605c6.54199 6.18848 12.6973 12.1045 20.1553 17.7832c6.68262 5.14551 13.3877 9.46289 20.2656 14.7305c3.53809 2.70312 7.39453 5.34766 11.6035 6.24707c2.46289 0.552734 4.00977 -3.7793 5.20801 -6.36035 c1.99609 -3.73828 4.5 -6.56934 5.39453 -10.7734c0.839844 -4.53223 -1.37402 -9.16992 0.820312 -13.624c8.70996 -16.4443 15.1445 -32.4639 21.3311 -49.7842c2.15918 -6.45996 2.36816 -12.5625 4.52344 -19.0264c2.15918 -6.46875 4.37695 -12.6025 7.12695 -19.5166 c3.2793 -7.68555 6.08789 -14.2715 9.68848 -22.0117c2.93164 -5.9375 7.53125 -10.1621 13.0244 -13.2148c6.08398 -3.49805 13.3555 -4.17871 19.376 -7.99805c3.92383 -2.42285 6.95898 -6.01172 10.3799 -9.35059c6.17871 -6.53711 6.94043 -15.1025 11.6992 -22.0518 c5.34863 -2.01562 11.1016 -0.0634766 16.3457 0.988281c2.84961 0.807617 5.48926 2.33594 7.22363 4.37305c2.29004 3.27539 4.58105 6.55566 7.79297 9.31738c2.76758 2.17773 5.35352 3.37598 8.57324 4.45117c6.08398 1.8916 11.9238 2.48438 18.0566 4.70898 c1.4248 0.402344 3.11719 0.430664 4.8623 0.774414c8.35645 1.4707 16.0371 4.74512 24.3701 7.90234c6.85156 2.42285 13.7871 3.48438 20.5156 5.25391c13.1289 3.61133 26.3037 3.83789 39.5215 6.0791c10.8203 2.02441 20.2881 7.6582 31.167 10.0029 c6.73145 1.77051 15.5781 0.458008 19.1895 7.18652c1.01172 1.82715 -1.5293 2.64062 -3.21191 2.61719c-8.23828 -0.81543 -15.6963 -1.10645 -23.9268 -1.92383c-21.54 -1.69531 -41.8906 -4.29199 -64.0117 -5.53906 c-13.9453 -0.761719 -26.6914 -4.10449 -40.3701 -5.24902c-7.2002 -0.670898 -14.0098 -1.0791 -21.0908 -1.10547c-8.4375 -0.109375 -16.1035 0.316406 -24.0889 0.797852c-7.01367 0.299805 -12.6484 4.38281 -19.2402 6.96387 c-2.86133 0.871094 -5.37988 0 -8.12891 1.52051c-3.40332 1.64648 -7.42676 1.72461 -10.8203 3.37012c-5.55273 2.72754 -9.88965 6.56445 -14.4883 10.7881c-5.44434 5.05859 -9.86328 10.2627 -13.6465 17.0303c-3.25684 5.99707 -4.82227 12.0186 -8.14258 17.6846 c-0.730469 1.48242 -0.817383 2.84375 -1.22656 4.26855c-9.58594 18.9629 -16.4268 36.4102 -25.1777 56.2266c-2.3457 5.48926 -4.80371 10.3252 -7.53027 15.5518s-4.15039 10.208 -5.84766 15.5693c-0.0820312 1.36133 0.548828 2.93164 1.44727 4.11035 c19.2207 14.5889 41.8086 20.1328 62.8535 30.0049c11.9131 2.48633 23.5811 3.66992 35.6943 5.44434c9.33594 1.28809 18.3633 0.942383 28.0986 0.811523c14.5449 0.313477 27.5566 -2.11914 41.9639 -2.45898c3.38477 0.0449219 6.63379 -0.566406 9.77148 -1.82422 c2.85742 -0.875 5.46191 -1.35547 8.27344 -2.55859c4.04297 -1.76465 8.52148 -1.25586 12.626 -2.69922c6.58203 -2.57715 12.5254 -5.03125 18.2246 -8.79199c9.29004 -6.11426 17.166 -12.6338 24.9961 -21.1719c8.62402 -9.69531 14.1445 -19.8145 23.5449 -28.9834 c1.11621 -1.2168 3.31152 -0.276367 4.87207 -0.907227c3.13965 -1.26172 3.05762 -5.28516 5.74316 -7.1416c1.24219 -0.5625 2.39551 0.227539 2.25977 1.2666c0.107422 6.03809 -3.25781 11.3828 -4.18457 17.2744c-0.792969 6.5459 1.92969 12.1045 1.84375 18.8506 c-0.109375 3.05273 -0.208984 6.09668 -1.66992 9.06738c-2.73633 5.2334 -5.25879 9.74219 -7.66309 14.9053v0v0zM116.539 266.836c-1.68848 -5.41211 -3.95996 -10.375 -7.86133 -15.0293c-3.13965 -3.74707 -4.89551 -8.1748 -9.08301 -10.7607 c-1.48242 -0.729492 -3.31445 0.28125 -2.68555 1.85156c3.96094 10.3701 9.62695 19.0752 17.9824 25.9316c0.889648 1.17773 2.20996 -0.753906 1.64746 -1.99316v0z"></path></g></glyph><glyph glyph-name="lightwave" unicode="&#xe042;"><g fill="currentColor" fill-opacity="1"><path d=" M97.71 320.552c16.7129 -15.6602 30.9941 -58.8115 69.5186 -53.0146c-7.45703 -17.8691 -40.8193 -60.6045 -54.5479 -47.2119c-6.40918 6.24805 -10.7383 83.7148 -14.9707 100.227v0zM182.076 277.183c21.1895 2.67285 63.041 10.4062 66.915 27.5732 c0.00488281 0.00390625 -14.8848 26.0488 -15.6191 28.9883c-4.50977 18.0918 -2.92676 38.2441 -0.944336 56.6797c-15.0068 -21.6924 -50.8867 -90.7754 -50.3516 -113.241v0zM25.5283 187.903c8.81836 -7.54004 49.3535 -58.1641 56.2666 -57.0938 c6.96777 1.08008 30.8672 60.0791 25.7324 66.084c1.67871 -1.95898 -70.3633 -5.8877 -88.8633 -0.588867c0.517578 -4.30078 4.20215 -4.69043 6.86426 -8.40137v0zM48.248 49.8125c38.6572 -42.6924 43.1934 28.249 27.333 46.9775 c-13.6006 16.0635 -46.6729 -23.9082 -75.0811 -35.3223c13.3291 -3.58398 32.4639 -5.60645 47.748 -11.6553v0zM511.5 48.6875c-35.6484 -19.8477 -59.2383 -44.1084 -85.6689 -76.5c-19.2529 -23.5947 -36.4922 -49.7832 -68.2207 -53.9395 c-31.9824 -4.19629 -51.2812 14.79 -86.9668 3.05762c-37.332 -12.2793 -75.7158 -4.0459 -107.616 17.2803c-92.5371 61.874 -89.248 188.218 -28.4355 269.631c51.3105 68.6748 185.297 114.101 264.914 68.376c39.3184 -22.583 2.89062 -44.5127 16.626 -84.3125 c2.19141 -6.35547 5.22754 -12.1533 7.86719 -18.2783c6.2959 -14.585 26.3711 -47.0117 26.9199 -61.9473c0.807617 -21.9932 -2.63574 -13.6045 -17.4521 -29.5234c-15.8516 -17.0352 -62.2471 -106.892 -81.3535 -106.434 c-5.21875 0.118164 -14.2363 19.6621 -17.9561 23.4277c-12.6299 12.7891 -39.7812 1.35547 -55.0469 1.59766c-136.755 2.13672 -123.269 206.365 -4.79492 177.317c74.2686 -18.21 31.7607 -71.5156 -3.96582 -95.0791 c-1.51953 -1.00195 1.38477 -18.9902 2.12695 -21.0039c-57.7227 23.4941 28.3672 63.376 0.65332 83.0635c-50.8633 36.1387 -104.936 -129.864 10.707 -96.375c129.038 37.3633 -13.0205 278.156 -115.919 87.4648c-30.9844 -57.4141 0.367188 -138.742 62.2012 -160.83 c29.3379 -10.4834 52.4746 -1.25684 82.207 -0.0263672c36.751 1.51562 43.9189 -23.0273 81.2598 -4.88184c41.9268 20.3652 71.3965 69.1377 117.914 77.915v0zM368.148 54.1914c-47.8926 33.0078 2.01953 -65.6533 0 0v0zM386.19 170.569 c-48.9492 -10.5166 11.4131 -46.2549 32.1279 -48.3975c-3.56543 20.1016 -13.9814 39.2285 -32.1279 48.3975v0zM304.428 242.215c11.4873 -35.2402 48.4922 3.10352 67.3926 13.668c-20.6426 5.26855 -61.5537 13.5615 -67.3926 -13.668v0zM128.531 -51.416 c-3.69238 11.5234 -21.335 61.167 -34.5508 62.4189c-11.667 1.10742 -32.3369 -72.8936 -37.8623 -87.0928c0.413086 -0.408203 0.826172 -0.826172 1.24316 -1.23828c23.0059 28.5303 60.2373 15.1201 71.1699 25.9121v0z"></path></g></glyph><glyph glyph-name="cinema4d" unicode="&#xe043;"><g fill="currentColor" fill-opacity="1"><path d=" M392.098 368.04l-13.3877 -15.207s14.6621 -16.1953 28 -45.6826c-39.21 37.7793 -92.4922 61.0615 -151.25 61.0615c-13.1152 0 -25.9385 -1.22461 -38.415 -3.44824c22.5371 16.0518 38.415 20.8418 38.415 20.8418l-2.11328 22.1465 s-172.271 10.5605 -239.423 -182.47c-62.9678 -181 116.023 -293.213 116.023 -293.213l12.6553 15.8184s-11.0459 11.1055 -23.3574 32.0107c37.3271 -29.9043 84.666 -47.8291 136.215 -47.8291c5.92969 0 11.7861 0.303711 17.5928 0.766602 c-16.6973 -9.21777 -27.5361 -11.9668 -27.5361 -11.9668l1.0791 -22.2256s171.587 -18.5957 247.688 171.078c71.3604 177.862 -102.187 298.318 -102.187 298.318zM132.057 327.596c-8.2373 -10.4375 -16.876 -23.2051 -16.876 -23.2051l-7.95312 5.63477 c8.99121 8.33789 18.6904 15.9189 28.9932 22.665c-1.35156 -1.61035 -2.74023 -3.29297 -4.16406 -5.09473zM83.4111 283.754c7.0625 -4.53613 13.8408 -8.89551 13.8408 -8.89551s-7.84375 -14.0459 -13.7139 -28.4775 c-2.77246 -6.82324 -5.22754 -13.7412 -7.15918 -19.5342c-1.95117 -4.53711 -3.69727 -9.17773 -5.30762 -13.8818l-21.7031 8.44238c7.87109 22.7646 19.3936 43.8047 33.8926 62.4404c0.0449219 -0.0253906 0.100586 -0.0615234 0.150391 -0.09375zM255.46 -44.7031 c-67.1318 0 -126.443 34.1289 -161.497 85.9502c-10.5879 41.1152 -12.8477 94.7422 9.61328 158.726c20.7764 59.1807 47.5605 100.127 72.8477 128.19c24.1709 10.7793 50.9053 16.8223 79.0361 16.8223c72.6045 0 136.012 -39.9443 169.528 -98.9795 c6.3457 -39.832 4.11328 -89.4893 -19.0771 -146.804c-26.2939 -65.0098 -59.0215 -106.864 -88.0547 -133.599c-19.6025 -6.64551 -40.5752 -10.3066 -62.3965 -10.3066zM355.964 -43.1201c0 0 7.54883 6.96387 15.5332 16.1641 c8.72363 10.0439 17.9463 22.3936 17.9463 22.3936l10.7246 -8.37988c-13.3369 -11.8408 -28.1357 -22.0566 -44.0908 -30.3721zM422.144 14.5625c-6.8418 4.86719 -13.4092 9.53516 -13.4092 9.53516s8.49121 13.6641 15.0283 27.8057 c0.177734 0.385742 0.350586 0.774414 0.53125 1.16113c5.70703 9.88965 10.5928 20.2969 14.5166 31.1758l21.3369 -9.46777c-8.36133 -22.7061 -20.415 -43.624 -35.3994 -62.0615c-0.867188 0.613281 -1.73828 1.23438 -2.60449 1.85156z"></path></g></glyph><glyph glyph-name="maya" unicode="&#xe044;"><g fill="currentColor" fill-opacity="1"><path d=" M397.395 107.858l2.13281 -34.7051l-19.1357 34.7051c-23.3721 133.167 -130.327 203.288 -130.327 203.288l-16.998 24.0791l15.5918 -1.41016c122.542 -61.6191 148.736 -225.957 148.736 -225.957zM138.152 171.601l43.918 36.833l-22.6641 16.3008z M419.669 -77.2021l-4.5625 6.56055c-55.2461 109.795 -68.6846 110.797 -68.6846 110.797s-30.7949 27.4688 -69.083 4.16016c0 0 -39.5371 -18.1191 -42.8574 -54.7471c0 0 -3.28027 -37.2197 9.21387 -48.8682c0 0 22.8008 -29.4609 71.9316 -17.9014 c14.1465 3.33887 -25.8037 36.6279 -25.8037 36.6279c4.99023 2.49512 13.3184 2.49512 13.3184 2.49512c49.9385 -3.34277 66.5791 -22.4736 66.5791 -22.4736c-39.9482 -73.248 -147.312 -28.2998 -147.312 -28.2998c-62.4238 30.7891 -74.251 94.0527 -74.251 94.0527 c-9.99316 50.7725 10.9971 89.0576 10.9971 89.0576c18.3047 43.2832 13.3105 52.4287 13.3105 52.4287c-28.2949 -21.6387 -79.9023 -36.6221 -79.9023 -36.6221c-4.99023 143.159 55.7686 181.448 55.7686 181.448c33.2939 -0.830078 84.0586 -72.4131 84.0586 -72.4131 c-16.6406 116.525 -168.952 188.938 -168.952 188.938s149.815 12.4854 273.837 -92.3867c0 0 68.2383 -55.7646 102.373 -157.307c4.62695 -13.7832 25.7949 -128.181 -19.9795 -235.548zM394.555 179.404c0 0 -23.1367 73.2207 -77.9111 123.958 c-9.5625 8.8457 -49.585 46.7451 -120.415 68.6963l-46.0469 12.0439s55.9541 -43.2012 74.3682 -84.9961c0 0 29.043 -68.7119 13.4648 -109.786l-6.37891 -12.04c0.00976562 -0.00390625 -40.3564 62.3281 -75.0703 85.7051c0 0 -38.2471 -55.2695 -36.8379 -114.044 c0 0 54.5391 20.5361 68.7119 31.874c0 0 15.584 -29.7412 6.36914 -63.0352l-7.78418 -21.2539s-39.668 -92.0889 20.5361 -148.048c0 0 -14.0762 72.6045 12.0459 119.009l31.874 63.748s40.3662 68.7012 2.12207 152.99c0 0 30.5225 -14.5205 39.6689 -56.6602 c8.68262 -40.0498 12.7461 -70.8301 -41.085 -158.667c0 0 21.8135 18.2275 29.748 23.377c20.4189 13.2725 61.6201 32.5908 94.2012 -24.7881c0 0 26.9209 -43.2109 31.874 -58.0771c0 0 24.0898 86.4023 -13.4551 169.994z"></path></g></glyph><glyph glyph-name="autocad" unicode="&#xe045;"><g fill="currentColor" fill-opacity="1"><path d=" M152.285 -18.0059l-19.9521 -84.4941h-124.987l23.082 79.6709c31.792 -7.74316 74.3633 -6.11035 121.857 4.82324zM404.659 110.946h-17.9512h-16.2363v-17.0947v-16.6621h34.1885zM106.656 77.04h-17.5254v50.7227h97.5732l32.7129 138.507l35.5938 -138.507 h48.6504v49.5674h50.4238v99.1416h0.28125l-34.6455 132.028h-164.314l-113.954 -393.285c46.541 -15.6006 122.887 -3.47852 211.237 45.1572h-146.033v16.668zM504.654 110.946v-33.7568h-50.4238v-48.7148h-34.7871l33.8965 -129.17h-139.616l-33.5391 130.505 c9.59082 4.94434 19.1729 10.1807 28.7031 15.751c3.79688 2.22363 7.46289 4.45508 11.1602 6.6875v24.9424h-52.0391h-144.536v16.6621h-17.5234v17.0947h17.5234h59.2676h76.5947h61.1396v49.5703h17.5215h32.9082v52.9375v46.2051h11.1045h5.13086h17.5215v-99.1426 h32.0508h17.5215v-49.5703h32.9023zM419.616 127.613h-64.5283v-65.3867h64.5283v65.3867z"></path></g></glyph><glyph glyph-name="autocad-lt" unicode="&#xe046;"><g fill="currentColor" fill-opacity="1"><path d=" M55.7041 -90.0127c0.0820312 0.157227 0.924805 1.75195 5.25098 7.7041c8.55762 11.79 21.4053 20.6074 25.6377 23.3359l87.1406 10.9785c-7.75488 -7.45996 -13.9053 -16.7773 1.12305 -18.6797c65.2627 -8.23535 162.188 28.4766 200.285 44.3789 l0.0771484 -0.887695l70.0537 6.25586c-33.9355 -17.0498 -119.062 -50.7891 -302.895 -80.874c-81.8125 -13.3887 -87.5898 6.06348 -87.6553 6.21289zM144.581 408.5l70.877 -8.26562l244.397 -398.479l-74.3369 -6.63477l-40.1396 70.8359l-154.282 -9.47559 l-4.88184 -85.457l-92.752 -11.6826zM193.805 134.977l108.266 2.70898l-100.146 175.933h-2.70703zM75.4844 -45.5527l51.0312 448.409c-0.255859 -0.743164 -0.378906 -1.26855 -0.378906 -1.26855l-73.9922 -467.327c8.45801 9.56543 18.1377 16.7041 23.3398 20.1865z"></path></g></glyph><glyph glyph-name="modo" unicode="&#xe047;"><g fill="currentColor" fill-opacity="1"><path d=" M383.116 174.473c14.6885 -55.9492 33.375 -133.562 28.3711 -167.646c-6.96875 -47.2676 -36.2881 -71.583 -81.5312 -60.4639c-37.4727 9.19531 -73.1035 68.4795 -128.839 115.691c-41.8057 35.417 -60.5234 50.3154 -79.2695 57.3936 c1.29785 12.4385 4.55566 21.8936 14.1953 24.7832c-12.0537 -2.35449 -20.4424 -7.65332 -22.3428 -25.71c-0.290039 -2.38574 -0.431641 -5.1709 -0.385742 -8.28711v-0.195312c0.385742 -35.8203 20.6182 -115.801 14.8242 -136.065 c-4.68945 -16.4131 -26.3154 -28.9346 -44.7168 -34.1875c-30.4951 -8.71484 -37.876 2.35742 -42.0684 4.60352c-17.0889 9.2002 -51.8076 98.6982 -37.4629 180.783c7.23145 41.4189 30.9121 83.4863 74.2773 95.3223c41.3506 11.2783 98.8262 -8.4834 175.802 -76.9326 c18.001 -57.8955 45.1572 -128.721 42.6074 -143.273c3.55664 18.5908 -31.1885 129.466 -43.7246 187.348c-1.98633 10.2217 -3.61426 19.875 -4.93945 29.084c-1.14355 16.7188 19.4756 33.7031 40.6475 41.9092c25.1738 9.7627 66.4834 8.05762 74.0557 -6.73145 c2.19043 -11.0068 5.59863 -24.8428 10.7969 -42.1221c2.875 -11.2148 6.15527 -23.0547 9.70312 -35.3037zM368.535 260.301c2.12305 1.25195 4.04199 2.48145 5.71191 3.61133c-2.30469 0.830078 -4.49609 1.45996 -6.57812 1.93164 c0.245117 -1.7373 0.521484 -3.59277 0.866211 -5.54297zM363.871 342.036c5.03613 -9.52246 7.14551 -21.876 7.14551 -32.4961c0 -8.95508 -1.50195 -16.6074 -4.03613 -20.3047c-0.167969 -0.550781 -0.62207 -2.61816 -0.62207 -7.28613 c0 -2.24121 0.123047 -5.08594 0.426758 -8.57422c4.19043 -0.703125 8.91016 -2.17773 13.9453 -4.2373c22.6738 21.3672 30.001 53.5771 24.8428 64.2969c-26.9521 21.2188 -51.917 34.4102 -76.415 36.0752c14.7158 -4.55078 27.6133 -14.1045 34.7129 -27.4736z M446.7 228.055c9.40527 8.91895 26.04 27.2246 32.4141 35.6768c-23.7393 25.5762 -51.876 51.4355 -51.876 51.4355c-4.37305 3.92383 -8.69141 7.66211 -12.9648 11.2275c0.275391 -6.30078 -0.844727 -13.8857 -3.32617 -21.9512 c-2.7168 -8.65527 -9.19922 -24.4668 -23.1133 -38.4609c18.6318 -8.95312 40.5625 -24.1094 58.8662 -37.9277zM381.224 210.107c6.42969 -5.61621 13.4346 -11.8545 20.6387 -17.9512c7.83008 2.64062 28.0664 20.8047 37.9424 29.6689l1.47559 1.33008 c-19.0078 14.249 -41.2832 29.4453 -59.1709 37.5625c-3.54883 -2.84863 -8.49707 -5.87012 -12.1943 -7.97559c1.82422 -9.18262 4.53711 -20.4414 8.49707 -34.1963c0.924805 -2.88086 1.87305 -5.70703 2.81152 -8.43848zM282.925 264.134 c-5.3125 19.4355 -15.5879 63.8389 -7.21777 88.9082c-25.3906 -19.5752 -36.3828 -56.2539 -30.0498 -118.273c7.5166 12.457 22.3018 22.9912 37.2676 29.3652zM360.496 264.106c-2.92578 20.1504 -0.675781 26.9014 -0.167969 28.0957 c0.167969 0.357422 0.37207 0.688477 0.607422 0.978516c3.625 4.09766 5.11719 29.2793 -3.44727 45.4609c-11.6133 21.8535 -40.8848 32.0566 -65.4775 23.958c-18.7998 -7.94727 -13.2363 -55.6084 -2.3125 -95.8945c21.6943 7.12305 54.1621 7.83984 70.7979 -2.59863z M511.415 219.181c-0.952148 7.76758 -12.8125 23.0371 -27.3369 39.1338c-7.01953 -8.9873 -22.1074 -25.6006 -31.543 -34.7109c15.2422 -11.7588 27.1553 -21.875 31.1025 -25.2715c7.19922 2.18652 24.7148 13.9268 27.832 18.1689 c0.0585938 0.947266 0.0273438 1.83594 -0.0546875 2.67969zM463.182 162.99c8.30371 2.91309 17.0762 9.09668 25.2158 15.4297c7.38965 5.75684 15.0615 15.9004 19.4346 25.4092c-7.33984 -5.35449 -16.7031 -10.7568 -22.4287 -12.4766 c-3.54395 -9.3623 -14.291 -20.791 -22.2217 -28.3623zM447.154 218.687l-2.50977 -2.24023c-13.6826 -12.2803 -27.5596 -24.4209 -36.7041 -29.3848c15.4648 -12.7334 31.1191 -23.7627 42.8965 -25.5547c7.62598 6.54688 23.3906 21.54 27.6143 31.7881 c-5.68359 4.96289 -17.2695 14.6445 -31.2969 25.3916z"></path></g></glyph></font>
</defs>
</svg>
